<svg id="_25_Video_Lession" data-name="25_Video Lession" xmlns="http://www.w3.org/2000/svg" width="60.424" height="60.424" viewBox="0 0 60.424 60.424">
  <path id="Path_2091" data-name="Path 2091" d="M38.092,56.085H26.007A1.007,1.007,0,0,1,25,55.078V45.007A1.007,1.007,0,0,1,26.007,44H38.092A1.007,1.007,0,0,1,39.1,45.007V55.078A1.007,1.007,0,0,1,38.092,56.085Z" transform="translate(-1.837 -1.703)" fill="#dfeaef"/>
  <path id="Path_2092" data-name="Path 2092" d="M27.014,56.078V46.007A1.007,1.007,0,0,1,28.021,45H26.007A1.007,1.007,0,0,0,25,46.007V56.078a1.007,1.007,0,0,0,1.007,1.007h2.014A1.007,1.007,0,0,1,27.014,56.078Z" transform="translate(-1.837 -1.696)" fill="#c3d6dd"/>
  <path id="Path_2093" data-name="Path 2093" d="M51.276,62.057H13.007A1.007,1.007,0,0,1,12,61.05,7.059,7.059,0,0,1,19.05,54H45.233a7.059,7.059,0,0,1,7.05,7.05A1.007,1.007,0,0,1,51.276,62.057Z" transform="translate(-1.929 -1.632)" fill="#0455bf"/>
  <path id="Path_2094" data-name="Path 2094" d="M14.014,61.05A7.059,7.059,0,0,1,21.064,54H19.05A7.059,7.059,0,0,0,12,61.05a1.007,1.007,0,0,0,1.007,1.007h2.014A1.007,1.007,0,0,1,14.014,61.05Z" transform="translate(-1.929 -1.632)" fill="#004787"/>
  <path id="Path_2095" data-name="Path 2095" d="M59.4,46.311H5.021A3.021,3.021,0,0,1,2,43.29V5.021A3.021,3.021,0,0,1,5.021,2H59.4a3.021,3.021,0,0,1,3.021,3.021V43.29A3.021,3.021,0,0,1,59.4,46.311Z" transform="translate(-2 -2)" fill="#fdfeff"/>
  <path id="Path_2096" data-name="Path 2096" d="M4.014,43.29V5.021A3.021,3.021,0,0,1,7.035,2H5.021A3.021,3.021,0,0,0,2,5.021V43.29a3.021,3.021,0,0,0,3.021,3.021H7.035A3.021,3.021,0,0,1,4.014,43.29Z" transform="translate(-2 -2)" fill="#dfeaef"/>
  <path id="Path_2097" data-name="Path 2097" d="M59.4,46.057H5.021A3.021,3.021,0,0,1,2,43.035V38H62.424v5.035A3.021,3.021,0,0,1,59.4,46.057Z" transform="translate(-2 -1.745)" fill="#0455bf"/>
  <path id="Path_2098" data-name="Path 2098" d="M4.014,44.042V38H2v6.042a2.014,2.014,0,0,0,2.014,2.014H6.028A2.014,2.014,0,0,1,4.014,44.042Z" transform="translate(-2 -1.745)" fill="#004787"/>
  <rect id="Rectangle_301" data-name="Rectangle 301" width="2" height="2" transform="translate(29 39.424)" fill="#febc00"/>
  <path id="Path_2099" data-name="Path 2099" d="M32.071,28.141A10.071,10.071,0,1,1,42.141,18.071,10.071,10.071,0,0,1,32.071,28.141Z" transform="translate(-1.859 -1.958)" fill="#0455bf"/>
  <path id="Path_2100" data-name="Path 2100" d="M34.085,26.113a10.052,10.052,0,0,1-8.046-16.1A10.058,10.058,0,1,0,40.116,24.088,10,10,0,0,1,34.085,26.113Z" transform="translate(-1.859 -1.943)" fill="#004787"/>
  <path id="Path_2101" data-name="Path 2101" d="M36.661,17.191l-6.1-3.974A1.007,1.007,0,0,0,29,14.061v8a1.007,1.007,0,0,0,1.562.841l6.1-4.023a1.007,1.007,0,0,0-.005-1.685Z" transform="translate(-1.809 -1.922)" fill="#febc00"/>
  <path id="Path_2102" data-name="Path 2102" d="M36.661,17.191h0l-4.085,2.687a1.007,1.007,0,0,1-1.562-.836V13.514l-.457-.3A1.007,1.007,0,0,0,29,14.061v8a1.007,1.007,0,0,0,1.562.841l6.1-4.023a1.007,1.007,0,0,0-.005-1.685Z" transform="translate(-1.809 -1.922)" fill="#edaa03"/>
  <path id="Path_2103" data-name="Path 2103" d="M20.064,30H11v2.014H50.276V30Z" transform="translate(-1.936 -1.802)" fill="#0455bf"/>
  <path id="Path_2104" data-name="Path 2104" d="M18.05,31H11v1.007H50.276V31H18.05Z" transform="translate(-1.936 -1.795)" fill="#004787"/>
  <path id="Path_2105" data-name="Path 2105" d="M17.014,33.028a2.014,2.014,0,1,1,2.014-2.014A2.014,2.014,0,0,1,17.014,33.028Z" transform="translate(-1.908 -1.809)" fill="#febc00"/>
  <path id="Path_2106" data-name="Path 2106" d="M17.014,30.007a1.987,1.987,0,0,1,.266-.98A1.934,1.934,0,0,0,17.014,29a2.014,2.014,0,1,0,1.748,2.994A2.014,2.014,0,0,1,17.014,30.007Z" transform="translate(-1.908 -1.809)" fill="#edaa03"/>
</svg>
