<svg id="calendar-svgrepo-com" xmlns="http://www.w3.org/2000/svg" width="67.829" height="65.179" viewBox="0 0 67.829 65.179">
  <g id="Group_74" data-name="Group 74" transform="translate(0 16.427)">
    <path id="Path_2072" data-name="Path 2072" d="M0,134v43.453a5.305,5.305,0,0,0,5.3,5.3H62.53a5.305,5.305,0,0,0,5.3-5.3V134Z" transform="translate(0 -134)" fill="#d8dce1"/>
  </g>
  <g id="Group_75" data-name="Group 75" transform="translate(0 1.59)">
    <path id="Path_2073" data-name="Path 2073" d="M62.53,22H5.3A5.305,5.305,0,0,0,0,27.3v9.538H67.829V27.3A5.305,5.305,0,0,0,62.53,22ZM8.479,32.6a3.179,3.179,0,1,1,3.179-3.179A3.179,3.179,0,0,1,8.479,32.6Zm50.872,0a3.179,3.179,0,1,1,3.179-3.179A3.179,3.179,0,0,1,59.35,32.6Z" transform="translate(0 -22)" fill="#ff4f19"/>
  </g>
  <g id="Group_91" data-name="Group 91" transform="translate(8.479 25.966)">
    <g id="Group_76" data-name="Group 76" transform="translate(21.196)">
      <path id="Path_2074" data-name="Path 2074" d="M228.239,206a4.239,4.239,0,1,0,4.239,4.239A4.244,4.244,0,0,0,228.239,206Z" transform="translate(-224 -206)" fill="#fff"/>
    </g>
    <g id="Group_77" data-name="Group 77" transform="translate(10.598)">
      <path id="Path_2075" data-name="Path 2075" d="M148.239,206a4.239,4.239,0,1,0,4.239,4.239A4.244,4.244,0,0,0,148.239,206Z" transform="translate(-144 -206)" fill="#fff"/>
    </g>
    <g id="Group_78" data-name="Group 78">
      <path id="Path_2076" data-name="Path 2076" d="M68.239,206a4.239,4.239,0,1,0,4.239,4.239A4.244,4.244,0,0,0,68.239,206Z" transform="translate(-64 -206)" fill="#fff"/>
    </g>
    <g id="Group_79" data-name="Group 79" transform="translate(31.795)">
      <path id="Path_2077" data-name="Path 2077" d="M308.239,206a4.239,4.239,0,1,0,4.239,4.239A4.244,4.244,0,0,0,308.239,206Z" transform="translate(-304 -206)" fill="#fff"/>
    </g>
    <g id="Group_80" data-name="Group 80" transform="translate(42.393)">
      <path id="Path_2078" data-name="Path 2078" d="M388.239,214.479A4.239,4.239,0,1,0,384,210.239,4.244,4.244,0,0,0,388.239,214.479Z" transform="translate(-384 -206)" fill="#fff"/>
    </g>
    <g id="Group_81" data-name="Group 81" transform="translate(21.196 10.598)">
      <path id="Path_2079" data-name="Path 2079" d="M228.239,286a4.239,4.239,0,1,0,4.239,4.239A4.244,4.244,0,0,0,228.239,286Z" transform="translate(-224 -286)" fill="#fff"/>
    </g>
    <g id="Group_82" data-name="Group 82" transform="translate(10.598 10.598)">
      <path id="Path_2080" data-name="Path 2080" d="M148.239,286a4.239,4.239,0,1,0,4.239,4.239A4.244,4.244,0,0,0,148.239,286Z" transform="translate(-144 -286)" fill="#fff"/>
    </g>
    <g id="Group_83" data-name="Group 83" transform="translate(0 10.598)">
      <path id="Path_2081" data-name="Path 2081" d="M68.239,286a4.239,4.239,0,1,0,4.239,4.239A4.244,4.244,0,0,0,68.239,286Z" transform="translate(-64 -286)" fill="#fff"/>
    </g>
    <g id="Group_84" data-name="Group 84" transform="translate(31.795 10.598)">
      <path id="Path_2082" data-name="Path 2082" d="M308.239,286a4.239,4.239,0,1,0,4.239,4.239A4.244,4.244,0,0,0,308.239,286Z" transform="translate(-304 -286)" fill="#fff"/>
    </g>
    <g id="Group_85" data-name="Group 85" transform="translate(42.393 10.598)">
      <path id="Path_2083" data-name="Path 2083" d="M388.239,286a4.239,4.239,0,1,0,4.239,4.239A4.244,4.244,0,0,0,388.239,286Z" transform="translate(-384 -286)" fill="#fff"/>
    </g>
    <g id="Group_86" data-name="Group 86" transform="translate(21.196 21.196)">
      <path id="Path_2084" data-name="Path 2084" d="M228.239,366a4.239,4.239,0,1,0,4.239,4.239A4.244,4.244,0,0,0,228.239,366Z" transform="translate(-224 -366)" fill="#fff"/>
    </g>
    <g id="Group_87" data-name="Group 87" transform="translate(10.598 21.196)">
      <path id="Path_2085" data-name="Path 2085" d="M148.239,366a4.239,4.239,0,1,0,4.239,4.239A4.244,4.244,0,0,0,148.239,366Z" transform="translate(-144 -366)" fill="#fff"/>
    </g>
    <g id="Group_88" data-name="Group 88" transform="translate(0 21.196)">
      <path id="Path_2086" data-name="Path 2086" d="M68.239,366a4.239,4.239,0,1,0,4.239,4.239A4.244,4.244,0,0,0,68.239,366Z" transform="translate(-64 -366)" fill="#fff"/>
    </g>
    <g id="Group_89" data-name="Group 89" transform="translate(31.795 21.196)">
      <path id="Path_2087" data-name="Path 2087" d="M308.239,366a4.239,4.239,0,1,0,4.239,4.239A4.244,4.244,0,0,0,308.239,366Z" transform="translate(-304 -366)" fill="#fff"/>
    </g>
    <g id="Group_90" data-name="Group 90" transform="translate(42.393 21.196)">
      <path id="Path_2088" data-name="Path 2088" d="M388.239,366a4.239,4.239,0,1,0,4.239,4.239A4.244,4.244,0,0,0,388.239,366Z" transform="translate(-384 -366)" fill="#fff"/>
    </g>
  </g>
  <g id="Group_93" data-name="Group 93" transform="translate(6.889)">
    <g id="Group_92" data-name="Group 92">
      <path id="Path_2089" data-name="Path 2089" d="M53.59,20.6A1.59,1.59,0,0,1,52,19.008V11.59a1.59,1.59,0,1,1,3.179,0v7.419A1.59,1.59,0,0,1,53.59,20.6Z" transform="translate(-52 -10)" fill="#5c546a"/>
    </g>
  </g>
  <g id="Group_95" data-name="Group 95" transform="translate(57.76)">
    <g id="Group_94" data-name="Group 94">
      <path id="Path_2090" data-name="Path 2090" d="M437.59,20.6a1.59,1.59,0,0,1-1.59-1.59V11.59a1.59,1.59,0,0,1,3.179,0v7.419A1.59,1.59,0,0,1,437.59,20.6Z" transform="translate(-436 -10)" fill="#5c546a"/>
    </g>
  </g>
  <g id="Group_96" data-name="Group 96" transform="translate(8.829 26)">
    <circle id="Ellipse_107" data-name="Ellipse 107" cx="4" cy="4" r="4" fill="#ffd200"/>
  </g>
  <g id="Group_97" data-name="Group 97" transform="translate(29.829 47)">
    <ellipse id="Ellipse_108" data-name="Ellipse 108" cx="4" cy="4.5" rx="4" ry="4.5" fill="#ff9600"/>
  </g>
  <g id="Group_98" data-name="Group 98" transform="translate(39.829 37)">
    <ellipse id="Ellipse_109" data-name="Ellipse 109" cx="4.5" cy="4" rx="4.5" ry="4" fill="#ff4f19"/>
  </g>
</svg>
