<svg id="chat" xmlns="http://www.w3.org/2000/svg" width="97.324" height="86.618" viewBox="0 0 97.324 86.618">
  <path id="Path_2107" data-name="Path 2107" d="M97.21,46.714l-.926.585-.764.471-6.6,4.159-1.82,1.137L64.883,67l-1.218.764L57.2,71.829l-.341.211-.357.228-.52.325-4.922,3.086-.455.309L50.554,76l-.049.033L48.67,77.19l-.065.033-1.511-.942-.276-.179-.049-.033-2.1-1.316L41.23,72.593l-.39-.244-.828-.52-6.466-4.061L32.328,67,12.671,54.658l-2.323-1.446L8.5,52.043.114,46.779,0,46.714l.114-.065L.2,46.6l8.3-5.214,1.852-1.17,11.826-7.424,1.2-.763,6.466-4.061,1.2-.747,16.391-10.3h2.339l14.864,9.341,11.648,7.31,10.819,6.79,1.235.78.585.374,4.224,2.648,3.98,2.5Z" transform="translate(0 -13.705)" fill="#c4c4c4"/>
  <path id="Path_2108" data-name="Path 2108" d="M125.125,2.938V73.126a.507.507,0,0,1-.016.156,2.73,2.73,0,0,1-.926,1.876,3.616,3.616,0,0,1-2.4.891H48.043a3.616,3.616,0,0,1-2.4-.891,2.723,2.723,0,0,1-.942-2.032V2.938A3.169,3.169,0,0,1,48.043,0h73.736A3.158,3.158,0,0,1,125.125,2.938Z" transform="translate(-36.2)" fill="#5eb2b2"/>
  <g id="Group_103" data-name="Group 103" transform="translate(21.054 12.89)">
    <g id="Group_99" data-name="Group 99">
      <rect id="Rectangle_302" data-name="Rectangle 302" width="36.213" height="4.824" transform="translate(0 0.762)" fill="#86ccca"/>
      <rect id="Rectangle_303" data-name="Rectangle 303" width="36.213" height="4.824" fill="#52a6a3"/>
    </g>
    <g id="Group_100" data-name="Group 100" transform="translate(0 26.533)">
      <rect id="Rectangle_304" data-name="Rectangle 304" width="55.03" height="4.824" transform="translate(0 0.762)" fill="#86ccca"/>
      <rect id="Rectangle_305" data-name="Rectangle 305" width="55.03" height="4.824" fill="#52a6a3"/>
    </g>
    <g id="Group_101" data-name="Group 101" transform="translate(0 39.799)">
      <rect id="Rectangle_306" data-name="Rectangle 306" width="55.03" height="4.824" transform="translate(0 0.762)" fill="#86ccca"/>
      <rect id="Rectangle_307" data-name="Rectangle 307" width="55.03" height="4.824" fill="#52a6a3"/>
    </g>
    <g id="Group_102" data-name="Group 102" transform="translate(0 13.266)">
      <rect id="Rectangle_308" data-name="Rectangle 308" width="55.03" height="4.824" transform="translate(0 0.762)" fill="#86ccca"/>
      <rect id="Rectangle_309" data-name="Rectangle 309" width="55.03" height="4.824" fill="#52a6a3"/>
    </g>
  </g>
  <path id="Path_2109" data-name="Path 2109" d="M49.2,201.183l-.569.325-1.381.812-9.617,5.621-1.348.8L21.1,217.607l-2.4,1.4L2.84,228.264l-1.218.7-1.023.6V172.8l.081.049,8.3,4.841,5.085,2.973,7.473,4.37.958.552,13.126,7.668,1.316.764L43,197.56l.894.52,1.3.764,1.689.975.487.293.26.146,1.527.893Z" transform="translate(-0.484 -142.956)" fill="#fff"/>
  <path id="Path_2110" data-name="Path 2110" d="M304.876,172.795v56.772l-.016-.014-.081-.056-.065-.042H304.7l-47.013-27.443-.828-.489-.585-.349,1.852-1.075.049-.028.049-.028,1.706-.991Z" transform="translate(-207.557 -142.949)" fill="#e3e2e2"/>
  <circle id="Ellipse_110" data-name="Ellipse 110" cx="7.259" cy="7.259" r="7.259" transform="translate(64.425 7.011)" fill="#eef3ca" opacity="0.68"/>
  <path id="Path_2111" data-name="Path 2111" d="M119.446,324.361v8.707h-.1l-1.4.065H27.386l-.065-1.348c1.641-1.121,3.817-2.632,5.231-3.59l.195-.13L37.49,324.8l7.408-5.117,2.144-1.478,22.5-15.514,1.511-1.056a4.78,4.78,0,0,1,1.2-.552,6.971,6.971,0,0,1,1.657-.341,3.325,3.325,0,0,1,.569-.016,3.531,3.531,0,0,1,.585-.033,6.637,6.637,0,0,1,1.511.13,4.854,4.854,0,0,1,1.413.487L95.046,310.8l8.431,4.695,2.193,1.218,7.944,4.419,5.231,2.908c.146.081.309.163.471.26A.946.946,0,0,0,119.446,324.361Z" transform="translate(-22.128 -246.532)" fill="#757575"/>
  <path id="Path_2112" data-name="Path 2112" d="M97.808,318.844v5.7H.6v-5.7c1.706-1.04,3.948-2.453,5.41-3.33l.195-.13,3.72-2.323,1.17-.715,7.651-4.743,2.209-1.381,19.965-12.395.406-.244.829-.52.845-.52,1.17-.731,1.559-.975a5.954,5.954,0,0,1,2.908-.747,3.3,3.3,0,0,1,.569,0,3.492,3.492,0,0,1,.585,0,5.829,5.829,0,0,1,1.316.146,4.822,4.822,0,0,1,1.576.6l2.258,1.4.487.309.845.52.715.439.52.325,11.761,7.31,8.187,5.085,2.128,1.332,7.733,4.792,1.153.715,3.931,2.453c.146.081.292.162.455.26,1.04.666,2.372,1.494,3.623,2.258C96.931,318.324,97.386,318.6,97.808,318.844Z" transform="translate(-0.484 -237.939)" fill="#eaeaea"/>
  <path id="Path_2113" data-name="Path 2113" d="M125.126,3.054v.812A3.206,3.206,0,0,0,121.779.812H48.043A3.216,3.216,0,0,0,44.7,3.866V3.054A3.216,3.216,0,0,1,48.043,0h73.736A3.206,3.206,0,0,1,125.126,3.054Z" transform="translate(-36.201)" fill="#abdbdf" opacity="0.2"/>
</svg>
