<svg xmlns="http://www.w3.org/2000/svg" xmlns:xlink="http://www.w3.org/1999/xlink" width="200.905" height="149.813" viewBox="0 0 200.905 149.813">
  <defs>
    <clipPath id="clip-path">
      <path id="Clip_2" data-name="Clip 2" d="M0,0H200.9V149.813H0Z" transform="translate(0 0.187)" fill="none"/>
    </clipPath>
    <clipPath id="clip-path-2">
      <path id="Clip_5" data-name="Clip 5" d="M0,149.813H200.9V0H0Z" transform="translate(0 0.187)" fill="#229ee1"/>
    </clipPath>
    <clipPath id="clip-path-3">
      <path id="Clip_20" data-name="Clip 20" d="M0,23.4v40.27H46.546V23.4A23.365,23.365,0,0,0,23.273,0h0A23.365,23.365,0,0,0,0,23.4" transform="translate(0.281 0.194)" fill="none"/>
    </clipPath>
    <clipPath id="clip-path-5">
      <path id="Clip_26" data-name="Clip 26" d="M0,23.4v40.27H46.546V23.4A23.365,23.365,0,0,0,23.273,0h0A23.365,23.365,0,0,0,0,23.4Z" transform="translate(0.281 0.194)" fill="none"/>
    </clipPath>
  </defs>
  <g id="check_email" data-name="check email" transform="translate(0 -0.187)">
    <g id="Group_18" data-name="Group 18">
      <g id="Group_3" data-name="Group 3">
        <path id="Clip_2-2" data-name="Clip 2" d="M0,0H200.9V149.813H0Z" transform="translate(0 0.187)" fill="none"/>
        <g id="Group_3-2" data-name="Group 3" clip-path="url(#clip-path)">
          <path id="Fill_1" data-name="Fill 1" d="M192.606,66.583H174.329a4.553,4.553,0,0,1-3.465-1.6,10.017,10.017,0,0,1-2.287-6.488c0-.028,0-.057,0-.085a7.741,7.741,0,0,1,7.749-7.656h8.228a8.586,8.586,0,0,0,8.3-8.847,8.586,8.586,0,0,0-8.3-8.847H168.041a7.353,7.353,0,0,1-5.505-2.592,9.45,9.45,0,0,1-2.286-6.256c0-.031,0-.061,0-.092a7.324,7.324,0,0,1,7.348-7.2h10.128a8.38,8.38,0,0,0,8.3-8.459A8.38,8.38,0,0,0,177.726,0H23.179a8.38,8.38,0,0,0-8.3,8.459,8.38,8.38,0,0,0,8.3,8.459H33.307a7.324,7.324,0,0,1,7.348,7.2c0,.03,0,.061,0,.092a9.45,9.45,0,0,1-2.287,6.256,7.353,7.353,0,0,1-5.505,2.592H16.35a8.586,8.586,0,0,0-8.3,8.847,8.586,8.586,0,0,0,8.3,8.847H32.906a7.741,7.741,0,0,1,7.749,7.656c0,.028,0,.057,0,.085a10.019,10.019,0,0,1-2.287,6.488,4.553,4.553,0,0,1-3.465,1.6H8.3a8.494,8.494,0,0,0,0,16.984H32.864c4.3.007,7.792,3.8,7.792,8.489a8.858,8.858,0,0,1-2.287,6,5.627,5.627,0,0,1-4.136,1.814H23.179a8.678,8.678,0,0,0,0,17.339h9.716c5.507,0,8.629,5.978,7.552,10.91-1.177,5.389-6.5,5.043-11.049,5.043a8.312,8.312,0,0,0-8.3,8.557,8.422,8.422,0,0,0,8.469,8.089H171.335a8.423,8.423,0,0,0,8.469-8.089,8.313,8.313,0,0,0-8.3-8.557c-4.552,0-9.873.347-11.049-5.043-1.077-4.932,2.045-10.91,7.552-10.91h9.716a8.678,8.678,0,0,0,0-17.339H166.672a5.627,5.627,0,0,1-4.136-1.814,8.858,8.858,0,0,1-2.286-6c0-4.685,3.488-8.483,7.791-8.489h24.565a8.494,8.494,0,0,0,0-16.984" transform="translate(0 0.187)" fill="#dde9f2"/>
        </g>
      </g>
      <path id="Clip_5-2" data-name="Clip 5" d="M0,149.813H200.9V0H0Z" transform="translate(0 0.187)" fill="none"/>
      <g id="Mask_Group_1" data-name="Mask Group 1" clip-path="url(#clip-path-2)">
        <path id="Fill_4" data-name="Fill 4" d="M0,54.008H16.571V0H0Z" transform="translate(101.087 91.03)" fill="#229ee1"/>
        <path id="Fill_6" data-name="Fill 6" d="M114.2,27.467V72.633H0V27.467A27.428,27.428,0,0,1,27.389,0H86.805A27.43,27.43,0,0,1,114.2,27.467" transform="translate(48.629 27.958)" fill="#229ee1"/>
        <path id="Fill_7" data-name="Fill 7" d="M90,3.777H0V0H88a26.975,26.975,0,0,1,2,3.777" transform="translate(70.58 40.742)" fill="#229ee1"/>
        <path id="Fill_8" data-name="Fill 8" d="M0,11.912H92.246V0H0Z" transform="translate(70.58 64.275)" fill="#229ee1"/>
        <path id="Fill_9" data-name="Fill 9" d="M89.856,3.777H0V0H85.788a27.4,27.4,0,0,1,4.068,3.777" transform="translate(66.119 33.478)" fill="#229ee1"/>
        <path id="Fill_10" data-name="Fill 10" d="M54.778,27.467V58.4H0V27.467a27.389,27.389,0,1,1,54.778,0" transform="translate(48.629 27.958)" fill="#229ee1"/>
        <path id="Fill_11" data-name="Fill 11" d="M0,63.917V23.494a23.427,23.427,0,1,1,46.854,0V63.917Z" transform="translate(52.59 32.316)" fill="#229ee1"/>
        <path id="Fill_12" data-name="Fill 12" d="M0,3.777H155.889V0H0Z" transform="translate(6.937 98.848)" fill="#229ee1"/>
        <path id="Fill_13" data-name="Fill 13" d="M155.889,0V16.27H0V12.493H41.692v1.743H96.47V0Z" transform="translate(6.937 86.355)" fill="#229ee1"/>
        <path id="Fill_14" data-name="Fill 14" d="M25.975,0H0V49.983H9.7V14.277H25.975Z" transform="translate(116.76 10.375)" fill="#229ee1"/>
        <path id="Fill_15" data-name="Fill 15" d="M24.587,0H0V49.983H8.316V14.277H24.587Z" transform="translate(119.119 10.375)" fill="#229ee1"/>
        <path id="Fill_16" data-name="Fill 16" d="M16.173,9.7c0,5.358-3.62,9.7-8.086,9.7S0,15.06,0,9.7,3.62,0,8.086,0s8.086,4.343,8.086,9.7" transform="translate(114.76 53.363)" fill="#229ee1"/>
        <path id="Fill_17" data-name="Fill 17" d="M9.848,5.907c0,3.263-2.2,5.907-4.924,5.907S0,9.17,0,5.907,2.2,0,4.924,0,9.848,2.645,9.848,5.907" transform="translate(117.923 57.157)" fill="#229ee1"/>
      </g>
    </g>
    <g id="Group_34" data-name="Group 34" transform="translate(53 33)">
      <g id="Group_21" data-name="Group 21">
        <path id="Clip_20-2" data-name="Clip 20" d="M0,23.4v40.27H46.546V23.4A23.365,23.365,0,0,0,23.273,0h0A23.365,23.365,0,0,0,0,23.4" transform="translate(0.281 0.194)" fill="none"/>
        <g id="Group_21-2" data-name="Group 21" clip-path="url(#clip-path-3)">
          <path id="Fill_19" data-name="Fill 19" d="M58.74,1.706V41.412a1.7,1.7,0,0,1-1.7,1.708H1.7a1.683,1.683,0,0,1-.96-.3A1.706,1.706,0,0,1,0,41.412V1.706a1.684,1.684,0,0,1,.323-1v0A1.683,1.683,0,0,1,1.7,0H57.041a1.7,1.7,0,0,1,1.7,1.706" transform="translate(4.117 20.585)" fill="#ffcf3b"/>
        </g>
      </g>
      <g id="Group_24" data-name="Group 24">
        <path id="Clip_23-2" data-name="Clip 23" d="M0,23.4v40.27H46.546V23.4A23.365,23.365,0,0,0,23.273,0h0A23.365,23.365,0,0,0,0,23.4" transform="translate(0.281 0.194)" fill="none"/>
        <g id="Group_24-2" data-name="Group 24" clip-path="url(#clip-path-3)">
          <path id="Fill_22" data-name="Fill 22" d="M58,.6V40.311a1.7,1.7,0,0,1-1.7,1.708H.96a1.683,1.683,0,0,1-.96-.3L57.89,0A1.7,1.7,0,0,1,58,.6" transform="translate(4.856 21.686)" fill="#ffbc2c"/>
        </g>
      </g>
      <g id="Group_27" data-name="Group 27">
        <path id="Clip_26-2" data-name="Clip 26" d="M0,23.4v40.27H46.546V23.4A23.365,23.365,0,0,0,23.273,0h0A23.365,23.365,0,0,0,0,23.4Z" transform="translate(0.281 0.194)" fill="none"/>
        <g id="Group_27-2" data-name="Group 27" clip-path="url(#clip-path-5)">
          <path id="Fill_25" data-name="Fill 25" d="M58.417,2.331,29.89,24.974a2.629,2.629,0,0,1-3.556-.144L0,.97v0A1.608,1.608,0,0,1,1.376,0H56.718a1.814,1.814,0,0,1,1.588,1.5Z" transform="translate(4.44 20.586)" fill="#d57c28"/>
        </g>
      </g>
      <g id="Group_30" data-name="Group 30">
        <path id="Clip_29-2" data-name="Clip 29" d="M0,23.4v40.27H46.546V23.4A23.365,23.365,0,0,0,23.273,0h0A23.365,23.365,0,0,0,0,23.4Z" transform="translate(0.281 0.194)" fill="none"/>
        <g id="Group_30-2" data-name="Group 30" clip-path="url(#clip-path-5)">
          <path id="Fill_28" data-name="Fill 28" d="M58.417,1.706,29.89,18.276a3.369,3.369,0,0,1-3.556-.106L0,.71v0A1.683,1.683,0,0,1,1.376,0H56.718a1.7,1.7,0,0,1,1.588,1.1Z" transform="translate(4.44 20.585)" fill="#fecc37"/>
        </g>
      </g>
      <g id="Group_33" data-name="Group 33">
        <path id="Clip_32-2" data-name="Clip 32" d="M0,23.4v40.27H46.546V23.4A23.365,23.365,0,0,0,23.273,0h0A23.365,23.365,0,0,0,0,23.4" transform="translate(0.281 0.194)" fill="none"/>
        <g id="Group_33-2" data-name="Group 33" clip-path="url(#clip-path-3)">
          <path id="Fill_31" data-name="Fill 31" d="M.329.9.222,1.1A1.777,1.777,0,0,0,.9,3.5L8.242,7.631a1.756,1.756,0,0,0,2.39-.679l.107-.193a1.776,1.776,0,0,0-.675-2.4L2.72.223A1.756,1.756,0,0,0,.329.9" transform="translate(18.388 26.448)" fill="#fff35a"/>
        </g>
      </g>
    </g>
    <path id="Fill_35" data-name="Fill 35" d="M0,3H38V0H0Z" transform="translate(90 144)" fill="#004164"/>
  </g>
</svg>
