<svg id="coolinfo" xmlns="http://www.w3.org/2000/svg" width="105.728" height="85.508" viewBox="0 0 105.728 85.508">
  <path id="Path_1947" data-name="Path 1947" d="M107.478,214.894c-4.067-.013-31.173-.025-34.3-.03-2.615,7.457-5.7,16.676-8.071,24.045,7.837-.01,25.685-.034,35.849-.041s28.011.031,35.85.04c-2.375-7.367-5.456-16.585-8.073-24.042-3.546.009-9.589.028-15.243.044" transform="translate(-47.34 -153.958)" fill="#fff"/>
  <path id="Path_1948" data-name="Path 1948" d="M179.922,238.065c-1.173,0-5.461.032-6.362.033,0,.3-.045,1.021-.045,1.739-.317,0-1.033.012-1.388.012-.049.541-.118,2.015-.157,2.536.933,0,7.026,0,8.217,0C180.135,241.392,179.961,238.877,179.922,238.065Z" transform="translate(-124.428 -170.888)" fill="#f2635f"/>
  <path id="Path_1949" data-name="Path 1949" d="M230.353,269.618c-.237,0-2.156-.015-2.662-.015.031.526.186,2.6.263,3.6.572,0,2.188-.031,2.8-.031C230.661,272.286,230.429,270.268,230.353,269.618Z" transform="translate(-164.723 -193.458)" fill="#bfbcbb"/>
  <path id="Path_1950" data-name="Path 1950" d="M224.5,245.49l-.013-.1c-.448,0-3.946.022-4.631.022.036.505.108,1.722.173,2.363.706,0,4.368-.045,4.752-.045h.047C224.745,247.033,224.585,246.087,224.5,245.49Z" transform="translate(-159.063 -175.988)" fill="#bfbcbb"/>
  <path id="Path_1951" data-name="Path 1951" d="M207.351,269.657c-.347,0-3.533.01-4.274.01,0,.511.028,2.592.035,3.536l4.441,0C207.488,272.267,207.354,269.706,207.351,269.657Z" transform="translate(-146.921 -193.497)" fill="#bfbcbb"/>
  <path id="Path_1952" data-name="Path 1952" d="M255.552,269.479c-.3,0-3.536.06-4.25.06.056.423.418,2.8.534,3.536,1.338,0,3.234,0,4.436,0C256.159,272.493,255.638,269.9,255.552,269.479Z" transform="translate(-181.813 -193.368)" fill="#bfbcbb"/>
  <path id="Path_1953" data-name="Path 1953" d="M149.442,242.412l.008-.1c-.277,0-2.011-.017-2.24-.017h-.043c-.08.612-.239,1.763-.434,3.161l-.009.064h.038c.192,0,2.025.023,2.361.023h.075l0-.036C149.259,244.792,149.394,243.059,149.442,242.412Z" transform="translate(-106.146 -178.075)" fill="#bfbcbb"/>
  <path id="Path_1954" data-name="Path 1954" d="M143.63,269.859l.016-.116c.883,0,6.7-.008,7.929-.011,0,.036,0,.062,0,.062,0,.541-.131,2.873-.171,3.744-.962,0-7.266,0-8.213,0C143.319,272.417,143.459,271.108,143.63,269.859Z" transform="translate(-103.603 -193.551)" fill="#bfbcbb"/>
  <path id="Path_1955" data-name="Path 1955" d="M105.537,237.985c.013-.084.023-.157.031-.216-1.374,0-7.558.013-8.613.014-.246.925-1.038,3.417-1.294,4.492,1.093,0,7.76,0,9.156,0C104.965,241.363,105.395,238.935,105.537,237.985Z" transform="translate(-69.218 -170.674)" fill="#bfbcbb"/>
  <path id="Path_1956" data-name="Path 1956" d="M245.252,236.463h9.784a2.047,2.047,0,0,0,2.183-1.647c.376-2.325-.195-4.382-2.639-6.352-2.394-1.928-7.183-2-10.063-1.485-.725.131-1.615.839-1.526,1.382.392,2.433.825,5.424,1.217,7.671.041.233.448.424.769.427Z" transform="translate(-175.841 -162.502)" fill="#6dbf6b"/>
  <path id="Path_1957" data-name="Path 1957" d="M102.309,272.617l-.192-.218c.292,0,.905.022,1.073.018.167-.725.383-1.637.462-2.021.818,0,2.645-.017,3.551-.017-.1.628-.208,1.317-.293,2.02.5,0,.6-.028,1.1-.028-.828.674-2.341,1.878-3.424,2.695C103.963,274.46,103.037,273.443,102.309,272.617Z" transform="translate(-73.882 -194.019)" fill="#fff"/>
  <path id="Path_1958" data-name="Path 1958" d="M89.323,260.99q1.071,0,2.142,0l4.435,0h50.866a.557.557,0,0,0,0-1.114c-.64,0-1.279,0-1.919,0H97.289l-4.933,0-2.751,0h-.28a.557.557,0,0,0,0,1.114Z" transform="translate(-64.422 -186.439)" fill="#211715"/>
  <path id="Path_1959" data-name="Path 1959" d="M106.035,212.9q-2.337-.008-4.673-.007l-7.808-.007-8.915-.006-7.887-.005-4.742,0h-.274a.573.573,0,0,0-.537.409q-3.307,9.433-6.41,18.937-.838,2.552-1.661,5.108a.562.562,0,0,0,.537.7l12.7-.016,15.54-.018q6.706-.007,13.411,0l15.451.017,13.394.016h1.2a.562.562,0,0,0,.537-.7q-3.053-9.472-6.285-18.888-.885-2.579-1.786-5.153a.575.575,0,0,0-.537-.409q-7.621.018-15.243.044a.557.557,0,0,0,0,1.114l15.243-.044-.537-.409q3.306,9.433,6.41,18.935.838,2.551,1.663,5.107l.537-.7-12.7-.015-15.54-.018q-6.705-.007-13.411,0l-15.451.018-13.393.017-1.2,0,.537.7q3.051-9.475,6.284-18.892.885-2.58,1.786-5.153l-.536.409q2.116,0,4.229,0l7.58.005,8.9.006,8.089.007,5.158.007h.342a.557.557,0,0,0,0-1.114Z" transform="translate(-45.897 -152.516)" fill="#211715"/>
  <path id="Path_1960" data-name="Path 1960" d="M191.343,260.671q.056,3.794-.041,7.589a.557.557,0,0,0,1.114,0q.1-3.794.041-7.589A.557.557,0,0,0,191.343,260.671Z" transform="translate(-138.39 -186.625)" fill="#211715"/>
  <path id="Path_1961" data-name="Path 1961" d="M240.513,227.591c.489,3.06.938,6.127,1.395,9.193a.56.56,0,0,0,.685.39.571.571,0,0,0,.39-.685c-.456-3.065-.906-6.132-1.395-9.193a.561.561,0,0,0-.685-.39.57.57,0,0,0-.39.685Z" transform="translate(-173.983 -162.634)" fill="#211715"/>
  <path id="Path_1962" data-name="Path 1962" d="M272.5,260.664q.759,3.276,1.5,6.555c.1.425.193.85.278,1.277.139.7,1.214.405,1.074-.3-.445-2.227-1-4.435-1.505-6.647l-.273-1.185c-.162-.7-1.236-.4-1.074.3Z" transform="translate(-197.124 -186.506)" fill="#211715"/>
  <path id="Path_1963" data-name="Path 1963" d="M131.227,242.737c.291-2.09.62-4.176.934-6.262q.663-4.4,1.325-8.81c.137-.915.278-1.829.4-2.745a.576.576,0,0,0-.39-.685.561.561,0,0,0-.685.39c-.3,2.126-.629,4.247-.948,6.37q-.66,4.39-1.321,8.779c-.133.889-.27,1.778-.394,2.668a.576.576,0,0,0,.39.685A.561.561,0,0,0,131.227,242.737Z" transform="translate(-94.148 -160.706)" fill="#211715"/>
  <path id="Path_1964" data-name="Path 1964" d="M101.279,270.778l-.192-.218-.394.951c.358,0,.715.023,1.073.018a.566.566,0,0,0,.537-.409c.155-.673.321-1.344.462-2.021l-.537.409c1.183,0,2.366-.016,3.551-.017l-.537-.7c-.111.722-.223,1.443-.313,2.168a.561.561,0,0,0,.557.557c.369,0,.736-.025,1.1-.028l-.394-.95c-1.09.886-2.191,1.761-3.311,2.608l.675.087c-.8-.779-1.545-1.615-2.283-2.451-.475-.538-1.26.251-.788.787.738.835,1.483,1.673,2.283,2.452a.562.562,0,0,0,.675.087c1.2-.9,2.373-1.836,3.536-2.782.387-.315.056-.952-.394-.95-.369,0-.736.025-1.1.028l.557.557c.077-.626.177-1.249.273-1.872a.566.566,0,0,0-.537-.7c-1.183,0-2.366.016-3.551.017a.564.564,0,0,0-.537.409c-.141.676-.306,1.347-.462,2.021l.537-.409c-.358.005-.715-.016-1.073-.018a.563.563,0,0,0-.394.95l.191.218C100.967,272.105,101.751,271.315,101.279,270.778Z" transform="translate(-72.457 -192.574)" fill="#211715"/>
  <path id="Path_1965" data-name="Path 1965" d="M205.908,267.65c-1.425-.011-2.849.01-4.274.01a.565.565,0,0,0-.557.557c0,1.178.025,2.357.035,3.536a.565.565,0,0,0,.557.557l4.441,0a.562.562,0,0,0,.557-.557c-.08-1.182-.136-2.366-.2-3.549a.569.569,0,0,0-.557-.557.562.562,0,0,0-.557.557c.066,1.183.121,2.366.2,3.549l.557-.557-4.441,0,.557.557c-.009-1.178-.034-2.357-.035-3.536l-.557.557c1.425,0,2.849-.021,4.274-.01A.557.557,0,0,0,205.908,267.65Z" transform="translate(-145.478 -192.047)" fill="#211715"/>
  <path id="Path_1966" data-name="Path 1966" d="M228.909,267.618q-1.33-.016-2.662-.015a.562.562,0,0,0-.557.557c.072,1.2.171,2.4.263,3.6a.568.568,0,0,0,.557.557c.933,0,1.865-.03,2.8-.031a.56.56,0,0,0,.557-.557c-.124-1.187-.262-2.372-.4-3.557a.571.571,0,0,0-.557-.557c-.273.012-.593.247-.557.557.139,1.185.276,2.371.4,3.557l.557-.557c-.933,0-1.865.03-2.8.031l.557.557c-.092-1.2-.192-2.4-.263-3.6l-.557.557q1.331,0,2.662.015a.557.557,0,1,0,0-1.114Z" transform="translate(-163.28 -192.015)" fill="#211715"/>
  <path id="Path_1967" data-name="Path 1967" d="M254.109,267.475c-1.416-.013-2.833.059-4.25.06a.559.559,0,0,0-.557.557c.16,1.231.362,2.457.553,3.683a.559.559,0,0,0,.537.409q2.218,0,4.436,0a.565.565,0,0,0,.537-.7c-.234-1.2-.479-2.4-.72-3.6a.557.557,0,0,0-1.074.3c.241,1.2.486,2.4.72,3.6l.537-.7q-2.218.005-4.436,0l.537.409q-.146-.928-.286-1.856-.075-.5-.149-.991-.03-.2-.058-.4l-.022-.151-.008-.056c-.015-.1.019.146.008.062l-.557.557c1.416,0,2.834-.073,4.25-.06A.557.557,0,0,0,254.109,267.475Z" transform="translate(-180.371 -191.922)" fill="#211715"/>
  <path id="Path_1968" data-name="Path 1968" d="M223.6,243.9l.007.051a.572.572,0,0,0-.557-.557c-1.543,0-3.087.021-4.631.022a.561.561,0,0,0-.557.557c.056.788.095,1.577.173,2.363a.57.57,0,0,0,.557.557c1.6,0,3.2-.047,4.8-.045a.559.559,0,0,0,.557-.557c-.1-.8-.237-1.593-.349-2.39a.56.56,0,0,0-.685-.39.572.572,0,0,0-.39.685c.1.7.223,1.394.309,2.094l.557-.557c-1.6,0-3.2.041-4.8.045l.557.557c-.079-.786-.118-1.575-.173-2.363l-.557.557c1.543,0,3.087-.022,4.63-.022l-.557-.557c.011.082.022.163.033.245a.56.56,0,0,0,.685.39.572.572,0,0,0,.39-.685Z" transform="translate(-157.621 -174.545)" fill="#211715"/>
  <path id="Path_1969" data-name="Path 1969" d="M142.72,268.571l.016-.116-.537.409q3.964,0,7.929-.011l-.557-.557c-.066,1.268-.115,2.538-.174,3.805l.557-.557c-2.306.007-4.613,0-6.919,0h-1.293l.557.557c.136-1.177.262-2.355.421-3.529a.576.576,0,0,0-.39-.685.56.56,0,0,0-.685.39c-.173,1.273-.313,2.55-.461,3.825a.562.562,0,0,0,.557.557l6.91,0h1.3a.568.568,0,0,0,.557-.557c.059-1.268.107-2.538.174-3.805a.563.563,0,0,0-.557-.557q-3.964.011-7.929.011a.561.561,0,0,0-.537.409l-.016.116a.576.576,0,0,0,.39.685A.561.561,0,0,0,142.72,268.571Z" transform="translate(-102.157 -192.115)" fill="#211715"/>
  <path id="Path_1970" data-name="Path 1970" d="M104.637,236.69c.011-.072.021-.144.031-.216a.567.567,0,0,0-.537-.7q-3.638.011-7.276.012l-1.336,0a.567.567,0,0,0-.537.409c-.4,1.5-.928,2.977-1.294,4.492a.563.563,0,0,0,.537.7l7.564,0,1.592,0a.562.562,0,0,0,.537-.409c.234-1.431.5-2.856.72-4.29a.575.575,0,0,0-.39-.685.562.562,0,0,0-.685.39c-.216,1.434-.486,2.859-.72,4.29l.537-.409c-2.573.008-5.147,0-7.721,0H94.223l.537.7c.366-1.515.891-2.987,1.294-4.492l-.537.409q3.556,0,7.112-.011.752,0,1.5,0l-.537-.7q-.014.108-.031.216a.575.575,0,0,0,.39.685A.561.561,0,0,0,104.637,236.69Z" transform="translate(-67.779 -169.225)" fill="#211715"/>
  <path id="Path_1971" data-name="Path 1971" d="M278.857,281.288c.961,0,1.921,0,2.882,0a.557.557,0,0,0,0-1.114c-.961,0-1.921,0-2.882,0a.557.557,0,0,0,0,1.114Z" transform="translate(-201.34 -201.086)" fill="#211715"/>
  <path id="Path_1972" data-name="Path 1972" d="M78.173,290.327c.961,0,1.921,0,2.882,0a.557.557,0,0,0,0-1.114c-.961,0-1.921,0-2.882,0a.557.557,0,0,0,0,1.114Z" transform="translate(-56.152 -207.609)" fill="#211715"/>
  <path id="Path_1973" data-name="Path 1973" d="M179.606,290.325c2.3,0,4.608.006,6.912,0a.557.557,0,0,0,0-1.114c-2.3.006-4.608,0-6.912,0A.557.557,0,0,0,179.606,290.325Z" transform="translate(-129.563 -207.607)" fill="#211715"/>
  <path id="Path_1974" data-name="Path 1974" d="M178.479,236.065c-2.121.008-4.241.031-6.362.033a.565.565,0,0,0-.557.557c-.005.58-.043,1.159-.045,1.739l.557-.557c-.463,0-.925.011-1.388.012a.57.57,0,0,0-.557.557c-.074.844-.1,1.692-.157,2.536a.562.562,0,0,0,.557.557l6.8,0q.71,0,1.42,0a.562.562,0,0,0,.557-.557c-.078-1.441-.195-2.879-.266-4.32-.036-.713-1.149-.717-1.114,0,.072,1.441.188,2.879.266,4.32l.557-.557c-2.311.008-4.621,0-6.932,0h-1.286l.557.557c.062-.845.084-1.692.157-2.536l-.557.557c.463,0,.925-.011,1.388-.012a.566.566,0,0,0,.557-.557c0-.58.04-1.159.045-1.739l-.557.557c2.121,0,4.241-.025,6.362-.033A.557.557,0,0,0,178.479,236.065Z" transform="translate(-122.985 -169.44)" fill="#211715"/>
  <path id="Path_1975" data-name="Path 1975" d="M128.128,224.766q3.6,0,7.2-.008l9.947-.016,3.624-.008a.557.557,0,0,0,0-1.114q-3.868.012-7.736.015l-9.8.014-3.237,0a.557.557,0,0,0,0,1.114Z" transform="translate(-92.356 -160.552)" fill="#211715"/>
  <path id="Path_1976" data-name="Path 1976" d="M148.568,240.969l.008-.1a.562.562,0,0,0-.557-.557c-.761,0-1.523-.017-2.283-.017a.573.573,0,0,0-.557.557q-.017.131-.035.263c0,.028-.025.172-.011.086s-.009.07-.013.1q-.052.382-.1.765-.129.933-.259,1.865a.585.585,0,0,0,.1.485.545.545,0,0,0,.437.219c.825,0,1.649.023,2.474.023a.57.57,0,0,0,.557-.557q.13-1.564.245-3.13a.56.56,0,0,0-.557-.557.57.57,0,0,0-.557.557q-.117,1.565-.245,3.13l.557-.557c-.825,0-1.649-.023-2.474-.023l.537.7c.157-1.124.316-2.248.463-3.373l-.557.557c.761,0,1.523.018,2.283.017l-.557-.557-.008.1a.559.559,0,0,0,.557.557.57.57,0,0,0,.557-.557Z" transform="translate(-104.714 -176.514)" fill="#211715"/>
  <path id="Path_1977" data-name="Path 1977" d="M283.928,231.913a5.516,5.516,0,0,1,2.085,4.263.557.557,0,0,0,1.114,0,6.69,6.69,0,0,0-2.636-5.225.56.56,0,0,0-.762.2A.571.571,0,0,0,283.928,231.913Z" transform="translate(-205.213 -165.711)" fill="#211715"/>
  <path id="Path_1978" data-name="Path 1978" d="M105.522,236.231c-.351,1.465-.673,2.938-1.008,4.408a.569.569,0,0,0,.39.685.563.563,0,0,0,.685-.39c.334-1.47.656-2.943,1.008-4.408a.557.557,0,0,0-1.074-.3Z" transform="translate(-75.596 -169.263)" fill="#211715"/>
  <path id="Path_1979" data-name="Path 1979" d="M116.464,236.548c-.256,1.443-.54,2.882-.82,4.32a.571.571,0,0,0,.39.685.562.562,0,0,0,.685-.39c.28-1.438.563-2.877.82-4.32a.572.572,0,0,0-.39-.685.562.562,0,0,0-.685.39Z" transform="translate(-83.648 -169.493)" fill="#211715"/>
  <path id="Path_1980" data-name="Path 1980" d="M209.758,214.264c-.362.174-.707.351-1.1.564a1.086,1.086,0,0,0-.362.39.76.76,0,0,0-.015.564,1.136,1.136,0,0,0,1.129.666c-.643,1.076-1.491,2.577-2.071,3.715a.814.814,0,0,0,.2,1.159c.322.3.884.064,1.1-.167a18.108,18.108,0,0,0,1.689-1.987c.762.515.837.749,1.789.668a6.914,6.914,0,0,0,1.221.226.851.851,0,0,0,.746-.678,15.12,15.12,0,0,0,.761-3.865s.023-.317.051-.694c-.6-.213-1.517-.529-2.414-.83-.435-.146-.865-.289-1.253-.415C210.653,213.846,210.194,214.054,209.758,214.264Z" transform="translate(-149.909 -153.274)" fill="#fff"/>
  <path id="Path_1981" data-name="Path 1981" d="M186.126,107.034c-.755.106-1.038.841-1.37.891a9.548,9.548,0,0,1-3.3.191A6.293,6.293,0,0,0,179,108.6c-.752.3-1.021.412-1.165.484s-1.353.593-1.486.685a.976.976,0,0,0-.777-.259.241.241,0,0,0-.034,0,.92.92,0,0,0-.665.434,1.278,1.278,0,0,0-.136.519,3.8,3.8,0,0,0,.4,2.044,2.476,2.476,0,0,0,.645.83,1.572,1.572,0,0,0,1.054.353l0,.025a6.415,6.415,0,0,0,3.73,5.289,6.022,6.022,0,0,0,1.251.353,12.664,12.664,0,0,0,4.482-.139l.4-.08c.091-.028.185-.06.276-.094,1.652-.623,3.247-2.45,3.636-5.342l0-.019a1.555,1.555,0,0,0,1.12-.348,2.438,2.438,0,0,0,.645-.83,3.793,3.793,0,0,0,.4-2.044,1.23,1.23,0,0,0-.136-.519.92.92,0,0,0-.665-.434.815.815,0,0,0-.139-.01.924.924,0,0,0-.743.35,4.27,4.27,0,0,0-1.271-1.074,2.767,2.767,0,0,1-1.631-1.916c-.559,0-1.454.182-1.982.158C186.175,107.027,186.15,107.03,186.126,107.034Z" transform="translate(-126.453 -76.664)" fill="#fff"/>
  <path id="Path_1982" data-name="Path 1982" d="M179.854,147.126l-8.544-.15a11.515,11.515,0,0,0-4.669,1.952c-1.9,1.643-1.927,6.09-2.148,8.615a3.993,3.993,0,0,0,.576,1.949l.185.309c3.341.006,12.844.009,16.609.011a44.221,44.221,0,0,1-2.1,5.493c.523.164,1.214.392,1.916.628,1.453.487,2.948,1.014,3.1,1.079.036-.1.195-.5.425-1.091a44.5,44.5,0,0,0,2.2-7.059,17.559,17.559,0,0,0,.056-6.132,7.518,7.518,0,0,0-4.122-4.761c-.642-.315-1.3-.565-1.949-.817Z" transform="translate(-119.071 -105.367)" fill="#fff"/>
  <path id="Path_1983" data-name="Path 1983" d="M175.191,185.121a2.608,2.608,0,0,0-.278-.237,3.124,3.124,0,0,0-2.137-.807,13.338,13.338,0,0,0-3.768,1,1.12,1.12,0,0,0-.64,1.25,3.649,3.649,0,0,0,.707,1.649.85.85,0,0,0,.724.283,1.382,1.382,0,0,0,.57-.384l.136-.2c.067.248.151.536.253.839a.828.828,0,0,0,.9.574.68.68,0,0,0,.567-.45l.085.119a.787.787,0,0,0,.863.481.872.872,0,0,0,.8-.784c0-.058,0-.117,0-.176l.081.173a.8.8,0,0,0,.873.362.872.872,0,0,0,.589-.547,5.214,5.214,0,0,0,.1-2.1A1.454,1.454,0,0,0,175.191,185.121Z" transform="translate(-121.801 -132.121)" fill="#fff"/>
  <path id="Path_1984" data-name="Path 1984" d="M177.319,83.057c.944-1.877,3.075-4.11,7.694-4.11,8.25,0,8.924,6.945,8.627,8.964l-.095,1.548a.952.952,0,0,0-.288-.09.815.815,0,0,0-.139-.01.924.924,0,0,0-.743.35,4.269,4.269,0,0,0-1.271-1.074,2.767,2.767,0,0,1-1.631-1.916c-.559,0-1.454.182-1.982.158-.813.065-1.1.847-1.446.9a9.548,9.548,0,0,1-3.3.191,6.293,6.293,0,0,0-2.457.489c-.752.3-1.021.412-1.165.484s-1.353.593-1.486.685a.97.97,0,0,0-.777-.258l-.272-1.455a8.9,8.9,0,0,1,.476-4.278C177.134,83.447,177.22,83.254,177.319,83.057Z" transform="translate(-127.744 -56.644)" fill="#7a7473"/>
  <path id="Path_1985" data-name="Path 1985" d="M180.183,172.537c-.209-1.19-.438-2.376-.632-3.568a.559.559,0,0,0-.685-.39.573.573,0,0,0-.39.685c.195,1.192.423,2.379.632,3.568a.559.559,0,0,0,.685.39.572.572,0,0,0,.39-.685Z" transform="translate(-129.102 -120.993)" fill="#211715"/>
  <path id="Path_1986" data-name="Path 1986" d="M169.743,145.005c-2.186.51-4.819,1.25-5.9,3.419a17.008,17.008,0,0,0-1.232,6.414,9.442,9.442,0,0,0-.085,1.625,4.819,4.819,0,0,0,.643,1.876.557.557,0,0,0,.962-.562,3.594,3.594,0,0,1-.5-1.387,7.9,7.9,0,0,1,.076-1.3c.068-.98.132-1.963.265-2.937a11.618,11.618,0,0,1,.687-2.848,3.774,3.774,0,0,1,1.67-1.912,13.252,13.252,0,0,1,3.709-1.315c.7-.163.4-1.237-.3-1.074Z" transform="translate(-117.59 -104.004)" fill="#211715"/>
  <path id="Path_1987" data-name="Path 1987" d="M173.51,192.852c.074.374.173.744.283,1.109a3.249,3.249,0,0,0,.28.759,1.36,1.36,0,0,0,.581.537,1.333,1.333,0,0,0,1.561-.271,1.291,1.291,0,0,0,.295-.563,2.1,2.1,0,0,0,0-.64c-.041-.445-.075-.9-.144-1.339a.557.557,0,0,0-1.018-.134.642.642,0,0,0-.056.429c0,.023.007.046.01.07-.034-.217-.012-.09-.006-.038.008.067.015.133.022.2.018.172.034.344.05.516.021.223.054.447.062.67v.045c0,.057.039-.18.008-.067-.006.023-.011.046-.019.068-.04.123.056-.1.015-.031-.017.028-.033.056-.049.084-.054.092.095-.1.015-.022-.017.016-.111.1-.025.03s-.036.01-.054.025c.086-.071.107-.037.042-.02l-.057.016c-.125.028.123,0-.015,0-.021,0-.179-.009-.072,0,.091.009.021,0,0,0s-.049-.014-.073-.021c-.1-.028.095.054.037.016-.016-.011-.035-.018-.051-.028s-.032-.022-.049-.031c-.058-.033.09.084.045.034-.025-.026-.056-.056-.081-.08-.049-.044.067.1.034.046-.014-.024-.032-.047-.046-.071s-.074-.145-.028-.047.009.015,0-.007l-.028-.084q-.059-.18-.113-.362c-.107-.359-.2-.722-.277-1.09a.56.56,0,0,0-.685-.39.571.571,0,0,0-.39.685Z" transform="translate(-125.511 -137.853)" fill="#211715"/>
  <path id="Path_1988" data-name="Path 1988" d="M180.686,194.907a1.4,1.4,0,0,0,.771.691,1.554,1.554,0,0,0,1.2-.107,1.479,1.479,0,0,0,.665-.791,2.175,2.175,0,0,0,.051-.9c-.018-.346-.044-.692-.081-1.036a.6.6,0,0,0-.163-.394.557.557,0,0,0-.95.394c.037.338.062.677.08,1.016.01.188.015.375.021.562,0,.1.033-.15.011-.071-.007.023-.011.047-.018.071-.02.067-.066.086.02-.037-.014.02-.023.048-.035.07s-.028.047-.043.07c-.046.076.1-.117.011-.015-.023.026-.049.049-.074.073-.063.063.124-.082,0-.005a.878.878,0,0,0-.1.056l.079-.033-.058.02-.061.016q-.088.017.051,0a.666.666,0,0,0-.149.008c-.024,0-.047,0-.071,0q-.093-.008.05.009a.819.819,0,0,0-.116-.028c-.1-.025.111.062.033.014-.028-.017-.058-.038-.087-.054.139.075.064.051.019.006s-.074-.127.008.018c-.033-.058-.073-.111-.1-.172a.562.562,0,0,0-.762-.2.568.568,0,0,0-.2.762Z" transform="translate(-130.664 -137.975)" fill="#211715"/>
  <path id="Path_1989" data-name="Path 1989" d="M172.111,187.313a1.374,1.374,0,0,0,1.821.491,2.078,2.078,0,0,0,.831-1.852,4.928,4.928,0,0,0-.251-2.085,3.782,3.782,0,0,0-3.339-1.751,13.282,13.282,0,0,0-2.09.413c-1.074.294-2.73.7-2.767,2.086a3.666,3.666,0,0,0,.309,1.327,2.951,2.951,0,0,0,.59,1.013,1.364,1.364,0,0,0,2.083-.1c.45-.55-.334-1.343-.788-.788-.255.312-.418.265-.624-.056a2.546,2.546,0,0,1-.276-.62,2.1,2.1,0,0,1-.18-.775.59.59,0,0,1,.229-.368,1.706,1.706,0,0,1,.383-.209,11.116,11.116,0,0,1,1.192-.394c.481-.136.968-.253,1.46-.341a2.818,2.818,0,0,1,1.364,0,3.431,3.431,0,0,1,1.014.577,1.126,1.126,0,0,1,.526.869,5.894,5.894,0,0,1,.017,1.615c-.028.162-.087.408-.241.483a.273.273,0,0,1-.3-.092.557.557,0,0,0-.962.562Z" transform="translate(-120.338 -130.703)" fill="#211715"/>
  <path id="Path_1990" data-name="Path 1990" d="M211.835,212.342c-.445.2-.893.408-1.333.626a3.9,3.9,0,0,0-1.168.71,1.3,1.3,0,0,0-.133,1.639,1.733,1.733,0,0,0,1.407.749.557.557,0,1,0,0-1.114c-.026,0-.051,0-.077,0-.062-.006-.051,0,.033.006-.008.009-.1-.023-.113-.026a.762.762,0,0,0-.11-.037q.111.048.028.008l-.051-.028a.4.4,0,0,1-.113-.074l.053.039c-.02-.017-.039-.034-.057-.052s-.077-.063-.078-.084c.047.063.053.07.018.021-.014-.021-.028-.043-.04-.065s-.066-.134-.012-.015c-.059-.129.012.1-.011-.04q.006-.1-.008.006a.683.683,0,0,1,.015-.071c.006-.024.012-.047.02-.07q-.053.108-.018.041l.015-.024q.048-.069-.028.034a.692.692,0,0,0,.073-.08c.023-.023.092-.066.1-.1-.013.035-.109.068-.021.022.713-.376,1.434-.728,2.168-1.063a.559.559,0,0,0,.2-.762.573.573,0,0,0-.762-.2Z" transform="translate(-151.183 -152.379)" fill="#211715"/>
  <path id="Path_1991" data-name="Path 1991" d="M207.461,222.49q-.593,1-1.156,2.016-.282.509-.557,1.023a4.756,4.756,0,0,0-.494,1.059,1.384,1.384,0,0,0,1.212,1.668c.834.041,1.369-.676,1.864-1.234a15.832,15.832,0,0,0,1.6-2.136c.38-.61-.583-1.169-.962-.562a14.183,14.183,0,0,1-1.454,1.94c-.145.163-.292.323-.441.482-.079.084-.156.173-.239.254-.045.04-.048.045-.007.015a1.133,1.133,0,0,1-.1.063.4.4,0,0,1-.16.06q-.1.026-.041.006-.107,0-.036,0c.08.075-.066-.069-.074-.077a.291.291,0,0,1-.08-.106c-.019-.036-.019-.032,0,.01-.016-.065-.019-.067-.011-.006a.721.721,0,0,1,0-.11q0,.078.017-.031a3.408,3.408,0,0,1,.224-.463q.292-.559.6-1.111.61-1.108,1.255-2.2a.557.557,0,0,0-.962-.562Z" transform="translate(-148.475 -159.499)" fill="#211715"/>
  <path id="Path_1992" data-name="Path 1992" d="M221.814,218.954c-.111.813-.177,1.632-.341,2.436a8.72,8.72,0,0,1-.3,1.115c-.037.106-.076.21-.116.314-.011.03-.084.187-.016.048-.025.051-.051.1-.079.149.074-.132-.092.074.008,0a.729.729,0,0,1-.092.054q.065-.028-.039.008-.124.024-.022.013a.666.666,0,0,1-.071,0,.768.768,0,0,1-.084-.006c.072.011.075.011.008,0s-.137-.026-.206-.041c-.216-.047-.428-.116-.645-.157a2.3,2.3,0,0,0-.487-.011,2.209,2.209,0,0,1-.239-.009c.118.011-.072-.019-.1-.025l-.085-.028c.065.028.068.03.011,0s-.106-.058-.158-.091c-.121-.078-.237-.166-.353-.251a.561.561,0,0,0-.762.2.57.57,0,0,0,.2.762,2.346,2.346,0,0,0,1.449.552c.07,0,.139,0,.209-.007a.341.341,0,0,0,.117-.008c.03-.025-.1.009-.1-.014a1.434,1.434,0,0,0,.243.059,6.861,6.861,0,0,0,.68.15,1.41,1.41,0,0,0,1.538-.7,7.534,7.534,0,0,0,.58-1.854c.154-.781.22-1.575.327-2.363a.576.576,0,0,0-.39-.685.56.56,0,0,0-.685.39Z" transform="translate(-157.413 -156.862)" fill="#211715"/>
  <path id="Path_1993" data-name="Path 1993" d="M220.25,152.428a29.686,29.686,0,0,1-.762,6.218,46.584,46.584,0,0,1-2.11,5.527.563.563,0,0,0,.39.685c1.032.326,2.058.672,3.081,1.023.645.223,1.305.423,1.936.684a.566.566,0,0,0,.685-.39,52.142,52.142,0,0,0,2.556-7.784,20.546,20.546,0,0,0,.39-4.423,8.333,8.333,0,0,0-1.064-4.3,9.239,9.239,0,0,0-3.579-3.168v.962h0a.56.56,0,0,0,0-.962c-.678-.328-1.381-.6-2.083-.873a.561.561,0,0,0-.685.39.57.57,0,0,0,.39.685c.612.238,1.225.473,1.817.76v-.962h0a.56.56,0,0,0,0,.962,8.379,8.379,0,0,1,2.985,2.471,6.91,6.91,0,0,1,1.1,3.866,19.217,19.217,0,0,1-.318,4.153,30.555,30.555,0,0,1-1.169,4.12c-.439,1.281-.944,2.533-1.415,3.8l.685-.39c-.63-.261-1.291-.462-1.936-.684-1.024-.352-2.049-.7-3.081-1.023l.39.685a45.327,45.327,0,0,0,2.141-5.646,31.524,31.524,0,0,0,.77-6.4c.035-.716-1.078-.714-1.114,0Z" transform="translate(-157.273 -104.379)" fill="#211715"/>
  <path id="Path_1994" data-name="Path 1994" d="M223.045,232.266c-.038.078-.079.154-.12.229a1.888,1.888,0,0,1-.142.237l.087-.113,0,.006a.573.573,0,0,0,0,.788l.113.087a.56.56,0,0,0,.281.076l.148-.02a.557.557,0,0,0,.246-.143,1.711,1.711,0,0,0,.147-.2c.028-.046.056-.094.081-.141.043-.079.087-.159.126-.24a.415.415,0,0,0,.066-.207.573.573,0,0,0-.266-.555l-.133-.056a.563.563,0,0,0-.3,0l-.133.056a.559.559,0,0,0-.2.2Z" transform="translate(-161.111 -166.557)" fill="#211715"/>
  <path id="Path_1995" data-name="Path 1995" d="M175.672,86.318a7.952,7.952,0,0,1,.485-4.006.949.949,0,0,1,.056-.131c.034-.074.068-.148.1-.221q.119-.243.256-.477a6.3,6.3,0,0,1,.636-.9,7.7,7.7,0,0,1,5.47-2.492,9.45,9.45,0,0,1,6.113,1.414,6.856,6.856,0,0,1,2.464,3.46,9.085,9.085,0,0,1,.278,1.07c.032.161.059.323.084.485s-.009-.077,0,.016c.006.046.011.092.016.139.009.084.017.165.024.247.023.278.034.557.029.835,0,.121-.007.242-.016.362,0,.052-.009.1-.013.155,0,.024-.006.048-.008.073-.012.13.018-.127,0-.026a.576.576,0,0,0,.39.685.561.561,0,0,0,.685-.39,8.693,8.693,0,0,0-2.861-7.681,9.84,9.84,0,0,0-6.425-1.988,9.334,9.334,0,0,0-6.7,2.5,8.493,8.493,0,0,0-2.14,7.171.561.561,0,0,0,.685.39.571.571,0,0,0,.39-.685Z" transform="translate(-126.296 -55.209)" fill="#211715"/>
  <path id="Path_1996" data-name="Path 1996" d="M218.717,125.1c-.015,2.589-1.138,5.791-3.992,6.36-.7.139-.405,1.214.3,1.074,3.347-.668,4.792-4.369,4.81-7.433a.557.557,0,0,0-1.114,0Z" transform="translate(-155.062 -89.392)" fill="#211715"/>
  <path id="Path_1997" data-name="Path 1997" d="M180.019,126.68a8.4,8.4,0,0,0,1.364,4.476,6.281,6.281,0,0,0,4.1,2.656.573.573,0,0,0,.685-.39.562.562,0,0,0-.39-.685,5.2,5.2,0,0,1-3.49-2.219,7.332,7.332,0,0,1-1.162-3.839.557.557,0,0,0-1.114,0Z" transform="translate(-130.243 -90.526)" fill="#211715"/>
  <path id="Path_1998" data-name="Path 1998" d="M175.249,114.776a1.564,1.564,0,0,0-2.036-.022,2.25,2.25,0,0,0-.469,2.041c.181,1.347,1.061,2.921,2.607,2.89a.557.557,0,0,0,0-1.114c-.841.017-1.292-.908-1.463-1.666a2.266,2.266,0,0,1,0-1.254c-.016.035.054-.073.028-.033s.074-.066.023-.028a.387.387,0,0,1,.219-.1.527.527,0,0,1,.3.07.573.573,0,0,0,.788,0,.561.561,0,0,0,0-.787Z" transform="translate(-124.937 -82.105)" fill="#211715"/>
  <path id="Path_1999" data-name="Path 1999" d="M231.6,115.561a.445.445,0,0,1,.574.088,2.266,2.266,0,0,1,0,1.254c-.171.756-.622,1.683-1.46,1.666a.557.557,0,0,0,0,1.114c1.544.031,2.423-1.545,2.6-2.89a2.277,2.277,0,0,0-.445-2.021,1.562,1.562,0,0,0-2.06,0,.561.561,0,0,0,0,.787.569.569,0,0,0,.787,0Z" transform="translate(-166.518 -82.102)" fill="#211715"/>
  <path id="Path_2000" data-name="Path 2000" d="M211.006,100.641a2.678,2.678,0,0,1-.092.406,1.081,1.081,0,0,0-.073.2l.031-.072c-.009.02-.018.041-.028.061s-.028.06-.043.09a2.921,2.921,0,0,1-.2.344c-.019.028-.039.054-.058.082-.066.092.073-.087.005-.008-.047.056-.094.111-.143.163s-.093.1-.143.141a1.029,1.029,0,0,0-.165.141l.06-.046-.054.04c-.028.019-.054.039-.084.057-.056.037-.111.072-.17.106s-.117.064-.177.093a.559.559,0,0,0-.091.042q.123-.051.041-.018l-.031.012a2.7,2.7,0,0,1-.418.12.561.561,0,0,0-.39.685.571.571,0,0,0,.685.39,3.413,3.413,0,0,0,2.61-2.736.609.609,0,0,0-.056-.429.557.557,0,0,0-1.018.133Z" transform="translate(-151.029 -71.953)" fill="#211715"/>
  <path id="Path_2001" data-name="Path 2001" d="M199.158,99.831c0,.04,0,.08-.009.12,0,.02,0,.04-.006.06q-.008.064.007-.049a.675.675,0,0,1-.041.215,3.276,3.276,0,0,1-.136.437c-.038.1.032-.067,0,0-.018.036-.033.072-.051.108-.033.065-.067.13-.1.193s-.084.136-.128.2c-.019.028-.039.054-.058.081s-.016.022.028-.033l-.038.047a3.231,3.231,0,0,1-.3.321c-.053.05-.109.1-.165.144-.093.081.079-.056-.013.011-.032.023-.065.047-.1.069a3,3,0,0,1-.379.219.685.685,0,0,0-.109.05c.088-.066.038-.016-.015,0-.075.028-.151.051-.228.073a.557.557,0,0,0,.3,1.074,3.725,3.725,0,0,0,2.658-3.341.56.56,0,0,0-.557-.557.57.57,0,0,0-.557.557Z" transform="translate(-142.455 -71.263)" fill="#211715"/>
  <path id="Path_2002" data-name="Path 2002" d="M187.024,100.972a4.527,4.527,0,0,1-.259.924c.051-.131,0-.01-.01.02s-.035.076-.054.114q-.056.115-.12.226t-.136.223q-.036.056-.074.109c-.009.013-.105.146-.062.088s-.045.056-.056.068c-.028.035-.059.07-.089.1q-.092.105-.192.2t-.209.2l-.111.1c-.013.011-.126.1-.08.065s-.072.052-.086.062l-.127.087q-.133.088-.27.167a5.882,5.882,0,0,1-.626.312.558.558,0,0,0-.2.762.574.574,0,0,0,.762.2,5.057,5.057,0,0,0,3.073-3.73.57.57,0,0,0-.39-.685.563.563,0,0,0-.685.39Z" transform="translate(-133.253 -72.187)" fill="#211715"/>
  <path id="Path_2003" data-name="Path 2003" d="M221.056,105.347a3.325,3.325,0,0,0,2.035,2.369.557.557,0,0,0,.629-.817.654.654,0,0,0-.333-.256c.177.073,0,0-.04-.021s-.095-.048-.141-.075a2.959,2.959,0,0,1-.268-.175c-.089-.064.1.087.021.016l-.056-.047c-.041-.035-.08-.07-.119-.107a2.855,2.855,0,0,1-.219-.234c-.014-.017-.07-.089-.011-.012s0,0-.009-.013c-.035-.047-.067-.095-.1-.144a2.769,2.769,0,0,1-.157-.278l-.031-.066c-.046-.1.008.038.016.04-.015,0-.051-.133-.056-.15a2.681,2.681,0,0,1-.088-.323.561.561,0,0,0-.685-.39.57.57,0,0,0-.39.685Z" transform="translate(-159.909 -75.121)" fill="#211715"/>
  <path id="Path_2004" data-name="Path 2004" d="M204.834,129.41a6.7,6.7,0,0,1,.158.724l-.02-.148a.429.429,0,0,1,0,.1l.02-.148a.253.253,0,0,1-.011.045l.056-.133a.194.194,0,0,1-.016.028l.087-.113a.171.171,0,0,1-.024.023l.113-.087a.49.49,0,0,1-.057.03l.133-.056a.421.421,0,0,1-.1.028l.148-.02a.38.38,0,0,1-.091,0l.148.02c-.034,0-.068-.013-.1-.018a.425.425,0,0,0-.223-.01.418.418,0,0,0-.207.066.557.557,0,0,0-.2.762l.087.113a.557.557,0,0,0,.246.143c.094.013.186.036.282.04a.93.93,0,0,0,.436-.107.671.671,0,0,0,.359-.437,1.018,1.018,0,0,0,0-.45c-.04-.233-.093-.464-.153-.692a.557.557,0,0,0-1.018-.134.585.585,0,0,0-.056.429Z" transform="translate(-147.995 -92.4)" fill="#211715"/>
  <path id="Path_2005" data-name="Path 2005" d="M217.045,122.523c.119.386.041,1.276-.691,1.351-.968-.006-1.019-1.081-.693-1.587A.767.767,0,0,1,217.045,122.523Z" transform="translate(-155.883 -87.546)" fill="#211715"/>
  <path id="Path_2006" data-name="Path 2006" d="M193.893,122.523c-.119.386-.041,1.276.691,1.351.968-.006,1.019-1.081.693-1.587A.767.767,0,0,0,193.893,122.523Z" transform="translate(-140.234 -87.546)" fill="#211715"/>
  <path id="Path_2007" data-name="Path 2007" d="M203.676,139.74c-.021.021-.1.085-.01.014s-.009,0-.036.02-.065.038-.1.056-.047.02-.068.032c.026-.015.131-.05.043-.02a2.314,2.314,0,0,1-.329.09l-.056.009q-.063.01.053-.006a.371.371,0,0,1-.1.01q-.121.01-.242.01c-.074,0-.148,0-.221-.008a.956.956,0,0,0-.122-.012c.054,0,.1.015.016,0a2.03,2.03,0,0,1-.334-.088c-.045-.016-.118-.063.03.015-.019-.01-.039-.018-.058-.028q-.056-.028-.11-.06c-.028-.017-.052-.037-.079-.053.161.1.079.063.033.019a.557.557,0,0,0-.788.788,2.728,2.728,0,0,0,3.262,0,.557.557,0,0,0-.787-.788Z" transform="translate(-145.441 -100.209)" fill="#211715"/>
  <path id="Path_2008" data-name="Path 2008" d="M200.578,155.715a4.735,4.735,0,0,0,3.659-.187.559.559,0,0,0,.2-.762.572.572,0,0,0-.762-.2l-.1.047-.02.008c-.052.02-.1.04-.156.058-.122.043-.246.079-.371.11s-.253.056-.38.074c.106-.015-.107.01-.127.011-.064.005-.129.009-.195.011q-.195.007-.387,0c-.065,0-.129-.011-.193-.016s-.073-.008-.017,0l-.082-.013a4.129,4.129,0,0,1-.773-.209.559.559,0,0,0-.685.39.572.572,0,0,0,.39.685Z" transform="translate(-144.818 -110.92)" fill="#211715"/>
  <path id="Path_2009" data-name="Path 2009" d="M77.427,85.719a2.213,2.213,0,0,0,.758-.866c.232.238.47.466.713.675a10.1,10.1,0,0,0,4.311,2.065,7.735,7.735,0,0,0,5.017-.5l-.117.182c-.828,1.283-2.42,3.1-3.906,3.447a5.26,5.26,0,0,1-3-.247A10.8,10.8,0,0,1,76.367,86.1a4.454,4.454,0,0,0,1.06-.384Z" transform="translate(-55.261 -60.902)" fill="#fff"/>
  <path id="Path_2010" data-name="Path 2010" d="M85.07,38.913q.032.489.031.971a11.661,11.661,0,0,1-2.5,7.423,8.154,8.154,0,0,1-8.167,2.929,10.1,10.1,0,0,1-4.311-2.065,12.736,12.736,0,0,1-2.9-3.705,7.813,7.813,0,0,1-1.052-.533,5.482,5.482,0,0,1-1.3-1.336,3.734,3.734,0,0,1-.725-2.314,2.99,2.99,0,0,1,.178-.954,1.287,1.287,0,0,1,.842-.724,1.364,1.364,0,0,1,1.121.182l1.9-.2a7.572,7.572,0,0,0,1.1-2.306,12.839,12.839,0,0,1,2.516-.531,18.2,18.2,0,0,0,2.832-.649c.364-.111,1.079-.364,1.492-.536-.3.27-.891.829-.786,1.051.08.17.365.186.6.206a9.459,9.459,0,0,0,2.609-.184,19.555,19.555,0,0,0,4.9-1.583,13.009,13.009,0,0,0,1.636-.941l.023-.015a15.968,15.968,0,0,1,.139,4.081Z" transform="translate(-46.431 -23.884)" fill="#fff"/>
  <path id="Path_2011" data-name="Path 2011" d="M21.862,98.148l.127-.358a14.473,14.473,0,0,1,2.078-3.667,12.489,12.489,0,0,1,3.217-2.6c2.492-1.3,6.456-2.648,7.039-2.315a10.8,10.8,0,0,0,4.837,4.374,5.26,5.26,0,0,0,3,.247c1.486-.35,3.078-2.164,3.906-3.447l.457-.782a18.484,18.484,0,0,1,2.97.561c2.6.495,4.513,2.964,5.2,5.608,1.237,4.785.742,16.787.742,21.612v.445c-7.2-.019-16.1-.1-21.074-.116a23.248,23.248,0,0,0-.66,3.959,95.68,95.68,0,0,1-11.363-2.433c-.936-.277-2.881-1.032-3.65-2.186-.866-1.3-.56-3.08-.371-4.619A59.58,59.58,0,0,1,21.862,98.148Z" transform="translate(-13.065 -63.816)" fill="#79c6e0"/>
  <path id="Path_2012" data-name="Path 2012" d="M61.856,11.042a10.748,10.748,0,0,1,.677-2.682,7.148,7.148,0,0,1,3-3.212l1.545-1.392c1.012-1.414,4.353-1.949,7.3-1.682a10.108,10.108,0,0,1,5.341,2.34,10.14,10.14,0,0,1,2.8,3.687,8.678,8.678,0,0,1,.849,2.569l-.023.015a12.96,12.96,0,0,1-1.636.941,19.55,19.55,0,0,1-4.9,1.583,9.461,9.461,0,0,1-2.609.184c-.231-.02-.516-.036-.6-.206-.1-.223.484-.779.786-1.051-.413.171-1.128.424-1.492.536a18.2,18.2,0,0,1-2.832.649,12.825,12.825,0,0,0-2.516.531,7.572,7.572,0,0,1-1.1,2.306l-1.9.2a1.364,1.364,0,0,0-1.121-.182,1.329,1.329,0,0,0-.7.476l-.327-.7a11.312,11.312,0,0,1-.538-4.911Z" transform="translate(-44.724 -1.449)" fill="#7a7473"/>
  <path id="Path_2013" data-name="Path 2013" d="M121.918,90.292a12.227,12.227,0,0,1,3.575,1.041A6.459,6.459,0,0,1,128.016,94a13.48,13.48,0,0,1,1.278,5.248,118.719,118.719,0,0,1,.278,12.484c-.024,1.9-.07,3.79-.071,5.685a.557.557,0,0,0,1.114,0c0-3.881.133-7.76.085-11.642-.026-2.109-.086-4.222-.273-6.324a16.28,16.28,0,0,0-1.214-5.549,7.863,7.863,0,0,0-2.833-3.343,11.853,11.853,0,0,0-4.165-1.342c-.7-.133-1,.94-.3,1.074Z" transform="translate(-87.926 -63.887)" fill="#211715"/>
  <path id="Path_2014" data-name="Path 2014" d="M125.62,129.278a126.6,126.6,0,0,0-3.349,16.947.56.56,0,0,0,.557.557.571.571,0,0,0,.557-.557,124.485,124.485,0,0,1,3.309-16.651A.557.557,0,0,0,125.62,129.278Z" transform="translate(-88.46 -92.416)" fill="#211715"/>
  <path id="Path_2015" data-name="Path 2015" d="M43.463,170.853c2.659.691,5.356,1.236,8.039,1.827.7.154,1-.919.3-1.074-2.683-.591-5.379-1.136-8.039-1.827A.557.557,0,0,0,43.463,170.853Z" transform="translate(-31.078 -121.867)" fill="#211715"/>
  <path id="Path_2016" data-name="Path 2016" d="M49.535,131.676c-1.092,3.473-2.016,6.994-3.041,10.486a.557.557,0,0,0,1.074.3c1.025-3.492,1.949-7.014,3.041-10.486C50.824,131.287,49.749,130.994,49.535,131.676Z" transform="translate(-33.532 -94.192)" fill="#211715"/>
  <path id="Path_2017" data-name="Path 2017" d="M86.143,88.847a11.13,11.13,0,0,1-1.581,1.923,4.568,4.568,0,0,1-1.993,1.268c-1.918.463-3.835-.6-5.178-1.886a14.112,14.112,0,0,1-2.028-2.479c-.392-.6-1.357-.039-.962.562a11.71,11.71,0,0,0,4.586,4.386,6.153,6.153,0,0,0,3.313.588,4.99,4.99,0,0,0,2.656-1.29,11.763,11.763,0,0,0,2.15-2.509c.393-.6-.571-1.161-.962-.562Z" transform="translate(-53.773 -62.743)" fill="#211715"/>
  <path id="Path_2018" data-name="Path 2018" d="M75.067,85.455a4.829,4.829,0,0,0,1.2-.443,2.767,2.767,0,0,0,.894-.963.557.557,0,1,0-.961-.563,3.951,3.951,0,0,1-.223.327l.087-.113a1.916,1.916,0,0,1-.324.334l.111-.087a1.81,1.81,0,0,1-.393.226l.133-.056a7.09,7.09,0,0,1-.82.263.558.558,0,1,0,.3,1.074Z" transform="translate(-53.796 -59.738)" fill="#211715"/>
  <path id="Path_2019" data-name="Path 2019" d="M106.415,78.862a2.621,2.621,0,0,0,1.375.7,3.452,3.452,0,0,0,1.27.054,2.5,2.5,0,0,0,.752-.286.562.562,0,0,0,.2-.762.569.569,0,0,0-.764-.2l-.121.063c-.049.025-.2.072-.023.016-.05.016-.1.037-.15.052s-.148.015-.173.039c.023-.022.132-.014.022,0l-.1.007c-.082,0-.163,0-.245,0l-.126-.01c-.017,0-.179-.028-.047,0-.081-.014-.162-.028-.243-.045a2.985,2.985,0,0,1-.388-.111.916.916,0,0,0-.094-.036c.037.009.113.051.033.012-.047-.023-.094-.046-.139-.072s-.073-.043-.108-.066c-.019-.013-.037-.028-.056-.039-.077-.048.111.094.046.036-.046-.041-.092-.08-.135-.125a.562.562,0,0,0-.787,0,.568.568,0,0,0,0,.787Z" transform="translate(-76.872 -55.937)" fill="#211715"/>
  <path id="Path_2020" data-name="Path 2020" d="M113.346,65.409c.013.08.024.159.035.239l-.02-.148c.016.123.032.246.044.37a1.608,1.608,0,0,1,.016.325l.02-.148a.314.314,0,0,1-.02.076l.056-.133a.258.258,0,0,1-.019.032l.087-.113a.187.187,0,0,1-.026.025l.111-.087a.26.26,0,0,1-.041.021l.133-.056a.55.55,0,0,1-.119.032l.148-.02a.427.427,0,0,1-.1,0l.148.02c-.056-.008-.1-.028-.158-.04a.585.585,0,0,0-.429.056.557.557,0,0,0,.133,1.018c.053.013.1.031.158.04a.98.98,0,0,0,.492-.025.81.81,0,0,0,.324-.187.721.721,0,0,0,.175-.3.894.894,0,0,0,.034-.345c-.022-.318-.065-.635-.114-.95a.557.557,0,0,0-.256-.334.569.569,0,0,0-.429-.056.562.562,0,0,0-.334.256l-.056.133a.562.562,0,0,0,0,.3Z" transform="translate(-81.703 -46.452)" fill="#211715"/>
  <path id="Path_2021" data-name="Path 2021" d="M97.347,55.052c-.2.477-.218,1.621.706,1.812,1.235.118,1.44-1.246,1.09-1.933A.982.982,0,0,0,97.347,55.052Z" transform="translate(-70.342 -39.055)" fill="#211715"/>
  <path id="Path_2022" data-name="Path 2022" d="M125.117,56.895c-.207.457-.283,1.568.541,1.782,1.108.153,1.364-1.166,1.086-1.843C126.514,56.279,125.649,55.937,125.117,56.895Z" transform="translate(-90.414 -40.413)" fill="#211715"/>
  <path id="Path_2023" data-name="Path 2023" d="M91.268,52.634c.208,3.4-.832,7.048-3.561,9.263a7.691,7.691,0,0,1-4.252,1.7,9.124,9.124,0,0,1-4.883-1.2A10.52,10.52,0,0,1,74.6,58.183c-.341-.631-1.3-.069-.962.562a11.96,11.96,0,0,0,3.837,4.287,10.549,10.549,0,0,0,5.311,1.693A8.7,8.7,0,0,0,87.8,63.208a10.237,10.237,0,0,0,3.472-4.223,13.236,13.236,0,0,0,1.114-6.35c-.043-.712-1.157-.717-1.114,0Z" transform="translate(-53.244 -37.375)" fill="#211715"/>
  <path id="Path_2024" data-name="Path 2024" d="M64.955,51.062a1.916,1.916,0,0,0-2.649.591,3.623,3.623,0,0,0-.163,2.677,5.361,5.361,0,0,0,3.53,3.5.557.557,0,0,0,.3-1.074,4.327,4.327,0,0,1-2.639-2.394,3.034,3.034,0,0,1-.195-1.746.84.84,0,0,1,.445-.676.826.826,0,0,1,.812.082c.6.39,1.163-.574.562-.962Z" transform="translate(-44.832 -36.431)" fill="#211715"/>
  <path id="Path_2025" data-name="Path 2025" d="M79.817,2.589a3.011,3.011,0,0,1,1.326-.857,9.434,9.434,0,0,1,2.224-.515,11.714,11.714,0,0,1,5.053.357A10.478,10.478,0,0,1,92.41,4.121a7.835,7.835,0,0,1,1.108,1.426A12.539,12.539,0,0,1,94.65,7.71a10.323,10.323,0,0,1,.58,2.765c.04.5.053,1,.046,1.5q0,.338-.022.675a2.03,2.03,0,0,1-.058.629l.143-.246-.046.037.542-.143-.056-.014.334.256-.028-.05v.562l.028-.035a.56.56,0,0,0-.2-.762.571.571,0,0,0-.762.2l-.028.035a.548.548,0,0,0,0,.562.635.635,0,0,0,1.169-.163,6.076,6.076,0,0,0,.095-1.429,15.331,15.331,0,0,0-.224-3.024,11.613,11.613,0,0,0-2.245-4.9A11.179,11.179,0,0,0,89.79.934,11.626,11.626,0,0,0,83.919.05c-1.736.134-3.948.476-5.063,1.978a.561.561,0,0,0,.2.762.57.57,0,0,0,.761-.2Z" transform="translate(-57.018 0)" fill="#211715"/>
  <path id="Path_2026" data-name="Path 2026" d="M110.629,34.574a17.518,17.518,0,0,1-4.587,1.511,10.7,10.7,0,0,1-2.116.233c-.219,0-.445-.044-.663-.035l-.032,0q-.306-.1.061.377c-.043.018.024-.039.049-.067.2-.217.4-.43.617-.628.534-.481-.256-1.266-.788-.787-.509.458-1.547,1.456-.6,2.047a3.057,3.057,0,0,0,1.537.208,10.214,10.214,0,0,0,1.45-.139,19.125,19.125,0,0,0,5.635-1.758c.64-.323.077-1.284-.562-.962Z" transform="translate(-73.938 -24.901)" fill="#211715"/>
  <path id="Path_2027" data-name="Path 2027" d="M89.285,33.032a10.922,10.922,0,0,1-2.068,1.086,19.282,19.282,0,0,1-2.294.7c-.82.192-1.653.3-2.483.445-.358.061-.717.124-1.071.207a1.587,1.587,0,0,0-.745.315c-.525.49.263,1.276.788.788a.329.329,0,0,1-.091.065.974.974,0,0,0,.182-.054c.139-.038.281-.068.422-.1.368-.077.739-.139,1.11-.2.827-.136,1.654-.259,2.468-.465a14.574,14.574,0,0,0,4.343-1.828c.6-.385.044-1.349-.562-.962Z" transform="translate(-58.213 -23.771)" fill="#211715"/>
  <path id="Path_2028" data-name="Path 2028" d="M77.652,42.976q-.084.293-.189.58c-.019.051-.039.1-.059.153l-.031.076c.03-.07.032-.076.008-.019-.042.094-.084.188-.129.281a8.025,8.025,0,0,1-.647,1.1.559.559,0,0,0,.2.762.571.571,0,0,0,.762-.2,8.147,8.147,0,0,0,1.159-2.439.557.557,0,1,0-1.074-.3Z" transform="translate(-55.364 -30.717)" fill="#211715"/>
  <path id="Path_2029" data-name="Path 2029" d="M132.18,33.17a11.47,11.47,0,0,0,1.637-.941.6.6,0,0,0,.256-.333.571.571,0,0,0-.056-.429.564.564,0,0,0-.762-.2,11.519,11.519,0,0,1-1.637.941.557.557,0,0,0-.256.334.568.568,0,0,0,.056.429.563.563,0,0,0,.334.256.633.633,0,0,0,.429-.056Z" transform="translate(-95.02 -22.51)" fill="#211715"/>
  <path id="Path_2030" data-name="Path 2030" d="M63.959,11.279a5.181,5.181,0,0,0-2.071,1.6,7.26,7.26,0,0,0-1.52,2.574,11.705,11.705,0,0,0,.068,7.316c.223.678,1.3.388,1.074-.3A10.673,10.673,0,0,1,61.361,16a6.006,6.006,0,0,1,1.251-2.263,8.47,8.47,0,0,1,.93-.93,3.545,3.545,0,0,1,.4-.3c.058-.037.117-.071.178-.1a.445.445,0,0,1,.137-.059c.678-.223.387-1.3-.3-1.074Z" transform="translate(-43.275 -8.117)" fill="#211715"/>
  <path id="Path_2031" data-name="Path 2031" d="M85.787,182.193a5.843,5.843,0,0,0-2.461-1.666c-2.082-.195-4.513.457-6.96.457a18.773,18.773,0,0,0-1.475,5.217l.617.349a6.307,6.307,0,0,0,1.554.314c.557-.072.921-.425,1.482-.439.3-.007.383.086.557.33a3.344,3.344,0,0,1,.35.557,1.322,1.322,0,0,0,.6.645.954.954,0,0,0,.88-.095.735.735,0,0,0,.348-.489l.023-.161a1.675,1.675,0,0,0,.313.553,1.378,1.378,0,0,0,.649.294,1.03,1.03,0,0,0,.747-.223,1.253,1.253,0,0,0,.371-.6s.019-.1.048-.263a1.19,1.19,0,0,0,.1.119,1.055,1.055,0,0,0,1.072.283.884.884,0,0,0,.546-.861,6.33,6.33,0,0,0-.178-1.769,13.231,13.231,0,0,1,1.745,1.737c.481.546,1.183,1.223,1.784.815a.8.8,0,0,0,.4-.919,2.956,2.956,0,0,0-.392-.928,18.426,18.426,0,0,0-2.715-3.262" transform="translate(-54.196 -129.531)" fill="#fff"/>
  <path id="Path_2032" data-name="Path 2032" d="M109.075,185.538a14.166,14.166,0,0,1,2.824,3.508,2.776,2.776,0,0,1,.108.316,1.2,1.2,0,0,1,.045.189.125.125,0,0,1-.025.1c.026-.046-.046.043-.051.048a.48.48,0,0,1-.114.092.164.164,0,0,1-.185.01c-.547-.195-.963-.844-1.345-1.262a13.074,13.074,0,0,0-1.79-1.618.56.56,0,0,0-.762.2.57.57,0,0,0,.2.762,12.112,12.112,0,0,1,1.694,1.587c.537.6,1.124,1.371,1.986,1.457a1.416,1.416,0,0,0,1.469-1.665,5.436,5.436,0,0,0-1.158-2.154,29.587,29.587,0,0,0-2.108-2.355C109.367,184.231,108.58,185.019,109.075,185.538Z" transform="translate(-77.926 -132.478)" fill="#211715"/>
  <path id="Path_2033" data-name="Path 2033" d="M80.095,180.064c1.737-.051,3.447-.394,5.181-.476a9.287,9.287,0,0,1,1.188,0,1.93,1.93,0,0,1,.767.289,5.611,5.611,0,0,1,1.529,1.232c.466.545,1.251-.245.787-.788a6.54,6.54,0,0,0-1.665-1.355,4.03,4.03,0,0,0-.96-.432,4.764,4.764,0,0,0-1.284-.077c-1.857.035-3.687.433-5.544.488-.715.021-.718,1.135,0,1.114Z" transform="translate(-57.566 -128.106)" fill="#211715"/>
  <path id="Path_2034" data-name="Path 2034" d="M102.045,192.345c.039.207.082.414.116.622.007.044.014.088.02.132-.016-.117,0,.008,0,.054q.015.159.02.319c0,.126,0,.253,0,.379q0,.076-.007.152c-.007.127.022-.071,0,.022-.011.038-.021.078-.031.117-.024.092,0,0,.011-.018-.009.018-.018.038-.028.056s-.084.107-.039.065-.006,0-.013.008c-.05.04-.026.012.009,0a.53.53,0,0,0-.06.035c-.059.04.072-.009,0,0a.4.4,0,0,0-.073.019c.009,0,.089,0,.023,0h-.152c-.064,0,.011,0,.022,0l-.1-.024c-.018,0-.1-.036-.01,0-.023-.01-.046-.022-.068-.035l-.066-.038c-.005,0-.07-.053-.026-.016s-.056-.06-.073-.077c-.042-.045,0,0,.007.012a1.075,1.075,0,0,1-.059-.09c-.034-.056-.063-.113-.092-.171s0-.007,0,.005c-.011-.025-.02-.051-.03-.077a3.694,3.694,0,0,1-.1-.374c-.06-.245-.119-.49-.188-.733a5.9,5.9,0,0,0-.709-1.621.557.557,0,1,0-.962.562c.082.126.159.254.229.386.031.06.061.119.09.18.016.034.032.068.047.1-.024-.054,0,0,.009.023a7.351,7.351,0,0,1,.267.827,4.087,4.087,0,0,0,.691,1.737,1.6,1.6,0,0,0,1.828.39,1.513,1.513,0,0,0,.779-1.423,8.37,8.37,0,0,0-.2-1.8.56.56,0,0,0-.685-.39.571.571,0,0,0-.39.685Z" transform="translate(-71.842 -136.95)" fill="#211715"/>
  <path id="Path_2035" data-name="Path 2035" d="M95.384,196.234c0,.021-.052.15-.014.069a1.077,1.077,0,0,1-.087.144c.049-.071-.041.048-.053.062s-.142.12-.08.084c.1-.056-.124.056-.031.014.063-.028-.073.022-.091.026s-.165.024-.089.021-.066-.007-.079,0q-.065,0,.048.007l-.067-.016c-.056-.016-.111-.032-.166-.053.089.033-.03-.016-.054-.028s-.137-.1-.045-.018c-.016-.014-.075-.056-.075-.076l.044.056c-.014-.021-.028-.043-.042-.065a2.632,2.632,0,0,1-.122-.236c.052.106-.018-.046-.022-.056-.02-.051-.039-.1-.058-.156-.04-.113-.077-.227-.113-.341-.079-.248-.148-.5-.223-.748a6.688,6.688,0,0,0-.656-1.485.557.557,0,1,0-.962.562c.085.141.165.285.237.433q.041.084.079.167c.017.038.034.075.05.113q-.025-.056.014.038c.1.278.189.561.274.845a5.011,5.011,0,0,0,.6,1.518,1.657,1.657,0,0,0,1.6.618,1.624,1.624,0,0,0,1.25-1.2.557.557,0,0,0-1.074-.3Z" transform="translate(-66.756 -138.652)" fill="#211715"/>
  <path id="Path_2036" data-name="Path 2036" d="M80.893,201.156a.357.357,0,0,1-.506.2c-.234-.127-.328-.473-.464-.685a2.283,2.283,0,0,0-.6-.714,1.317,1.317,0,0,0-.957-.126,4.956,4.956,0,0,0-.874.311c-.084.031-.165.056-.249.078l-.088.019c.032,0,.035,0,.009,0s-.247-.021-.158-.008c-.23-.033-.458-.085-.683-.139-.107-.026-.214-.053-.319-.084-.068-.019-.274-.111-.064-.009a.572.572,0,0,0-.762.2.562.562,0,0,0,.2.762,4.874,4.874,0,0,0,1.388.353,1.937,1.937,0,0,0,.942-.066,7.029,7.029,0,0,1,.987-.336c.074-.013.1.01.022-.019s.013.019.008.01c.069.144.2.273.282.412a2.678,2.678,0,0,0,.756.966,1.476,1.476,0,0,0,2.2-.83c.157-.7-.916-1-1.074-.3Z" transform="translate(-54.34 -143.433)" fill="#211715"/>
  <path id="Path_2037" data-name="Path 2037" d="M33.192,87.283a2.151,2.151,0,0,0-1.376-.028,15.418,15.418,0,0,0-1.993.561,23.25,23.25,0,0,0-4.656,2.023,11.468,11.468,0,0,0-3.686,3.516,21.826,21.826,0,0,0-2.139,4.83A60.755,60.755,0,0,0,16.7,108.449c-.157.989-.284,1.983-.409,2.976a10.587,10.587,0,0,0-.087,2.827,3.81,3.81,0,0,0,1.138,2.283,7.2,7.2,0,0,0,2.054,1.283,18.433,18.433,0,0,0,2.574.852c1.207.329,2.422.62,3.645.884,2.163.467,4.343.842,6.524,1.211a.568.568,0,0,0,.7-.537,18.323,18.323,0,0,1,1.821-6.854c.332-.634-.629-1.2-.962-.562a19.748,19.748,0,0,0-1.973,7.416l.7-.537a90.76,90.76,0,0,1-11.421-2.45,9.655,9.655,0,0,1-1.824-.759,3.774,3.774,0,0,1-1.548-1.338,4.393,4.393,0,0,1-.367-2.485c.063-.9.195-1.795.318-2.685a57.608,57.608,0,0,1,2.32-9.988A32.447,32.447,0,0,1,21.6,95.4a13.792,13.792,0,0,1,1.281-2.113,9.764,9.764,0,0,1,1.627-1.61,16.413,16.413,0,0,1,4.767-2.482,22.765,22.765,0,0,1,2.283-.734c.163-.042.328-.081.493-.115l.189-.036c.02,0,.187-.028.08-.015.109-.014.219-.011.327-.022.146-.015-.011.028-.006-.009s.244.111-.007-.016c.638.324,1.2-.637.562-.962Z" transform="translate(-11.651 -62.371)" fill="#211715"/>
  <path id="Path_2038" data-name="Path 2038" d="M307.214,27.245a25.883,25.883,0,0,0,.247-3.644,10.3,10.3,0,0,0-2.3-6.627,5.293,5.293,0,0,0-1.773-1.486,12.747,12.747,0,0,0-5.8-1.705,11.681,11.681,0,0,0-7.33,2.309,11.56,11.56,0,0,0-3.758,9.568,8.3,8.3,0,0,0,3.345-2.13c.33-.315,1.135-1.223,1.428-1.574a5.862,5.862,0,0,0,.64-.969,2.143,2.143,0,0,0,.681.866c2.626,2.253,8.355,5.138,11.382,5.656a1.133,1.133,0,0,1,.83-.192,1.075,1.075,0,0,1,.766.524,2.507,2.507,0,0,1,.236.776,3.12,3.12,0,0,1-.387,1.989,4.581,4.581,0,0,1-.954,1.23,5.364,5.364,0,0,1-.994.62l-.509.2-.075.121a12.284,12.284,0,0,1-2.793,3.044,7.494,7.494,0,0,1-.707.475c0,.03.008.061.013.093.014.1.03.195.048.3.1.563.067,1.067.851,1.349l.795.251c.855.273,2.126.676,2.382.772.958.352,1.9.657,2.782.974l.092-.05a2.951,2.951,0,0,0,1.681-2.288,7.607,7.607,0,0,0-.267-2.664,23.5,23.5,0,0,1-.548-7.784" transform="translate(-207.372 -9.936)" fill="#bd957a"/>
  <path id="Path_2039" data-name="Path 2039" d="M311.655,97.07c-.418-.134-.882-.282-1.262-.4-.445-.139-.777-.246-.795-.251-.784-.281-.754-.786-.851-1.349-.018-.1-.034-.2-.048-.3l-.013-.094a10.247,10.247,0,0,1-3.457,1.2,7.146,7.146,0,0,1-3.947-.435l-.006.025c-.056.244-.028.646-.812.929-.026.009-.58.272-1.145.539,1.681.981,3.833,2.405,6.243,2.405a10.505,10.505,0,0,0,6.39-2.171Z" transform="translate(-216.674 -67.958)" fill="#fff"/>
  <path id="Path_2040" data-name="Path 2040" d="M285.452,74.031a4.381,4.381,0,0,1-1.965-3.249c-.117-2.772,1.2-5.97,1.036-9.318a12.372,12.372,0,0,0,1.8,7.2,7.947,7.947,0,0,0,3.527,2.806c-.065.24-.007.661-.818.954-.052.019-2.273,1.075-2.352,1.108Z" transform="translate(-205.1 -44.093)" fill="#bd957a"/>
  <path id="Path_2041" data-name="Path 2041" d="M296.165,95.915c-.022.1-.046.206-.068.309-.016.074.022-.056.028-.063a.325.325,0,0,0-.023.047c-.014.024-.078.109-.019.039s-.024.023-.04.039a.5.5,0,0,1-.052.047c.011,0,.1-.07,0-.006a1.48,1.48,0,0,1-.136.079c-.03.015-.06.03-.091.043.024-.01.087-.035-.023.006-.056.021-.108.045-.161.068l-.2.095q-.8.377-1.6.758c-.172.081-.343.169-.518.243a.557.557,0,0,0-.2.762.574.574,0,0,0,.762.2c.445-.189.88-.414,1.318-.622l.794-.375c.07-.033.142-.065.212-.1l.02-.009c-.245.124-.089.04-.018.011a2.29,2.29,0,0,0,.427-.21,1.423,1.423,0,0,0,.525-.578,2.357,2.357,0,0,0,.142-.488.557.557,0,0,0-1.074-.3Z" transform="translate(-211.962 -68.561)" fill="#211715"/>
  <path id="Path_2042" data-name="Path 2042" d="M335.6,93.847c-.919-.338-1.868-.609-2.8-.9-.1-.033-.209-.065-.313-.1a1.13,1.13,0,0,1-.139-.056,1,1,0,0,1-.169-.1c.083.067-.018-.029-.034-.045.086.084-.022-.041-.04-.071-.066-.1.02.092-.011-.028A8.614,8.614,0,0,1,331.857,91a.57.57,0,0,0-.557-.557.561.561,0,0,0-.557.557c.028.39.081.775.144,1.16a4.272,4.272,0,0,0,.129.678,1.75,1.75,0,0,0,1.237,1.1c1.016.322,2.049.615,3.049.983a.562.562,0,0,0,.685-.39.568.568,0,0,0-.39-.685Z" transform="translate(-239.35 -64.92)" fill="#211715"/>
  <path id="Path_2043" data-name="Path 2043" d="M299.326,55.33a11.112,11.112,0,0,1-2.84.869,7.652,7.652,0,0,1-7.474-3.24c-1.737-2.491-2.015-6.117-1.693-8.671a8.71,8.71,0,0,0,3.083-2.049c.33-.315,1.135-1.223,1.428-1.574a5.879,5.879,0,0,0,.64-.969,2.144,2.144,0,0,0,.681.866c2.626,2.253,8.355,5.138,11.38,5.654a1.15,1.15,0,0,1,.832-.19,1.075,1.075,0,0,1,.766.524,2.505,2.505,0,0,1,.236.776,3.12,3.12,0,0,1-.387,1.989,4.581,4.581,0,0,1-.954,1.23,5.365,5.365,0,0,1-.994.62l-.509.2-.075.121a12.285,12.285,0,0,1-2.793,3.044,7.643,7.643,0,0,1-1.326.8Z" transform="translate(-207.931 -28.644)" fill="#fff"/>
  <path id="Path_2044" data-name="Path 2044" d="M262.74,107.047a7.265,7.265,0,0,1,1.847-1.559c1.993-1.083,3.585-1.911,5.7-2.832,1.69.981,3.865,2.44,6.3,2.44a10.633,10.633,0,0,0,6.547-2.279c2.292.844,5.109,1.774,6.666,2.914a5.529,5.529,0,0,1,1.85,3.554,27.338,27.338,0,0,1-1.629,11.665,7.871,7.871,0,0,1-1.81,3.185,3.74,3.74,0,0,1-1.748.937,20.1,20.1,0,0,0,.921,2.728l.032.071-28.249-.03,0-.019c.413-4.1,1.254-13.046,1.8-16.706a10.909,10.909,0,0,1,1.319-3.52C262.441,107.4,262.592,107.215,262.74,107.047Z" transform="translate(-187.704 -73.551)" fill="#f4b3b3"/>
  <path id="Path_2045" data-name="Path 2045" d="M310.31,101.02a12.986,12.986,0,0,1-2.749,1.531,9.482,9.482,0,0,1-3.189.612c-2.322.048-4.283-1.2-6.214-2.329a.557.557,0,0,0-.562.962,17.013,17.013,0,0,0,5.046,2.324,9.718,9.718,0,0,0,5.634-.664,14.476,14.476,0,0,0,2.6-1.475c.585-.406.028-1.372-.562-.962Z" transform="translate(-215.237 -72.327)" fill="#211715"/>
  <path id="Path_2046" data-name="Path 2046" d="M353.139,108.132a6.516,6.516,0,0,0-1.077-2.8,5.7,5.7,0,0,0-2.041-1.711,43.171,43.171,0,0,0-5.712-2.315c-.674-.247-.964.828-.3,1.074a44.515,44.515,0,0,1,5.264,2.107,4.838,4.838,0,0,1,1.824,1.408,5.8,5.8,0,0,1,.965,2.539.561.561,0,0,0,.685.39.571.571,0,0,0,.39-.685Z" transform="translate(-248.651 -72.673)" fill="#211715"/>
  <path id="Path_2047" data-name="Path 2047" d="M355.386,182.438a25.04,25.04,0,0,0,.882,2.571.569.569,0,0,0,.685.39.563.563,0,0,0,.39-.685,25.084,25.084,0,0,1-.881-2.572.557.557,0,1,0-1.074.3Z" transform="translate(-257.119 -130.458)" fill="#211715"/>
  <path id="Path_2048" data-name="Path 2048" d="M280.851,129.664q-.128,2.54-.161,5.084c-.012.96-.024,1.914.049,2.871.154,2.034.38,4.063.6,6.089q.177,1.6.369,3.192a.574.574,0,0,0,.557.557.56.56,0,0,0,.557-.557q-.372-3.044-.678-6.1a49.414,49.414,0,0,1-.35-5.369q.02-2.887.167-5.771c.036-.716-1.077-.714-1.114,0Z" transform="translate(-203.054 -92.587)" fill="#211715"/>
  <path id="Path_2049" data-name="Path 2049" d="M258.284,125.872c.4-3.938.768-7.879,1.2-11.814.175-1.59.3-3.229.585-4.765a12.168,12.168,0,0,1,.585-2.06,6.373,6.373,0,0,1,1.9-2.595,15.029,15.029,0,0,1,3-1.751q1.984-1.024,4.037-1.9a.56.56,0,0,0,.2-.762.571.571,0,0,0-.762-.2q-1.867.8-3.679,1.715-.865.44-1.719.9a11.194,11.194,0,0,0-1.26.729,7.718,7.718,0,0,0-2.343,2.545,11.415,11.415,0,0,0-.947,2.692,16.933,16.933,0,0,0-.268,1.706c-.119.913-.226,1.827-.329,2.741-.242,2.141-.462,4.284-.677,6.428s-.42,4.259-.634,6.39a.561.561,0,0,0,.557.557.569.569,0,0,0,.557-.557Z" transform="translate(-186.097 -71.605)" fill="#211715"/>
  <path id="Path_2050" data-name="Path 2050" d="M300.983,12.948a13.23,13.23,0,0,0-4.928-1.161,11.94,11.94,0,0,0-5.332,1.121,9.426,9.426,0,0,0-3.378,2.444,12.348,12.348,0,0,0-2.263,4.148,10.918,10.918,0,0,0-.492,5.1.561.561,0,0,0,.685.39.57.57,0,0,0,.39-.685,9.414,9.414,0,0,1,.344-4.029,11.6,11.6,0,0,1,1.855-3.806,9.962,9.962,0,0,1,7.444-3.573,11.547,11.547,0,0,1,5.113,1.009.574.574,0,0,0,.762-.2.561.561,0,0,0-.2-.762Z" transform="translate(-205.968 -8.504)" fill="#211715"/>
  <path id="Path_2051" data-name="Path 2051" d="M351.327,31a20.5,20.5,0,0,0,.244-2.719,15.368,15.368,0,0,0-.051-2.361,10.7,10.7,0,0,0-1.962-5.21,7.547,7.547,0,0,0-1.921-1.852c-.607-.386-1.166.578-.562.962a6.431,6.431,0,0,1,1.841,1.9,9.585,9.585,0,0,1,1.263,2.987,11.36,11.36,0,0,1,.3,2.958,20.539,20.539,0,0,1-.221,3.036.573.573,0,0,0,.39.685.561.561,0,0,0,.685-.39Z" transform="translate(-250.949 -13.547)" fill="#211715"/>
  <path id="Path_2052" data-name="Path 2052" d="M282.4,56.013a18.767,18.767,0,0,1-.488,6.312,25.5,25.5,0,0,0-.43,2.955,5.33,5.33,0,0,0,.273,2.386A5.5,5.5,0,0,0,283.7,70.07a.562.562,0,0,0,.762-.2.569.569,0,0,0-.2-.762A4.049,4.049,0,0,1,282.62,66.7a8.941,8.941,0,0,1,.195-3.159c.445-2.6,1.065-5.171.655-7.823a.561.561,0,0,0-.685-.39.571.571,0,0,0-.39.685Z" transform="translate(-203.612 -39.67)" fill="#211715"/>
  <path id="Path_2053" data-name="Path 2053" d="M285.263,56.033c-.322,3.343.278,7.189,2.7,9.684a8.365,8.365,0,0,0,4.518,2.414,9.532,9.532,0,0,0,5.28-.759,10.8,10.8,0,0,0,4.7-4.22c.382-.609-.581-1.169-.962-.562a9.978,9.978,0,0,1-3.678,3.528,8.67,8.67,0,0,1-4.73.983,7.164,7.164,0,0,1-4.039-1.877,8.294,8.294,0,0,1-2.315-4.059,14.667,14.667,0,0,1-.364-5.131.561.561,0,0,0-.557-.557.569.569,0,0,0-.557.557Z" transform="translate(-206.473 -39.797)" fill="#211715"/>
  <path id="Path_2054" data-name="Path 2054" d="M347.012,61.634a.551.551,0,0,1,.878.332c.023.071.045.143.063.215,0,0,.039.2.026.1a3.377,3.377,0,0,1,.019.421,2.177,2.177,0,0,1-.093.722,3.787,3.787,0,0,1-.743,1.317,3.209,3.209,0,0,1-.269.285,2.1,2.1,0,0,1-.223.17c-.114.08-.231.157-.35.23-.062.038-.124.075-.188.109-.017.009-.176.087-.082.047a.575.575,0,0,0-.39.685.56.56,0,0,0,.685.39,4.547,4.547,0,0,0,2.724-3.378,3.057,3.057,0,0,0-.413-2.23,1.7,1.7,0,0,0-2.434-.206.561.561,0,0,0,0,.788.57.57,0,0,0,.788,0Z" transform="translate(-250.104 -43.369)" fill="#211715"/>
  <path id="Path_2055" data-name="Path 2055" d="M308.931,83.3a1.288,1.288,0,0,1-.141.093c-.032.018-.064.033-.1.05-.079.04.052-.019.062-.025a.43.43,0,0,1-.067.026,2,2,0,0,1-.3.082c-.026.005-.053.008-.08.014-.05.011.142-.016.011,0-.069.008-.139.012-.208.015a3.662,3.662,0,0,1-.479-.015c-.109-.01.076.015.01,0l-.089-.017a1.548,1.548,0,0,1-.187-.053c-.022-.008-.107-.042-.014,0s.014,0-.007-.006c-.041-.021-.08-.043-.119-.067-.073-.046-.141-.1-.21-.15a.557.557,0,0,0-.429-.056.567.567,0,0,0-.333.256.574.574,0,0,0,.2.762,2.5,2.5,0,0,0,1.656.463,2.444,2.444,0,0,0,1.378-.4.609.609,0,0,0,.256-.334.569.569,0,0,0-.056-.429.563.563,0,0,0-.762-.2Z" transform="translate(-221.632 -59.707)" fill="#211715"/>
  <path id="Path_2056" data-name="Path 2056" d="M309.228,70.874c-.074.225-.143.453-.2.683a1.212,1.212,0,0,0-.043.312.714.714,0,0,0,.322.585.8.8,0,0,0,.315.131,1,1,0,0,0,.217.021c.07,0,.139-.018.209-.028l-.148.02.046-.005a.6.6,0,0,0,.394-.163.557.557,0,0,0,0-.787.55.55,0,0,0-.394-.163c-.068.005-.136.017-.2.026l.148-.02a.511.511,0,0,1-.12,0l.148.02a.406.406,0,0,1-.094-.025l.133.056a.465.465,0,0,1-.088-.05l.113.087a.126.126,0,0,1-.017-.017l.087.111a.169.169,0,0,1-.018-.031l.056.133a.224.224,0,0,1-.009-.036l.02.148a.373.373,0,0,1,0-.094l-.02.148a3.416,3.416,0,0,1,.1-.4c.036-.125.074-.251.115-.374a.557.557,0,0,0-.818-.629.606.606,0,0,0-.256.333Z" transform="translate(-223.652 -50.587)" fill="#211715"/>
  <path id="Path_2057" data-name="Path 2057" d="M318.047,93.485l-.081.062-.119-.455c-.212-.81-.71-2.7-.95-3.295a24.629,24.629,0,0,1-1.141-2.371,2.375,2.375,0,0,1-.111-1.058,3.205,3.205,0,0,1,1.114-1.718A13.527,13.527,0,0,0,318.684,83a4.548,4.548,0,0,0,.31-.568c.687-1.533,1.068-2.776,1.369-3.36.188-.366.979-1.641,1.474-1.406a.485.485,0,0,1,.217.233,11.02,11.02,0,0,1,.658-1.185,1.011,1.011,0,0,1,.963-.332c.642.288.692,1.315.62,2.06-.087.9-.195,2.148-.321,3.189a7.546,7.546,0,0,1-1.037,3.654,12.843,12.843,0,0,1-1.876,2.357.863.863,0,0,0-.223.3,11.568,11.568,0,0,0,1.62,2.879l.095.136A41.671,41.671,0,0,0,318.047,93.485Z" transform="translate(-228.442 -54.757)" fill="#fff"/>
  <path id="Path_2058" data-name="Path 2058" d="M325.068,64.448c.111.454-.041,1.472-.891,1.509-1.114-.074-1.1-1.316-.689-1.876A.885.885,0,0,1,325.068,64.448Z" transform="translate(-233.93 -45.75)" fill="#211715"/>
  <path id="Path_2059" data-name="Path 2059" d="M300.6,62.092c.118.437.024,1.434-.739,1.506-1.007-.024-1.044-1.234-.7-1.8C299.452,61.342,300.27,61.163,300.6,62.092Z" transform="translate(-216.282 -44.098)" fill="#211715"/>
  <path id="Path_2060" data-name="Path 2060" d="M335.035,89.1c-.3-.432-.595-.868-.872-1.315-.161-.259-.318-.522-.458-.793-.044-.084-.137-.278-.148-.306-.02-.052-.035-.106-.054-.158-.013-.036-.028-.178-.013-.025l-.076.281a3.07,3.07,0,0,1,.575-.648q.31-.338.6-.7c.355-.448.655-.933.992-1.392a6.4,6.4,0,0,0,.91-2.827c.195-1.276.306-2.564.426-3.849.085-.908.18-2.1-.615-2.745a1.414,1.414,0,0,0-1.884.256,8.447,8.447,0,0,0-.785,1.364.557.557,0,0,0,.962.562c.126-.215.231-.44.346-.661s.218-.524.452-.629c.183-.084.246-.045.334.139a1.837,1.837,0,0,1,.135.729,16.11,16.11,0,0,1-.151,1.977c-.07.733-.141,1.467-.24,2.2a12.035,12.035,0,0,1-.41,2.022,5.026,5.026,0,0,1-.7,1.282,12.185,12.185,0,0,1-1.284,1.623,2.6,2.6,0,0,0-.651.805,1,1,0,0,0,.059.694,12.734,12.734,0,0,0,1.59,2.681c.406.585,1.372.028.962-.562Z" transform="translate(-240.538 -53.336)" fill="#211715"/>
  <path id="Path_2061" data-name="Path 2061" d="M320.224,84.532c.211-.661.4-1.329.6-1.995a7.908,7.908,0,0,0,.467-1.949c.023-.7-.257-1.768-1.172-1.631-.7.1-1.194.869-1.531,1.42A10.824,10.824,0,0,0,317.8,82.2a6.8,6.8,0,0,1-1.422,2.741,11.217,11.217,0,0,0-2.313,2.156,2.665,2.665,0,0,0-.45,1.485,4.174,4.174,0,0,0,.4,1.5c.24.536.562,1.03.818,1.557a6.558,6.558,0,0,1,.35.995c.244.816.46,1.641.676,2.465a.557.557,0,0,0,1.074-.3,19.446,19.446,0,0,0-1.189-3.827,5.516,5.516,0,0,1-1.017-2.514c.047-.868.863-1.479,1.486-1.961a12.239,12.239,0,0,0,1.119-.93,3.784,3.784,0,0,0,.8-1.248c.357-.818.668-1.652.99-2.484a5.329,5.329,0,0,1,.718-1.338,2.91,2.91,0,0,1,.218-.254c.016-.017.262-.217.262-.213,0,.029-.121.011-.129.007-.2-.1-.079-.089-.079-.023s.056.214.062.314a5.4,5.4,0,0,1-.411,1.859c-.2.68-.4,1.362-.612,2.037s.856.977,1.074.3Z" transform="translate(-226.99 -56.614)" fill="#211715"/>
  <path id="Path_2062" data-name="Path 2062" d="M304.206,38.534a5.074,5.074,0,0,0,1.854,1.83c.741.539,1.516,1.03,2.306,1.492a37.222,37.222,0,0,0,5.277,2.566,17.522,17.522,0,0,0,2.609.822c.7.152,1-.921.3-1.074a21.809,21.809,0,0,1-4.607-1.688,34.892,34.892,0,0,1-4.8-2.715c-.357-.244-.709-.5-1.046-.766a2.776,2.776,0,0,1-.927-1.03.56.56,0,0,0-.762-.2.572.572,0,0,0-.2.762Z" transform="translate(-220.149 -27.202)" fill="#211715"/>
  <path id="Path_2063" data-name="Path 2063" d="M328.022,32.088a14.709,14.709,0,0,1,2.471,1.882,10.1,10.1,0,0,1,1.912,2.308c.341.63,1.3.069.962-.562a11.1,11.1,0,0,0-2.086-2.533,16.383,16.383,0,0,0-2.7-2.057.557.557,0,0,0-.562.962Z" transform="translate(-237.187 -22.406)" fill="#211715"/>
  <path id="Path_2064" data-name="Path 2064" d="M346.816,34.475a9.3,9.3,0,0,1,1.157,4.442.557.557,0,0,0,1.114,0,10.5,10.5,0,0,0-1.308-5c-.346-.627-1.308-.066-.961.562Z" transform="translate(-250.895 -24.273)" fill="#211715"/>
  <path id="Path_2065" data-name="Path 2065" d="M291.859,37.49a9.473,9.473,0,0,1-1.784,2.3,8.832,8.832,0,0,1-2.867,2.09.56.56,0,0,0-.2.762.571.571,0,0,0,.762.2,9.628,9.628,0,0,0,3.093-2.265,10.494,10.494,0,0,0,1.958-2.523.572.572,0,0,0-.2-.762.561.561,0,0,0-.762.2Z" transform="translate(-207.595 -26.856)" fill="#211715"/>
  <path id="Path_2066" data-name="Path 2066" d="M356.8,74a3.588,3.588,0,0,0,1.888-2.3,7.32,7.32,0,0,0-.228-3.322,20.014,20.014,0,0,1-.563-3.8,31.389,31.389,0,0,1,.044-3.8c.048-.715-1.066-.712-1.114,0a28.349,28.349,0,0,0,.139,5.723c.077.565.175,1.126.3,1.681a11.369,11.369,0,0,1,.4,2.3A2.771,2.771,0,0,1,357.385,72a2.7,2.7,0,0,1-1.141,1.042c-.639.325-.076,1.286.562.962Z" transform="translate(-257.548 -43.219)" fill="#211715"/>
  <path id="Path_2067" data-name="Path 2067" d="M335.478,125.02a26.872,26.872,0,0,1-1.312,10.638c-.469,1.453-1.011,3.234-2.351,4.13a2.808,2.808,0,0,1-1.871.521,3.869,3.869,0,0,1-1.721-.9c-2.073-1.582-3.313-3.988-4.5-6.258-.536-1.029-1.049-2.072-1.505-3.139-.124-.288-.276-.662-.384-1-.033-.1-.049-.215-.086-.315-.026-.069,0,.163.007.03,0,.133-.023.159-.013.1-.061.336-.014-.018,0,.028,0,.014-.1.1-.028.04.033-.028.062-.063.094-.093s.2-.167.122-.106c.195-.15.4-.284.612-.415.523-.329,1.065-.631,1.608-.926,1.114-.606,2.248-1.172,3.373-1.757l-.762-.2a47.016,47.016,0,0,1,3.187,5.62c.31.646,1.27.082.962-.562a47.05,47.05,0,0,0-3.184-5.621.571.571,0,0,0-.762-.2c-1.072.557-2.153,1.1-3.217,1.673a12.939,12.939,0,0,0-2.722,1.706c-.562.523-.343,1.112-.1,1.738.42,1.093.929,2.154,1.454,3.2.633,1.261,1.308,2.5,2.051,3.7a13,13,0,0,0,2.629,3.229,8.332,8.332,0,0,0,1.788,1.225,3.344,3.344,0,0,0,2.337.18,5.615,5.615,0,0,0,3.43-3.6,27.4,27.4,0,0,0,1.979-12.683.572.572,0,0,0-.557-.557.561.561,0,0,0-.557.557Z" transform="translate(-232.084 -89.254)" fill="#211715"/>
  <path id="Path_2068" data-name="Path 2068" d="M.538,192.27c2.05,0,4.1.009,6.151.009a.557.557,0,0,0,0-1.114c-2.05,0-4.1-.009-6.151-.009a.557.557,0,0,0,0,1.114Z" transform="translate(0 -137.244)" fill="#211715"/>
  <path id="Path_2069" data-name="Path 2069" d="M119.131,192.026c3.413,0,6.825.031,10.238.042q1.485.005,2.97.006a.557.557,0,0,0,0-1.114c-3.7,0-7.4-.028-11.1-.042l-2.109-.006A.557.557,0,0,0,119.131,192.026Z" transform="translate(-85.822 -137.068)" fill="#211715"/>
  <path id="Path_2070" data-name="Path 2070" d="M203.517,191.056c-2.7-.005-5.4,0-8.106-.011a.557.557,0,0,0,0,1.114c2.7.01,5.4.006,8.106.011A.557.557,0,0,0,203.517,191.056Z" transform="translate(-141.003 -137.164)" fill="#211715"/>
  <path id="Path_2071" data-name="Path 2071" d="M245.37,192.219l21.879.016,12.419.009,2.878,0a.557.557,0,0,0,0-1.114q-3.608,0-7.217-.005l-16.544-.013-13.415-.01A.557.557,0,0,0,245.37,192.219Z" transform="translate(-177.356 -137.207)" fill="#211715"/>
</svg>
