<svg id="exercise" xmlns="http://www.w3.org/2000/svg" width="108.882" height="108.882" viewBox="0 0 108.882 108.882">
  <path id="Path_2114" data-name="Path 2114" d="M105.128,359.093H3.755A3.754,3.754,0,0,1,0,355.339V321.548a3.754,3.754,0,0,1,3.755-3.755H105.128a3.754,3.754,0,0,1,3.755,3.755v33.791A3.754,3.754,0,0,1,105.128,359.093Z" transform="translate(0 -250.211)" fill="#e4eaf8"/>
  <g id="Group_104" data-name="Group 104" transform="translate(56.318 75.091)">
    <path id="Path_2115" data-name="Path 2115" d="M300.5,356.858H266.7a1.877,1.877,0,0,1,0-3.755H300.5a1.877,1.877,0,1,1,0,3.755Z" transform="translate(-264.827 -353.103)" fill="#707487"/>
    <path id="Path_2116" data-name="Path 2116" d="M308,427.478H266.7a1.877,1.877,0,0,1,0-3.755H308a1.877,1.877,0,1,1,0,3.755Z" transform="translate(-264.827 -408.705)" fill="#707487"/>
  </g>
  <g id="Group_105" data-name="Group 105" transform="translate(56.318 82.6)">
    <path id="Path_2117" data-name="Path 2117" d="M308,462.789H266.7a1.877,1.877,0,0,1,0-3.755H308a1.877,1.877,0,1,1,0,3.755Z" transform="translate(-264.827 -444.016)" fill="#7f8499"/>
    <path id="Path_2118" data-name="Path 2118" d="M274.214,392.168h-7.509a1.877,1.877,0,1,1,0-3.755h7.509a1.877,1.877,0,1,1,0,3.755Z" transform="translate(-264.828 -388.413)" fill="#7f8499"/>
    <path id="Path_2119" data-name="Path 2119" d="M363.607,392.168H337.325a1.877,1.877,0,0,1,0-3.755h26.282a1.877,1.877,0,0,1,0,3.755Z" transform="translate(-320.43 -388.413)" fill="#7f8499"/>
  </g>
  <path id="Path_2120" data-name="Path 2120" d="M105.128,76.61H3.755A3.754,3.754,0,0,1,0,72.856V39.065A3.754,3.754,0,0,1,3.755,35.31H105.128a3.754,3.754,0,0,1,3.755,3.755V72.856A3.754,3.754,0,0,1,105.128,76.61Z" transform="translate(0 -27.801)" fill="#e4eaf8"/>
  <g id="Group_106" data-name="Group 106" transform="translate(3.755 7.509)">
    <path id="Path_2121" data-name="Path 2121" d="M58.956,72.856H25.165a7.509,7.509,0,0,1-7.509-7.509V35.31H66.465V65.346A7.509,7.509,0,0,1,58.956,72.856Z" transform="translate(-17.656 -35.31)" fill="#d5dced"/>
    <path id="Path_2122" data-name="Path 2122" d="M58.956,355.339H25.165a7.509,7.509,0,0,1-7.509-7.509V317.793H66.465v30.036A7.509,7.509,0,0,1,58.956,355.339Z" transform="translate(-17.656 -257.72)" fill="#d5dced"/>
  </g>
  <g id="Group_107" data-name="Group 107" transform="translate(56.318 15.018)">
    <path id="Path_2123" data-name="Path 2123" d="M300.5,74.375H266.7a1.877,1.877,0,0,1,0-3.755H300.5a1.877,1.877,0,1,1,0,3.755Z" transform="translate(-264.827 -70.62)" fill="#707487"/>
    <path id="Path_2124" data-name="Path 2124" d="M308,145H266.7a1.877,1.877,0,0,1,0-3.755H308A1.877,1.877,0,1,1,308,145Z" transform="translate(-264.827 -126.223)" fill="#707487"/>
  </g>
  <g id="Group_108" data-name="Group 108" transform="translate(56.318 22.527)">
    <path id="Path_2125" data-name="Path 2125" d="M308,180.306H266.7a1.877,1.877,0,0,1,0-3.755H308a1.877,1.877,0,1,1,0,3.755Z" transform="translate(-264.827 -161.533)" fill="#7f8499"/>
    <path id="Path_2126" data-name="Path 2126" d="M274.214,109.685h-7.509a1.877,1.877,0,1,1,0-3.755h7.509a1.877,1.877,0,1,1,0,3.755Z" transform="translate(-264.828 -105.93)" fill="#7f8499"/>
    <path id="Path_2127" data-name="Path 2127" d="M363.607,109.685H337.325a1.877,1.877,0,0,1,0-3.755h26.282a1.877,1.877,0,0,1,0,3.755Z" transform="translate(-320.43 -105.93)" fill="#7f8499"/>
  </g>
  <rect id="Rectangle_310" data-name="Rectangle 310" width="3.755" height="22.527" transform="translate(26.282 39.423)" fill="#afb9d2"/>
  <rect id="Rectangle_311" data-name="Rectangle 311" width="3.755" height="5.632" transform="translate(26.282 39.423)" fill="#959cb5"/>
  <path id="Path_2128" data-name="Path 2128" d="M72.856,41.3H39.066a3.754,3.754,0,0,1-3.755-3.755V3.755A3.754,3.754,0,0,1,39.066,0H72.857a3.754,3.754,0,0,1,3.755,3.755V37.546A3.755,3.755,0,0,1,72.856,41.3Z" transform="translate(-27.802)" fill="#ff5050"/>
  <path id="Path_2129" data-name="Path 2129" d="M100.708,44.837a11.733,11.733,0,1,0-23.466,0v3.755a11.722,11.722,0,0,0,18.2,9.782L96.7,59.637a2.346,2.346,0,1,0,3.318-3.318l-1.263-1.263a11.66,11.66,0,0,0,1.951-6.464Zm-6.319,5.85a2.346,2.346,0,0,0-3.318,3.318l.921.921a6.958,6.958,0,0,1-3.016.705,7.048,7.048,0,0,1-7.04-7.04V44.837a7.04,7.04,0,1,1,14.079,0v3.755a6.959,6.959,0,0,1-.705,3.016Z" transform="translate(-60.816 -26.064)" fill="#fff"/>
  <path id="Path_2130" data-name="Path 2130" d="M72.856,323.783H39.066a3.754,3.754,0,0,1-3.755-3.755V286.237a3.754,3.754,0,0,1,3.755-3.754H72.857a3.754,3.754,0,0,1,3.755,3.754v33.791A3.755,3.755,0,0,1,72.856,323.783Z" transform="translate(-27.802 -222.41)" fill="#7df5a5"/>
  <path id="Path_2131" data-name="Path 2131" d="M100.634,339.892l-5.1-20.4a5.158,5.158,0,0,0-5.008-3.909H87.414a5.158,5.158,0,0,0-5.009,3.91l-5.1,20.4a2.347,2.347,0,0,0,4.554,1.137l.964-3.854H95.117l.963,3.854a2.347,2.347,0,0,0,4.554-1.137ZM84,332.481l2.962-11.846a.467.467,0,0,1,.455-.356h3.113a.467.467,0,0,1,.455.354l2.962,11.848Z" transform="translate(-60.811 -248.473)" fill="#fff"/>
</svg>
