<svg xmlns="http://www.w3.org/2000/svg" width="288.451" height="249.123" viewBox="0 0 288.451 249.123">
  <g id="on_boarding_three" data-name="on boarding three" transform="translate(0 0.028)">
    <path id="Path_17" data-name="Path 17" d="M99.982,21.644l-82.718-.013A15.161,15.161,0,0,0,2.1,36.825c.069,37.322.317,121.418.393,156.747A15.16,15.16,0,0,0,17.6,208.7c48.536.188,198.952-.116,248.622-.2a15.152,15.152,0,0,0,15.135-15.162c-.017-36.187-.075-122.3-.1-156.516A15.151,15.151,0,0,0,266.1,21.673c-16.376,0-139.155-.007-168.79-.011" transform="translate(-0.383 -3.956)" fill="#e2e1e1"/>
    <path id="Path_18" data-name="Path 18" d="M131.622,293.161l75.41.015c2.422,0,2.314-6.294,1.594-7.847s-2.142-2.556-4.607-3.024c-8.537-1.624-10.651-6.234-11.361-14.4-.3-3.5-.618-5.674-.79-9.162-.1-2.043-.271-4.3-.551-7.244l-.047-1.027-57.583.074-.044.953c-.28,2.949-.45,5.2-.551,7.244-.172,3.488-.49,5.66-.79,9.162-.709,8.168-2.823,12.778-11.361,14.4-2.464.469-3.887,1.471-4.607,3.024s-.505,7.832,1.86,7.832Z" transform="translate(-21.18 -45.749)" fill="#fff"/>
    <path id="Path_19" data-name="Path 19" d="M189.3,251.349c.516,5.463.846,10.94,1.341,16.406.335,3.692.879,7.658,3.145,10.723a11.859,11.859,0,0,0,3.994,3.433,25.83,25.83,0,0,0,6.067,1.962,4.766,4.766,0,0,1,2.328,1.144,3.27,3.27,0,0,1,.654.987c-.186-.427-.021-.019,0,.069.038.2.095.4.13.607a10.462,10.462,0,0,1-.217,4.169c-.106.36-.232.3-.338.691a.234.234,0,0,1,.245-.143,3.149,3.149,0,0,0-.383,0c-.439-.011-.879,0-1.319,0H185.5l-40.1-.008q-13.541,0-27.082,0a3.232,3.232,0,0,0-.5,0c.172-.029.105.13.179.046.041-.047.093.193-.1-.113.177.283-.1-.2-.1-.2a2.34,2.34,0,0,1-.18-.457,8.772,8.772,0,0,1-.365-2.043c-.026-.417-.034-.835-.02-1.253,0-.131.009-.262.018-.392,0-.065.082-.72.038-.449.024-.148.262-.945.082-.511a3.261,3.261,0,0,1,.577-.9,4.986,4.986,0,0,1,2.723-1.3,22.12,22.12,0,0,0,5.85-1.939,12.818,12.818,0,0,0,6.152-8.372,37.964,37.964,0,0,0,.923-6.14c.251-2.79.582-5.57.736-8.367q.209-3.828.572-7.642a1.646,1.646,0,0,0-1.635-1.635,1.67,1.67,0,0,0-1.635,1.635c-.525,5.558-.848,11.128-1.367,16.687-.31,3.329-.9,7.106-3.345,9.518a10.533,10.533,0,0,1-4.341,2.427c-2.334.723-4.8.846-6.7,2.567-2.557,2.319-2.388,6.968-1.056,9.894a3.48,3.48,0,0,0,3.2,2.207c.48.014.962,0,1.443,0h20.915l41.009.008h16.731c2.8,0,5.624.107,8.419,0,3.662-.138,3.989-4.932,3.721-7.7a6.436,6.436,0,0,0-2.125-4.577c-1.912-1.618-4.353-1.725-6.642-2.452a9.481,9.481,0,0,1-6.567-6.447,27.382,27.382,0,0,1-1.02-5.739c-.253-2.793-.584-5.579-.748-8.379-.158-2.681-.341-5.354-.593-8.027a1.681,1.681,0,0,0-1.635-1.635,1.646,1.646,0,0,0-1.635,1.635Z" transform="translate(-20.798 -45.609)" fill="#211715"/>
    <path id="Path_20" data-name="Path 20" d="M141.409,288.218h50.945a1.636,1.636,0,0,0,0-3.269H141.409A1.636,1.636,0,0,0,141.409,288.218Z" transform="translate(-25.537 -52.046)" fill="#211715"/>
    <path id="Path_21" data-name="Path 21" d="M29.63,166.145v10.561c4.4,0,108.372-.036,149.306-.049V166.1Z" transform="translate(-5.411 -30.34)" fill="#b6b2b2"/>
    <path id="Path_22" data-name="Path 22" d="M178.939,144.637V48.581L29.63,48.589v96.093Z" transform="translate(-5.411 -8.878)" fill="#fff"/>
    <path id="Path_23" data-name="Path 23" d="M178.631,46.58H29.265a1.658,1.658,0,0,0-1.635,1.635v96.1a1.658,1.658,0,0,0,1.635,1.635q5.949,0,11.9,0l23.579-.011,27.579-.015,23.9-.012c4.176,0,8.359.071,12.535-.007h.382a1.636,1.636,0,0,0,0-3.269q-5.3,0-10.606,0l-22.913.012-27.54.014-24.486.013q-6.876,0-13.751.006h-.572l1.635,1.635V48.224l-1.635,1.635H178.631a1.636,1.636,0,0,0,0-3.269Z" transform="translate(-5.046 -8.512)" fill="#211715"/>
    <path id="Path_24" data-name="Path 24" d="M27.63,165.8v10.561A1.659,1.659,0,0,0,29.265,178q5.976,0,11.952-.006L65.4,177.98l28.444-.016,24.726-.013c4.343,0,8.69.061,13.033-.007h.409a1.636,1.636,0,0,0,0-3.269q-5.525,0-11.049.006l-23.72.013-28.417.016-25.137.014q-6.941,0-13.882.007H29.27l1.635,1.635V165.8a1.636,1.636,0,0,0-3.269,0Z" transform="translate(-5.046 -29.997)" fill="#211715"/>
    <path id="Path_25" data-name="Path 25" d="M44.5,162.294c0-7.438.04-6.193.04-10.632,5.955,0,15.757-.012,24.015-.012,0,5.752.029,6.583.029,10.626C63.673,162.274,52.151,162.294,44.5,162.294Z" transform="translate(-8.127 -27.701)" fill="#65a0d4"/>
    <path id="Path_26" data-name="Path 26" d="M83.9,163.481c0-3.214.028-3.408.028-5.325,4.112,0,10.882-.006,16.585-.006,0,2.485.019,3.576.019,5.323C97.141,163.473,89.183,163.481,83.9,163.481Z" transform="translate(-15.323 -28.888)" fill="#fff"/>
    <path id="Path_27" data-name="Path 27" d="M45.769,161.928c0-3.544.039-7.087.04-10.632l-1.635,1.635q12.008,0,24.015-.012l-1.635-1.635c0,3.542.028,7.083.029,10.626l1.635-1.635q-12.042,0-24.084.02a1.636,1.636,0,0,0,0,3.269q12.041,0,24.084-.02a1.658,1.658,0,0,0,1.635-1.635c0-3.541-.028-7.082-.029-10.626a1.658,1.658,0,0,0-1.635-1.635q-12.008,0-24.015.012A1.659,1.659,0,0,0,42.54,151.3c0,3.544-.04,7.087-.04,10.632A1.636,1.636,0,0,0,45.769,161.928Z" transform="translate(-7.762 -27.336)" fill="#211715"/>
    <path id="Path_28" data-name="Path 28" d="M55.439,162.125c0-8.609.011-7.169.011-12.305,1.531,0,4.051-.015,6.174-.015,0,6.658.007,7.62.007,12.3C60.37,162.1,57.407,162.125,55.439,162.125Z" transform="translate(-10.125 -27.364)" fill="#fff"/>
    <path id="Path_29" data-name="Path 29" d="M56.708,161.76c0-4.1.011-8.2.011-12.306l-1.635,1.635c2.058,0,4.116-.014,6.174-.015l-1.635-1.635q0,6.148.007,12.3l1.635-1.635c-2.064,0-4.128.021-6.192.022a1.636,1.636,0,0,0,0,3.269c2.065,0,4.129-.021,6.192-.022a1.659,1.659,0,0,0,1.635-1.635q0-6.15-.007-12.3a1.658,1.658,0,0,0-1.635-1.635c-2.058,0-4.116.014-6.174.015a1.658,1.658,0,0,0-1.635,1.635c0,4.1-.011,8.2-.011,12.305A1.636,1.636,0,0,0,56.708,161.76Z" transform="translate(-9.76 -26.999)" fill="#211715"/>
    <path id="Path_30" data-name="Path 30" d="M85.169,163.116c0-1.775.027-3.551.028-5.325l-1.635,1.635q8.293,0,16.585-.006l-1.635-1.635c0,1.775.018,3.548.019,5.323l1.635-1.635q-8.315,0-16.632.008a1.636,1.636,0,0,0,0,3.269q8.317,0,16.632-.008a1.658,1.658,0,0,0,1.635-1.635c0-1.775-.019-3.548-.019-5.323a1.659,1.659,0,0,0-1.635-1.635q-8.293,0-16.585.006a1.659,1.659,0,0,0-1.635,1.635c0,1.775-.027,3.55-.028,5.325A1.636,1.636,0,0,0,85.169,163.116Z" transform="translate(-14.957 -28.523)" fill="#211715"/>
    <path id="Path_31" data-name="Path 31" d="M162.281,127.777c-1.322-1.484-2.571-2.75-3-4.83-.439-2.148-1.538-4.975-3.812-5.14a2.065,2.065,0,0,0-2.2,1.71s-.154.49-.4,1.295a9.373,9.373,0,0,0-1.648-.474c-3.936-.778-8.255.036-8.427,2.074-.194,1.011.055,1.916.834,3.526-.712.692-1.249,2.7-.72,3.136l.48,1.076a2.647,2.647,0,0,0-2.745.718c-.822.875-1.466,2.779-.5,3.492.79.581,1.412,1.171,2.094,1.692-1.419-2.014-4.944-.293-4.8,1.553a4.932,4.932,0,0,0,2.115,3.154A26.14,26.14,0,0,0,146.309,149c.7.565,1.43,1.094,2.106,1.687a14.514,14.514,0,0,1,3.5,4.612,109.781,109.781,0,0,0,14.386-6c-.551-8.367-.68-16.768-2.135-19.088a17.934,17.934,0,0,0-1.887-2.432Z" transform="translate(-25.101 -21.519)" fill="#fff"/>
    <path id="Path_32" data-name="Path 32" d="M136.773,76.915c3.269,9.259,6.44,18.554,9.773,27.791q1.481,4.1,3.013,8.185a1.68,1.68,0,0,0,2.011,1.144,1.649,1.649,0,0,0,1.144-2.012c-3.724-9.873-7.164-19.852-10.634-29.817q-1.072-3.079-2.152-6.155c-.7-1.971-3.856-1.122-3.153.869Z" transform="translate(-24.961 -13.69)" fill="#211715"/>
    <path id="Path_33" data-name="Path 33" d="M132.369,70.517l1.348,3.452a2.065,2.065,0,0,0,2.66,1.179l2.336-.9a2.06,2.06,0,0,0,1.184-2.654c-.761-2-1.009-2.647-1.318-3.448-.691-1.789-3.031-3.409-4.57-2.925C132.68,65.638,131.558,68.437,132.369,70.517Z" transform="translate(-24.125 -11.901)" fill="#f2635f"/>
    <path id="Path_34" data-name="Path 34" d="M130.425,70.587q.389,1,.779,1.994c.535,1.368.946,2.828,2.352,3.546a3.779,3.779,0,0,0,2.374.357,10.155,10.155,0,0,0,1.954-.679,7.683,7.683,0,0,0,1.855-.84,3.743,3.743,0,0,0,1.429-2.026c.376-1.376-.236-2.6-.716-3.863-.285-.748-.553-1.507-.877-2.239-.981-2.216-3.779-4.192-6.264-3.587a4.471,4.471,0,0,0-2.8,3,6.393,6.393,0,0,0-.087,4.332,1.635,1.635,0,1,0,3.153-.869,5.1,5.1,0,0,1-.195-.684c-.068-.311-.006-.057,0,.009-.007-.119-.016-.238-.018-.357a6.254,6.254,0,0,1,.031-.643c-.029.327-.012.082.006.013.038-.159.069-.32.114-.477.029-.1.245-.649.088-.309a5.12,5.12,0,0,1,.3-.562c.042-.067.092-.132.134-.2-.178.291-.114.135-.041.064a1.233,1.233,0,0,0,.19-.19c.071-.117-.3.2-.011.019.274-.163-.044.087-.1.032-.019-.019.212-.041.21-.052.007.056-.4.011-.048.025.163.007.293-.087-.031-.025a1.456,1.456,0,0,1,.535.134c.095.026.345.157.029,0,.12.059.24.117.356.183.163.091.311.194.463.3.364.245-.207-.217.108.092.067.065.14.125.208.19.152.146.286.3.427.461.174.192-.191-.307.034.054.072.114.146.225.212.343.043.077.077.158.12.235-.15-.269-.055-.136-.021-.045.04.108.082.215.124.322q.154.4.306.8c.316.823.642,1.644.924,2.477.137.4-.082-.229,0,.018.039.123-.088.37.016.009-.023.082-.046.163-.067.245.092-.348.069-.067-.021.009-.163.138.317-.15-.011.023-.043.022-.261.218.042,0-.073.052-.147.093-.222.139-.149.074-.159.082-.031.016l-.269.1-1.621.624a3.857,3.857,0,0,1-.654.21c.365-.069.094-.024-.016-.032q-.188-.011.119.02a1.545,1.545,0,0,1-.183-.048c-.212-.11.36.109-.016-.007q-.192-.127-.045-.011c.095.082.082.07-.033-.032-.06-.062-.122-.12-.176-.187.235.289.016-.029-.025-.112.12.245-.036-.113-.061-.174l-.223-.572-.281-.72-.672-1.716a1.675,1.675,0,0,0-2.011-1.144A1.653,1.653,0,0,0,130.425,70.587Z" transform="translate(-23.758 -11.536)" fill="#211715"/>
    <path id="Path_35" data-name="Path 35" d="M143.793,142.924c.024.034.044.073.069.1.119.148-.092-.348-.058-.157.012.068.077.378.041.093-.038-.3-.007.094-.009.163,0,.05-.011.1-.01.151,0,.194.086-.364.006-.082-.028.1-.047.2-.077.3a1.907,1.907,0,0,0-.066.2s.15-.3.066-.154c-.056.1-.1.207-.163.307a1.093,1.093,0,0,0-.078.119c-.063.15.208-.214.089-.118-.311.253.03,0,.034,0s-.32.183-.332.19c-.153.089.113-.059.128-.051a.778.778,0,0,0-.163.057c-.153.05-.31.075-.464.119-.187.051.137-.014.135-.013a.952.952,0,0,1-.245.019c-.121.007-.24,0-.361,0-.176,0-.126-.089.082.022a.818.818,0,0,0-.169-.033,4.122,4.122,0,0,1-.471-.146c-.177-.061.042.014.065.026-.063-.034-.128-.062-.191-.094q-.222-.114-.436-.245a9.794,9.794,0,0,1-.827-.572c.245.182-.106-.082-.177-.145-.12-.1-.239-.2-.353-.3a8.277,8.277,0,0,1-.654-.671c-.2-.231.1.163-.069-.094-.082-.129-.168-.256-.245-.392-.031-.056-.061-.114-.09-.172-.163-.321.017.038.016.038-.07-.011-.087-.481-.13-.483,0,0,.036.3.025.145a.552.552,0,0,0,0-.132c.008.014-.082.358-.032.217a.576.576,0,0,0,.043-.172c0-.135-.063.159-.082.181a.671.671,0,0,0,.062-.123,1.454,1.454,0,0,0,.1-.163c.068-.154-.213.213-.082.1.1-.082.184-.194.276-.285a1.391,1.391,0,0,0,.116-.1c.014.046-.334.219-.038.041.105-.063.209-.129.319-.186.025-.013.189-.1.192-.092s-.351.119-.092.048l.409-.113c.05-.013.238-.035-.009,0-.286.036.059,0,.1,0,.082,0,.461.034.2-.009s.2.06.28.087a1.647,1.647,0,0,0,2.011-1.144,1.673,1.673,0,0,0-1.144-2.011,4.858,4.858,0,0,0-4.688,1.2,3.628,3.628,0,0,0-1.134,2,4.384,4.384,0,0,0,.659,2.943,7.835,7.835,0,0,0,1.784,1.994,11.086,11.086,0,0,0,2.3,1.546,5.107,5.107,0,0,0,2.741.521,4.9,4.9,0,0,0,2.739-1.082c1.279-1.113,1.9-3.612.879-5.068a1.635,1.635,0,0,0-2.823,1.65Z" transform="translate(-24.74 -25.029)" fill="#211715"/>
    <path id="Path_36" data-name="Path 36" d="M145.4,131.535a5.347,5.347,0,0,0-3.718-.642,4.414,4.414,0,0,0-2.593,1.88,5.063,5.063,0,0,0-.912,2.987,3.091,3.091,0,0,0,.478,1.573,5.921,5.921,0,0,0,1.405,1.285c.806.671,1.635,1.283,2.486,1.891.1.069.191.143.287.214.272.2-.311-.245-.027-.02l.163.129c.4.311.8.623,1.2.929a10.734,10.734,0,0,0,1.784,1.182,4.539,4.539,0,0,0,3.171.208,4.066,4.066,0,0,0,2.719-2.213,4.4,4.4,0,0,0-.4-4.358,1.635,1.635,0,0,0-2.823,1.65c.07.1.133.209.2.311.016.024.145.288.055.073.041.1.062.2.094.3s.017.3.013.008c0,.071.007.142.006.213s-.038.347,0,.127-.024.056-.036.109c-.023.1-.151.346.012.028a2.7,2.7,0,0,0-.205.365c-.064.207.163-.245.047-.062-.026.041-.218.23-.058.076s-.042.018-.092.051-.118.057-.171.094c.217-.15.138-.047.022-.01s-.215.069-.327.1c-.089.022-.179.036-.267.057-.235.056.269,0,.032-.008-.15-.007-.306,0-.457,0-.347,0,.261.063-.047-.017-.17-.045.4.2,0-.006a10.555,10.555,0,0,1-1.394-.926c-.128-.1-.255-.193-.383-.289-.065-.049-.245-.192.05.038l-.182-.141c-.3-.238-.609-.477-.915-.712-.415-.32-.857-.592-1.281-.9-.224-.163.152.123-.065-.05-.087-.069-.173-.14-.259-.211-.153-.126-.3-.253-.455-.381-.178-.15-.357-.3-.539-.447l-.284-.226-.331-.256c-.163-.125-.2-.15-.1-.075l.048.038c-.1-.1-.1-.1-.01.008.065.008.095.139.015-.007.177.327.082.208.059.092.074.414.011.2.015.1v-.234c0-.134.087-.213-.011.072.055-.157.082-.327.132-.49.082-.281,0-.029-.022.03q.066-.146.142-.287a4.227,4.227,0,0,1,.3-.468c-.228.311.089-.034.178-.136.128-.148-.234.09-.048.042a1.456,1.456,0,0,0,.257-.149c-.052.031-.334.1-.056.026.082-.021.159-.043.237-.065.282-.082.009,0-.056,0a2.7,2.7,0,0,0,.335,0c.229-.029-.249-.066-.011-.011.123.029.245.051.37.087.1.03.208.064.307.1-.245-.1.256.136.254.135a1.635,1.635,0,0,0,1.65-2.823Z" transform="translate(-25.235 -23.893)" fill="#211715"/>
    <path id="Path_37" data-name="Path 37" d="M150.572,134.114c-1.521-1.269-3-2.588-4.5-3.887q-.445-.386-.9-.768a2.175,2.175,0,0,0-.2-.168c-.259-.168.017.056.065.142l.1.25c-.029-.123-.033-.11-.007.043,0,.311.011-.074.011-.139s.038-.306,0-.074c-.047.281.034-.132.038-.152.041-.172.1-.337.15-.505.113-.389-.115.168.009-.034.044-.071.074-.152.114-.225s.106-.168.155-.254c-.123.214-.117.15.05-.023-.044.045-.259.154.012-.008.082-.05.163-.1.251-.141-.372.186.444-.1.222-.055-.238.046.22-.008.222-.008.1,0,.2.009.3.011-.287,0-.082-.017.006.007.143.04.288.071.427.123-.3-.113.05.036.125.076.105.056.21.114.314.172q.34.191.669.4t.623.409c.088.062.176.124.263.188.065.047.129.094.193.143-.1-.082-.106-.082-.018-.013a16.332,16.332,0,0,1,2.095,2.016c.037.042.419.521.239.278a7.164,7.164,0,0,1,.409.615c.1.171.187.348.28.524.222.425-.056-.163.051.111.051.129.1.259.144.391.008.028.07.418.053.163-.024-.333-.013.421,0,.1.009-.245-.041.163-.047.187-.011.042-.148.392-.06.2.1-.22-.112.19-.109.185-.043.072-.3.378-.075.13-.063.07-.128.136-.192.2-.258.278.224-.1-.1.082a2.479,2.479,0,0,1-.232.13q.225-.091.049-.04c-.12.029-.1.025.064-.011-.054-.047-.218-.053-.006.006-.078-.021-.426-.163-.179-.045a5.848,5.848,0,0,1-.658-.4c-.4-.262.137.115-.075-.055-.119-.095-.235-.192-.351-.289a1.672,1.672,0,0,0-2.312,0,1.653,1.653,0,0,0,0,2.312c1.117.931,2.4,1.911,3.946,1.7a4.236,4.236,0,0,0,3.217-2.656c1.15-2.723-.854-5.359-2.732-7.181a17.053,17.053,0,0,0-3.122-2.4,5.685,5.685,0,0,0-4.214-.938,4.12,4.12,0,0,0-2.911,2.393c-.49,1.118-.892,2.6-.22,3.734a6.009,6.009,0,0,0,1.345,1.282c.448.387.892.778,1.336,1.17,1.108.976,2.222,1.944,3.356,2.889a1.672,1.672,0,0,0,2.312,0A1.654,1.654,0,0,0,150.572,134.114Z" transform="translate(-25.909 -22.81)" fill="#211715"/>
    <path id="Path_38" data-name="Path 38" d="M158.016,119.59c.217-.66.777-.633,1.368-.06a6.576,6.576,0,0,1,1.439,3.248,10.108,10.108,0,0,0,2.016,4.116c.9,1.144,1.979,2.142,2.8,3.346a3.316,3.316,0,0,1,.56,1.036c.141.46.259.922.355,1.394a35.941,35.941,0,0,1,.514,3.988c.327,3.7.468,7.418.7,11.127.128,2.091,3.4,2.106,3.269,0-.21-3.433-.356-6.877-.628-10.309a28.436,28.436,0,0,0-1.111-7.235c-.881-2.471-3.1-3.992-4.47-6.141a14.369,14.369,0,0,1-1.194-3.444,8.721,8.721,0,0,0-1.935-3.433,4.505,4.505,0,0,0-4.077-1.324,3.876,3.876,0,0,0-2.756,2.827c-.654,2,2.5,2.861,3.153.869Z" transform="translate(-28.267 -21.158)" fill="#211715"/>
    <path id="Path_39" data-name="Path 39" d="M153.586,127.5a31.234,31.234,0,0,0,1.53,6.013,9.069,9.069,0,0,1,.436,5.395,1.635,1.635,0,0,0,3.153.869,11.424,11.424,0,0,0-.245-6.5,34.975,34.975,0,0,1-1.6-5.774,1.681,1.681,0,0,0-1.635-1.635,1.646,1.646,0,0,0-1.635,1.635Z" transform="translate(-28.05 -22.993)" fill="#211715"/>
    <path id="Path_40" data-name="Path 40" d="M150.138,127.216c1.962.339,4.516.6,6.195-.725a3.8,3.8,0,0,0,.11-5.765c-1.77-1.615-4.38-2.063-6.693-2.164a10.269,10.269,0,0,0-6.08,1.261,4.145,4.145,0,0,0-1.189,1.181,3.058,3.058,0,0,0-.347.758c-.051.169-.17,1-.1.5a7.257,7.257,0,0,0,.788,4.137,1.647,1.647,0,0,0,2.237.586,1.675,1.675,0,0,0,.586-2.236,6.637,6.637,0,0,1-.363-1.03c-.02-.082-.087-.47-.076-.341.017.181,0-.071,0-.087.006-.1,0-.2,0-.3,0-.02.023-.266.006-.082-.03.327.2-.654.038-.25-.132.334.193-.271.006.024s.233-.245.011.006.352-.278.116-.1c-.171.129.145-.082.2-.114.118-.068.239-.128.362-.185.163-.082-.036.018-.059.026.095-.034.188-.069.284-.1.176-.057.355-.107.534-.151a7.784,7.784,0,0,1,2.059-.245,13.866,13.866,0,0,1,2.356.138,11.789,11.789,0,0,1,1.336.29,4.919,4.919,0,0,1,1,.37c.143.074.285.153.422.239.087.055.354.271.145.089.118.1.221.214.333.322.13.127-.054-.074-.065-.092a1.41,1.41,0,0,0,.123.2c.153.171-.05-.2.026.082.007.028.054.261.025.063s0,.034,0,.065c-.075.3.007.051.021-.016q-.022.1-.051.2c-.051.177.025-.04.038-.064a1.987,1.987,0,0,1-.145.245c.027-.038.155-.163.023-.052-.215.173.322-.216-.089.073,0,0-.232.119-.1.061s-.133.038-.154.043c-.082.019-.163.034-.245.052-.39.086.182,0-.12.019a11.154,11.154,0,0,1-2.641-.082,1.683,1.683,0,0,0-2.011,1.144,1.647,1.647,0,0,0,1.144,2.011Z" transform="translate(-25.932 -21.655)" fill="#211715"/>
    <path id="Path_41" data-name="Path 41" d="M138.977,147.671a28.011,28.011,0,0,0,5.238,6.486c1.049.956,2.216,1.761,3.281,2.7a13.369,13.369,0,0,1,2.588,3.064c1.1,1.788,3.931.148,2.823-1.65a16.537,16.537,0,0,0-2.786-3.441c-1.039-.968-2.222-1.765-3.287-2.7a24.992,24.992,0,0,1-5.034-6.1,1.636,1.636,0,0,0-2.823,1.65Z" transform="translate(-25.338 -26.53)" fill="#211715"/>
    <path id="Path_42" data-name="Path 42" d="M274.26,98.321c7.92,3.054,14.346-4.045,14.3-10a31.107,31.107,0,0,0-1.711-9.972c-1.409-4.387-4.14-13.3-4.337-29.222a99.637,99.637,0,0,0-.192-13.445c-.615-8.627-4.472-18.26-10.021-23.615a33.944,33.944,0,0,0-11.978-7.875c-3.858-1.487-7.445-2.2-14.215-2.2A39.5,39.5,0,0,0,220.739,11.9c-7.275,6.963-11.886,19.681-11.3,37.218,0,12.78-.972,22-2.335,27.237a65.585,65.585,0,0,0-1.754,13.2c-.05,5.959,5.955,12.5,14.809,10.475Z" transform="translate(-37.503 -0.368)" fill="#957f6e"/>
    <path id="Path_43" data-name="Path 43" d="M283.041,57.182a5.645,5.645,0,0,0-.592-2.274A4,4,0,0,0,279.576,53a4.235,4.235,0,0,0-3.388.991l-1.729,1.564a44.955,44.955,0,0,0-8.788-16.411,12.49,12.49,0,0,0-13.011-3.726c-.362.109-.565.173-.565.173-3.269,1.144-6.6,2.413-9.846,3.8-9.334,3.994-17.881,8.956-21.7,14.6h-1.179A4.233,4.233,0,0,0,215.983,53a4,4,0,0,0-2.875,1.911,5.658,5.658,0,0,0-.592,2.274,16.94,16.94,0,0,0,1.727,8.978,10.753,10.753,0,0,0,2.784,3.653,7.138,7.138,0,0,0,3.319,1.5l1.082.163a28.8,28.8,0,0,0,5.489,10.714,24.47,24.47,0,0,0,8.676,6.866,16.533,16.533,0,0,1-.621,5.931c-.391.966-1.99,2.283-3.955,3.612a101.361,101.361,0,0,0-.235,11.785l1.366.454a68.346,68.346,0,0,0,15.6,2.242c4.974.012,12.054-.774,16.913-2.707l.409-.224c0-3.785-.129-7.564-.461-11.334a14.989,14.989,0,0,1-3.648-3.828c-.705-1.736-.638-4.067-.627-6.054,6.993-3.143,12.593-12.524,13.578-15.2.15-.456.456-1.315.728-2.334l.568-.087a7.141,7.141,0,0,0,3.319-1.5,10.751,10.751,0,0,0,2.783-3.653,16.931,16.931,0,0,0,1.73-8.979Z" transform="translate(-38.802 -6.375)" fill="#fff"/>
    <path id="Path_44" data-name="Path 44" d="M269.028,100.863a30.011,30.011,0,0,0,.125,3.766,7.662,7.662,0,0,0,1.032,3.473c1.432,2.068,3.726,3.553,5.775,4.942a1.635,1.635,0,0,0,1.649-2.823c-.969-.658-1.933-1.334-2.768-2.017-.393-.322-.777-.654-1.144-1.009-.159-.154-.315-.312-.464-.477-.073-.082-.141-.181-.221-.254-.157-.146.182.291-.007-.012-.082-.136-.168-.27-.245-.409s.082.287.017.028c-.033-.136-.091-.267-.129-.4-.072-.251-.13-.505-.178-.762-.028-.146-.054-.293-.074-.44.023.173,0-.057-.008-.106-.108-1.163-.1-2.329-.094-3.5a1.635,1.635,0,0,0-3.269,0Z" transform="translate(-49.131 -18.128)" fill="#211715"/>
    <path id="Path_45" data-name="Path 45" d="M237.341,101.015c.007,1.144,0,2.281-.1,3.422l-.02.177c.016-.113.016-.112,0,0s-.038.23-.059.343a8.145,8.145,0,0,1-.2.826c-.038.128-.1.261-.13.391.018-.082.128-.222.031-.076-.067.1-.372.519-.094.191a19.754,19.754,0,0,1-5,3.833,1.635,1.635,0,0,0,1.649,2.823c1.152-.718,2.289-1.462,3.369-2.289a12.557,12.557,0,0,0,2.616-2.479A6.849,6.849,0,0,0,240.442,105a28.433,28.433,0,0,0,.168-3.992,1.635,1.635,0,1,0-3.269,0Z" transform="translate(-42.182 -18.154)" fill="#211715"/>
    <path id="Path_46" data-name="Path 46" d="M291,58.825a2.527,2.527,0,0,1,3.625.477,5.006,5.006,0,0,1,.49,2.547,14.652,14.652,0,0,1-.21,3.008c-.654,3.579-2.5,7.847-6.474,8.557a1.649,1.649,0,0,0-1.144,2.011,1.67,1.67,0,0,0,2.011,1.144c5.822-1.044,8.595-7.632,9.033-12.908.221-2.662.045-5.763-2.264-7.5a5.9,5.9,0,0,0-7.383.352,1.648,1.648,0,0,0,0,2.312,1.671,1.671,0,0,0,2.312,0Z" transform="translate(-52.457 -10.056)" fill="#211715"/>
    <path id="Path_47" data-name="Path 47" d="M283.348,75.24a16.253,16.253,0,0,1-.955,4.42c-.11.337-.222.671-.351,1,.177-.445-.044.087-.082.169-.062.128-.123.257-.186.384a36.035,36.035,0,0,1-3.17,5.109c-2.762,3.787-6.508,7.8-11.24,8.9-2.043.48-1.181,3.632.87,3.153,5.516-1.291,9.8-5.815,13.047-10.208,2.8-3.8,5.149-8.107,5.339-12.933.082-2.1-3.188-2.1-3.269,0Z" transform="translate(-48.616 -13.458)" fill="#211715"/>
    <path id="Path_48" data-name="Path 48" d="M220.158,56.512a5.9,5.9,0,0,0-7.382-.352c-2.31,1.731-2.486,4.838-2.265,7.5.438,5.276,3.211,11.864,9.034,12.908a1.68,1.68,0,0,0,2.011-1.144,1.649,1.649,0,0,0-1.144-2.011c-3.971-.712-5.821-4.978-6.474-8.557a14.525,14.525,0,0,1-.213-2.843,5.729,5.729,0,0,1,.427-2.6,2.516,2.516,0,0,1,3.695-.589,1.68,1.68,0,0,0,2.312,0,1.648,1.648,0,0,0,0-2.312Z" transform="translate(-38.433 -10.055)" fill="#211715"/>
    <path id="Path_49" data-name="Path 49" d="M220.377,74.75a32.673,32.673,0,0,0,6.935,15.635c3.9,4.623,9.073,8.01,15.167,8.659a1.646,1.646,0,0,0,1.635-1.635,1.672,1.672,0,0,0-1.635-1.635c-5.324-.572-9.776-3.953-13.085-7.978a29.7,29.7,0,0,1-5.865-13.917,1.648,1.648,0,0,0-2.011-1.144,1.672,1.672,0,0,0-1.144,2.011Z" transform="translate(-40.238 -13.279)" fill="#211715"/>
    <path id="Path_50" data-name="Path 50" d="M219.356,98.087a10.667,10.667,0,0,1-10.4-3.012,9.287,9.287,0,0,1-2.146-4.106,17.3,17.3,0,0,1,.008-5.409,105.379,105.379,0,0,1,1.99-11.312,90.05,90.05,0,0,0,1.4-10.974A151.871,151.871,0,0,0,210.684,48a72,72,0,0,1,.981-14.509c1.3-7.233,3.917-14.643,9.1-20.036a31.661,31.661,0,0,1,8.65-6.118,37.225,37.225,0,0,1,13.462-3.961c8.637-.747,17.328.959,24.3,6.309a30.558,30.558,0,0,1,7.9,8.77,40.233,40.233,0,0,1,4.765,13.125,70.673,70.673,0,0,1,.826,11.922c.02,2.344-.187,4.681-.128,7.022.064,2.564.2,5.127.418,7.683a90.258,90.258,0,0,0,3.662,19.314,47.358,47.358,0,0,1,1.519,5.659,16.7,16.7,0,0,1,.245,6.4,9.713,9.713,0,0,1-6.512,7.163,8.741,8.741,0,0,1-5.545-.365c-1.976-.732-2.829,2.428-.869,3.153a11.77,11.77,0,0,0,12.207-2.461,13.547,13.547,0,0,0,3.375-5.017,14.01,14.01,0,0,0,.7-6.272c-.285-3.85-1.495-7.4-2.554-11.076a80.189,80.189,0,0,1-2.078-9.32,108.88,108.88,0,0,1-1.291-14.66c-.066-2.514.15-5.021.12-7.538-.027-2.186-.124-4.371-.262-6.554-.584-9.253-3.651-19.213-10.387-25.9a36.683,36.683,0,0,0-10.523-7.51A35.474,35.474,0,0,0,250.5.137a42.818,42.818,0,0,0-15.841,1.574,42.1,42.1,0,0,0-12.349,6.12c-6.19,4.526-10.059,11.2-12.281,18.449A62.783,62.783,0,0,0,207.558,40.5c-.373,5.621-.061,11.269-.284,16.9a119.309,119.309,0,0,1-1.1,12.969c-.553,3.69-1.6,7.27-2.125,10.965-.6,4.15-1.4,8.668.345,12.638a13.083,13.083,0,0,0,8.968,7.338,15.687,15.687,0,0,0,6.859-.069c2.055-.446,1.185-3.6-.869-3.153Z" transform="translate(-37.137)" fill="#211715"/>
    <path id="Path_51" data-name="Path 51" d="M255.462,33.2a74.679,74.679,0,0,0-16.1,5.644,63.794,63.794,0,0,0-13.827,8.656,27.282,27.282,0,0,0-4.972,5.351c-1.193,1.739,1.635,3.376,2.823,1.65,3.234-4.711,8.613-8.039,13.524-10.737a72.627,72.627,0,0,1,19.417-7.413c2.055-.447,1.185-3.6-.87-3.153Z" transform="translate(-40.23 -6.06)" fill="#211715"/>
    <path id="Path_52" data-name="Path 52" d="M259.507,29.338c11.251,4.2,18.505,14.162,21.865,25.372.6,2.01,3.76,1.153,3.153-.87-2.748-9.174-7.871-17.691-15.778-23.3a36.471,36.471,0,0,0-8.371-4.354C258.4,25.45,257.551,28.606,259.507,29.338Z" transform="translate(-47.192 -4.767)" fill="#211715"/>
    <path id="Path_53" data-name="Path 53" d="M176.194,156.139q.564,1.364,1.137,2.735c4.688-11.654,5.212-17.687,9.436-28.715a14.958,14.958,0,0,1,3.114-5.082c1.339-1.434,3.413-1.835,5.18-2.688,5.742-2.773,14.962-5.256,20.554-8.249l.554-.3c1.308-1.376,2.638-2.667,3.923-3.778-1.262,11.852.089,21.425.759,33,.327,5.546,1.08,18.263,1.08,31.211a192.853,192.853,0,0,1-2.758,32.648,49.794,49.794,0,0,1-1.858,6.719h-20.2c1.553-11.48,3.368-27.089,3.368-29.563q0-.929-.041-1.87c-2.432,2.974-6.885,9.2-10.89,12.127a17.235,17.235,0,0,1-14.9,2.737c-6.749-1.776-10.594-7.731-13.4-14.12-4.042-9.2-6.919-19.074-9.787-28.256,5.753-1.247,14.923-5.447,20.679-8.479C173.554,149.681,174.86,152.908,176.194,156.139Z" transform="translate(-27.662 -20.106)" fill="#fff"/>
    <path id="Path_54" data-name="Path 54" d="M240.576,128.641a63.873,63.873,0,0,0,11.326,1.264c4.975.012,12.054-.774,16.913-2.706l.424-.163c0,6.375-.369,12.76-.736,19.126-.327,5.546-1.08,18.263-1.08,31.211a187.6,187.6,0,0,0,1.389,23.213h-.136c-5.987,0-27.473.466-32.227.466h-.686a186.837,186.837,0,0,0,1.452-23.676c0-12.948-.755-25.665-1.08-31.211-.363-6.266-.8-12.51-.931-18.777l1.09.275C237.6,128.012,239.054,128.344,240.576,128.641Z" transform="translate(-42.956 -23.206)" fill="#79c6e0"/>
    <path id="Path_55" data-name="Path 55" d="M299.453,213.2c-1.52-11.386-3.382-26.81-3.382-29.253a64.592,64.592,0,0,1,1.982-14.678c.772-3.292,1.553-7.381,2.3-11.829h20c-3.985-10.405-4.684-16.374-8.67-26.779a14.979,14.979,0,0,0-3.122-5.095c-1.341-1.439-3.421-1.84-5.192-2.7-5.757-2.779-16.463-5.776-22.069-8.778,0,0-.034-.018-.1-.055a53.47,53.47,0,0,0-5.537-4.706c1.328,11.145.679,22.4.042,33.6-.327,5.546-1.08,18.263-1.08,31.211a194.124,194.124,0,0,0,2.747,32.648c.245,1.153.971,5.1,1.349,6.424Z" transform="translate(-50.156 -19.972)" fill="#fff"/>
    <path id="Path_56" data-name="Path 56" d="M235.756,128.911a63.173,63.173,0,0,0,16.883,2.294,47.886,47.886,0,0,0,16.5-2.759,1.683,1.683,0,0,0,1.144-2.011,1.645,1.645,0,0,0-2.011-1.144,45.125,45.125,0,0,1-15.631,2.643,59.808,59.808,0,0,1-16.013-2.177c-2.036-.539-2.9,2.616-.87,3.153Z" transform="translate(-42.845 -22.877)" fill="#211715"/>
    <path id="Path_57" data-name="Path 57" d="M220.379,113.277a82.3,82.3,0,0,1-10.76,4.377c-1.91.687-3.823,1.372-5.711,2.116-1.732.683-3.4,1.521-5.131,2.2a11.369,11.369,0,0,0-5.027,3.144,19.324,19.324,0,0,0-3.188,5.726c-1.511,4.005-2.761,8.084-3.938,12.194-1.348,4.7-2.751,9.378-4.5,13.953A1.648,1.648,0,0,0,183.273,159a1.671,1.671,0,0,0,2.011-1.144c2.949-7.736,4.764-15.817,7.511-23.617a25.788,25.788,0,0,1,2.626-5.954,8.01,8.01,0,0,1,1.73-1.975,10.355,10.355,0,0,1,2.494-1.188c1.64-.639,3.212-1.434,4.848-2.085,1.828-.728,3.678-1.4,5.53-2.062a91.976,91.976,0,0,0,12.006-4.873c1.86-.981.21-3.808-1.65-2.823Z" transform="translate(-33.252 -20.655)" fill="#211715"/>
    <path id="Path_58" data-name="Path 58" d="M183.345,177.191c-3.528-7.813-6.755-15.751-9.989-23.688a1.667,1.667,0,0,0-2.4-.977c-3.329,1.749-6.729,3.373-10.19,4.845a58.356,58.356,0,0,1-10.1,3.469,1.649,1.649,0,0,0-1.144,2.011c1.868,5.989,3.668,12,5.749,17.922,1.888,5.371,3.854,10.924,6.8,15.826,2.553,4.25,6.111,7.937,10.92,9.515a19.112,19.112,0,0,0,15.751-1.8c4.882-2.972,8.311-7.952,11.792-12.359a1.687,1.687,0,0,0,0-2.312,1.645,1.645,0,0,0-2.312,0c-2.938,3.717-5.786,7.777-9.527,10.744a15.839,15.839,0,0,1-13.61,2.916c-4.357-1.063-7.555-4.138-9.881-7.852-2.861-4.566-4.725-9.779-6.523-14.83-2.189-6.153-4.06-12.412-6-18.644l-1.139,2.013a61.547,61.547,0,0,0,10.579-3.672q5.344-2.264,10.488-4.971l-2.4-.977c3.341,8.2,6.675,16.4,10.319,24.468a1.646,1.646,0,0,0,2.236.587,1.672,1.672,0,0,0,.586-2.236Z" transform="translate(-27.297 -27.823)" fill="#211715"/>
    <path id="Path_59" data-name="Path 59" d="M282.515,116.683c6.719,3.322,14.1,5.024,20.883,8.189,1.626.759,3.725,1.207,5.078,2.428a13.379,13.379,0,0,1,3.21,5.338c1.5,4.005,2.743,8.085,3.918,12.193,1.335,4.666,2.732,9.3,4.46,13.838a1.682,1.682,0,0,0,2.012,1.144,1.648,1.648,0,0,0,1.144-2.011c-3.158-8.288-5.045-16.973-8.105-25.292a22.022,22.022,0,0,0-2.965-5.937,10.953,10.953,0,0,0-5.171-3.7c-1.7-.658-3.328-1.465-5.016-2.143-1.8-.723-3.625-1.39-5.45-2.043a117.292,117.292,0,0,1-12.342-4.822c-1.88-.929-3.538,1.89-1.65,2.823Z" transform="translate(-51.445 -20.766)" fill="#211715"/>
    <path id="Path_60" data-name="Path 60" d="M198.9,127.575c1.144,12.08,2.743,24.157,4.871,36.1,1.093,6.13,2.849,12.193,3.484,18.4a61.06,61.06,0,0,1-.479,13.1q-1.148,10.482-2.568,20.933a1.694,1.694,0,0,0,1.144,2.012,1.647,1.647,0,0,0,2.012-1.144q1.291-9.574,2.39-19.174c.472-4.141,1.166-8.373,1-12.552-.261-6.648-2.055-13.033-3.293-19.535-1.162-6.1-2.1-12.242-2.954-18.391-.911-6.567-1.712-13.153-2.337-19.754a1.68,1.68,0,0,0-1.635-1.635,1.646,1.646,0,0,0-1.635,1.635Z" transform="translate(-36.325 -23.005)" fill="#211715"/>
    <path id="Path_61" data-name="Path 61" d="M232.884,111.135a131.828,131.828,0,0,0,.153,21.489c.422,5.858.826,11.714,1.125,17.579.7,13.741,1.161,27.571-.082,41.293-.572,6.273-1.189,12.76-2.9,18.839a1.636,1.636,0,0,0,3.153.869,102.632,102.632,0,0,0,2.741-16.924,190.881,190.881,0,0,0,1.039-20.1c0-12.863-.631-25.74-1.583-38.566-.606-8.161-1.117-16.308-.373-24.479a1.646,1.646,0,0,0-1.635-1.635,1.67,1.67,0,0,0-1.635,1.635Z" transform="translate(-42.208 -20.003)" fill="#211715"/>
    <path id="Path_62" data-name="Path 62" d="M228.164,165.485c-2.173-6.412-4.144-12.89-6.212-19.336-.454-1.413-.922-2.822-1.377-4.236-.211-.654-.414-1.314-.572-1.983a7.192,7.192,0,0,1-.179-.9c-.009-.082.056-.774-.03-.36a8.6,8.6,0,0,1,1.622-2.723,33.075,33.075,0,0,1,2.733-3.18,1.659,1.659,0,0,0,0-2.312,36.1,36.1,0,0,1-2.71-2.836q-.674-.792-1.295-1.627c-.319-.427-.174-.221.163-.7,1.206-1.71,2.495-3.364,3.816-4.986a72,72,0,0,1,9.821-10.261c1.626-1.337-.7-3.639-2.312-2.312a75.42,75.42,0,0,0-10.993,11.722c-.768.974-1.524,1.958-2.262,2.956-.709.958-1.69,2.007-1.725,3.26-.041,1.466,1.144,2.65,2.015,3.714a36.151,36.151,0,0,0,3.167,3.385v-2.312a39.514,39.514,0,0,0-3.061,3.6,12.7,12.7,0,0,0-2.034,3.427A6.784,6.784,0,0,0,217,141.39c.392,1.439.9,2.849,1.359,4.267,2.231,6.9,4.328,13.836,6.653,20.7.672,1.981,3.831,1.131,3.153-.87Z" transform="translate(-39.552 -19.607)" fill="#211715"/>
    <path id="Path_63" data-name="Path 63" d="M236.383,218.765c8.772,0,17.546-.282,26.319-.409,1.97-.029,3.941-.058,5.91-.059a1.636,1.636,0,0,0,0-3.269c-8.985,0-17.971.271-26.955.409-1.757.026-3.515.057-5.272.058a1.636,1.636,0,0,0,0,3.269Z" transform="translate(-42.883 -39.276)" fill="#211715"/>
    <path id="Path_64" data-name="Path 64" d="M305.531,216.234q-1.265-9.481-2.379-18.987c-.481-4.138-1.156-8.337-.946-12.516.327-6.439,2.125-12.646,3.307-18.954,1.138-6.093,2.066-12.225,2.908-18.365.9-6.6,1.716-13.206,2.345-19.834a1.646,1.646,0,0,0-1.635-1.635,1.67,1.67,0,0,0-1.635,1.635c-1.134,11.98-2.72,23.957-4.856,35.8-1.125,6.239-2.852,12.382-3.5,18.7a60.224,60.224,0,0,0,.5,13.112c.792,7.025,1.68,14.04,2.616,21.047a1.689,1.689,0,0,0,1.635,1.635c.792,0,1.752-.754,1.635-1.635Z" transform="translate(-54.599 -23.006)" fill="#211715"/>
    <path id="Path_65" data-name="Path 65" d="M280.626,114.924a52.278,52.278,0,0,1,6.555,7.356c.505.7,1,1.406,1.5,2.112l.864,1.226c.122.174.792,1.09.8.918-.007.261-.7.933-.859,1.133-.333.418-.679.828-1.032,1.226-.747.848-1.537,1.656-2.36,2.432a1.659,1.659,0,0,0,0,2.312,43.149,43.149,0,0,1,3.52,3.842,7.883,7.883,0,0,1,.633.951c.082.142.206.409.2.382a8.138,8.138,0,0,1-.3,1.692c-.741,3.315-1.937,6.548-2.943,9.791-.624,2.015,2.534,2.876,3.153.869a94.175,94.175,0,0,0,3.158-10.846,5.117,5.117,0,0,0-.995-4.379,43.36,43.36,0,0,0-4.111-4.618v2.312a36.542,36.542,0,0,0,2.71-2.837,14.2,14.2,0,0,0,2.194-2.952,3.291,3.291,0,0,0-.629-3.447q-1.014-1.447-2.034-2.889a59.655,59.655,0,0,0-7.7-8.909c-1.527-1.447-3.842.862-2.312,2.312Z" transform="translate(-51.159 -20.486)" fill="#211715"/>
    <path id="Path_66" data-name="Path 66" d="M273.665,108.966c1.595,13.628.327,27.34-.368,40.984-.7,13.851-1.152,27.791.137,41.619.3,3.225.691,6.44,1.144,9.645a71.029,71.029,0,0,0,1.768,9.388,1.636,1.636,0,0,0,3.153-.869,97.486,97.486,0,0,1-2.611-16.311,193.274,193.274,0,0,1-.988-20.252c.023-12.833.889-25.606,1.5-38.412a157.468,157.468,0,0,0-.463-25.794,1.685,1.685,0,0,0-1.635-1.635,1.645,1.645,0,0,0-1.635,1.635Z" transform="translate(-49.788 -19.607)" fill="#211715"/>
    <path id="Path_67" data-name="Path 67" d="M317.347,191.64c3.125-2.783,14.467-13.316,17.117-15.967a18.7,18.7,0,0,0-11.322-4.9,38.277,38.277,0,0,0-12.821.683c-4.24,1.063-9.732,3.678-12.674,7.052-3.6-3.433-8.929-4.952-13.757-5.11a35.4,35.4,0,0,0-14.288,2.564,15.607,15.607,0,0,0-8.718,7.515c2.829,2.473,15.523,11.577,18.467,13.913Z" transform="translate(-47.646 -31.146)" fill="#3f88c9"/>
    <path id="Path_68" data-name="Path 68" d="M259.638,174.6a19.693,19.693,0,0,0-2.012,2.213,38.049,38.049,0,0,0,3.45,3.188l.338.251a16.049,16.049,0,0,1,7.593-5.666,35.4,35.4,0,0,1,14.288-2.564c4.828.159,10.157,1.676,13.757,5.11,2.943-3.375,8.434-5.993,12.674-7.052a38.276,38.276,0,0,1,12.821-.682,20.751,20.751,0,0,1,7.4,2.111l.1-.1c.75-.713,2.25-2.213,3.525-3.563-4.613-3.488-7.2-4.005-12.639-4.538a39.456,39.456,0,0,0-12.889.472c-4.047,1.01-9.236,2.7-12.113,5.9a23.569,23.569,0,0,0-12.634-3.736,35.392,35.392,0,0,0-14.288,2.565,25.5,25.5,0,0,0-5.868,3.126A40.406,40.406,0,0,0,259.638,174.6Z" transform="translate(-47.051 -29.776)" fill="#fff"/>
    <path id="Path_69" data-name="Path 69" d="M308.823,186.991c-.171-.138-.343-.274-.517-.409-2.218-1.716-3.827-1.981-6.107-.708l-1.226,1.063c-.933-.989-1.723-1.809-2.061-2.1a3.808,3.808,0,0,0-3.654-.817c-1.441.536-2.043,1.324-2.043,2.534,0,0-.059.436-.137,1.026-.764-.808-1.452-1.5-1.977-1.976-.444-.4-2.61-1.466-4.051-.383a2.339,2.339,0,0,0-.732,3.356,4.269,4.269,0,0,1,.211.4l-.322-.169a3.281,3.281,0,0,0-4.64,1.672,4.708,4.708,0,0,0,.372,3.081c.933,1.8,5.013,6.333,7.215,8.659,5.046,3.569,13.1,1.084,19.545-.415a8.528,8.528,0,0,0,2.555-1.1c2.412-1.675,3.654-3.732,5.624-5.909a15.3,15.3,0,0,0,2.212-2.682,5.676,5.676,0,0,0,.817-3.978,2.994,2.994,0,0,0-1.127-1.788,3.629,3.629,0,0,0-3.307.1,16.461,16.461,0,0,0-4.381,2.651A20.477,20.477,0,0,0,308.823,186.991Z" transform="translate(-51.403 -33.583)" fill="#fff"/>
    <path id="Path_70" data-name="Path 70" d="M311.876,202.673a13.919,13.919,0,0,1-4.664,1.533c-1.844.445-3.692.881-5.563,1.2-3.241.549-6.9.817-9.83-.949-1.806-1.09-3.451,1.736-1.649,2.823,3.528,2.125,7.758,1.986,11.688,1.385,2.043-.312,4.055-.783,6.062-1.266,1.9-.459,3.948-.783,5.6-1.9,1.734-1.171.1-4.005-1.65-2.823Z" transform="translate(-52.852 -36.968)" fill="#211715"/>
    <path id="Path_71" data-name="Path 71" d="M317.715,189.322a19.36,19.36,0,0,0-5.4-4.992,6.432,6.432,0,0,0-3.229-.981,7.183,7.183,0,0,0-3.44,1.018,1.649,1.649,0,0,0-.587,2.236,1.669,1.669,0,0,0,2.237.587c.1-.056.2-.111.306-.163.033-.016.409-.2.25-.126-.133.06.139-.052.163-.062.093-.034.187-.065.282-.092a4.7,4.7,0,0,1,.618-.141c-.351.055.105.011.233.014.047,0,.422.024.178,0-.217-.019.068.016.111.025a4.084,4.084,0,0,1,.528.15c.122.042.284.125.082.025.091.044.182.087.271.134.215.113.424.238.628.369a15.554,15.554,0,0,1,2.1,1.675q.53.483,1.022,1.006.231.245.45.5.137.159.271.327c.2.24-.218-.3.108.137a1.677,1.677,0,0,0,2.236.586,1.651,1.651,0,0,0,.586-2.236Z" transform="translate(-55.673 -33.49)" fill="#211715"/>
    <path id="Path_72" data-name="Path 72" d="M309.174,190.495c-1.544-1.452-2.927-3.1-4.376-4.645-.719-.767-1.433-1.544-2.189-2.275a5.73,5.73,0,0,0-4.938-1.645,4.438,4.438,0,0,0-3.829,4.25c-.047,2.1,3.222,2.1,3.269,0a2.923,2.923,0,0,1,.014-.3c-.028.193-.022.2.016.011q.089-.268-.024.006a1.916,1.916,0,0,1,.132-.236c-.171.291.126-.121.217-.192-.233.181.3-.151.357-.179a1.846,1.846,0,0,1,1.709.047,9.583,9.583,0,0,1,2.3,2.136c1.673,1.769,3.255,3.668,5.028,5.338a1.635,1.635,0,1,0,2.312-2.312Z" transform="translate(-53.665 -33.22)" fill="#211715"/>
    <path id="Path_73" data-name="Path 73" d="M280.145,195.862c-3.065-2.424-6.261-4.69-9.4-7.011-3.095-2.289-6.233-4.445-9.063-6.9l.256,1.981a13.993,13.993,0,0,1,6.005-5.958,31.148,31.148,0,0,1,9.872-3.014c6.234-.906,13.518-.147,18.318,4.332a1.655,1.655,0,0,0,2.311,0c4.026-4.516,10.626-6.905,16.528-7.373,6.067-.481,13.427-.06,17.982,4.542v-2.312c-5.513,5.5-11.306,10.784-17.117,15.967-1.574,1.4.745,3.709,2.312,2.312,5.812-5.183,11.607-10.466,17.117-15.967a1.66,1.66,0,0,0,0-2.312c-5.172-5.231-13.329-6.053-20.29-5.5-6.737.535-14.231,3.162-18.84,8.331h2.312c-4.2-3.918-10.017-5.545-15.661-5.6-5.932-.064-12.506,1.264-17.609,4.414a16.906,16.906,0,0,0-6.061,6.5,1.665,1.665,0,0,0,.256,1.981c2.943,2.554,6.187,4.8,9.318,7.111q2.764,2.043,5.534,4.087,1.1.817,2.207,1.64l.881.666c.061.047.535.409.189.142l.342.268a1.686,1.686,0,0,0,2.312,0,1.645,1.645,0,0,0,0-2.312Z" transform="translate(-47.284 -30.779)" fill="#211715"/>
    <path id="Path_74" data-name="Path 74" d="M261.544,178.228c.334.256-.05-.048-.117-.106-.15-.132-.3-.262-.454-.394q-.527-.463-1.041-.942a14.745,14.745,0,0,1-1.507-1.49v2.312c4.25-5.449,10.645-8.556,17.321-9.839,6.294-1.209,13.585-.776,19,2.964a1.644,1.644,0,0,0,1.981-.256c2.111-2.284,5.068-3.564,7.975-4.509a32.538,32.538,0,0,1,10.125-1.685,48.66,48.66,0,0,1,9.981.88,19.1,19.1,0,0,1,7.579,3.736l-.327-2.567c-1.15,1.212-2.318,2.409-3.525,3.563-1.524,1.457.79,3.766,2.311,2.312,1.207-1.154,2.376-2.351,3.525-3.563a1.665,1.665,0,0,0-.327-2.567,22.354,22.354,0,0,0-6.638-3.62,35.36,35.36,0,0,0-7.52-1.206,39.361,39.361,0,0,0-17.666,2.132,19.933,19.933,0,0,0-7.8,4.782l1.981-.256c-6.038-4.169-14.14-4.632-21.152-3.362-7.275,1.318-14.511,4.822-19.131,10.748a1.705,1.705,0,0,0,0,2.312,22.125,22.125,0,0,0,3.781,3.444,1.644,1.644,0,0,0,2.236-.587,1.676,1.676,0,0,0-.586-2.236Z" transform="translate(-46.693 -29.413)" fill="#211715"/>
    <path id="Path_75" data-name="Path 75" d="M286.667,188.043a4.963,4.963,0,0,0-5.361.373,4.472,4.472,0,0,0-1.844,3.914,7.388,7.388,0,0,0,1.674,4.176c.953,1.279,1.98,2.5,3.029,3.7q1.685,1.93,3.447,3.792c1.448,1.533,3.76-.782,2.312-2.312q-1.627-1.721-3.188-3.5-.878-1-1.726-2.018-.39-.472-.77-.952c-.205-.259.07.1-.139-.179-.1-.139-.209-.278-.311-.419a7.918,7.918,0,0,1-.817-1.258,2.894,2.894,0,0,1-.24-1.226c0-.056.028-.567-.008-.277.007-.055.137-.561.038-.268s.088-.123.114-.179c.135-.288-.2.172.054-.07a5.159,5.159,0,0,1,.409-.391c-.225.173.112-.051.172-.088.29-.177-.111.006.195-.095a2.92,2.92,0,0,1,.321-.087q-.231.014.082-.007a1.6,1.6,0,0,1,.915.2,1.677,1.677,0,0,0,2.237-.586,1.651,1.651,0,0,0-.587-2.237Z" transform="translate(-51.037 -34.236)" fill="#211715"/>
    <path id="Path_76" data-name="Path 76" d="M300.679,192.635c-1.452-1.573-2.867-3.179-4.311-4.759-.714-.781-1.431-1.558-2.168-2.316a11.026,11.026,0,0,0-1.88-1.707c-2.25-1.427-5.386-1.184-6.859,1.216a3.9,3.9,0,0,0-.105,3.852,18.33,18.33,0,0,0,2.252,3.071,53.677,53.677,0,0,0,4.078,4.426c1.5,1.477,3.815-.834,2.311-2.312-1.135-1.117-2.267-2.236-3.287-3.462-.523-.627-1.032-1.265-1.553-1.9a7.8,7.8,0,0,1-.8-1.166c-.044-.078-.094-.152-.136-.231-.131-.245.048.173-.031-.082-.012-.039-.082-.371-.047-.181.033.171.039-.265-.007.015a1.454,1.454,0,0,1,.088-.314c-.094.216.045-.048.062-.067-.121.13.087-.1.087-.105a2.743,2.743,0,0,1,.293-.275c-.092.075.32-.154.144-.071-.062.029-.227.1.1-.024.042-.015.311-.045.075-.023a3.094,3.094,0,0,1,.427,0c.28.012-.2-.047.068.007.082.016.163.033.245.053a5,5,0,0,1,.6.192c-.3-.115.126.07.212.119.058.033.119.082.181.109.253.124-.233-.245-.1-.077.454.572,1.094,1.057,1.6,1.585.644.673,1.275,1.357,1.9,2.043,1.422,1.558,2.817,3.141,4.25,4.692a1.635,1.635,0,1,0,2.312-2.312Z" transform="translate(-52.032 -33.422)" fill="#211715"/>
    <path id="Path_77" data-name="Path 77" d="M319.257,189.8a17.355,17.355,0,0,1,2.634-1.533,3.476,3.476,0,0,1,2.135-.526c.444.143.613.837.654,1.261a4.7,4.7,0,0,1-.8,2.558,10.517,10.517,0,0,1-1.519,1.809c-.624.667-1.212,1.364-1.791,2.07a20.746,20.746,0,0,1-3.847,3.954,1.68,1.68,0,0,0-.587,2.236,1.65,1.65,0,0,0,2.237.587,28.329,28.329,0,0,0,5.127-5.213c.7-.827,1.465-1.59,2.168-2.41A10.028,10.028,0,0,0,327.6,191.2c.817-2.432.089-5.837-2.7-6.6-2.484-.681-5.337,1.009-7.29,2.38a1.679,1.679,0,0,0-.587,2.236,1.649,1.649,0,0,0,2.232.586Z" transform="translate(-57.699 -33.691)" fill="#211715"/>
    <path id="Path_78" data-name="Path 78" d="M249.028,85.741a11.576,11.576,0,0,0,5.576,1.295,9.118,9.118,0,0,0,5.669-1.69,1.635,1.635,0,0,0,0-2.312,1.684,1.684,0,0,0-2.312,0c.507-.395.159-.125.029-.042-.11.07-.223.136-.338.2-.152.082-.53.169-.073.05-.157.041-.311.119-.466.169a8.828,8.828,0,0,1-1.308.3c.245-.039.087-.012-.067,0-.128.012-.257.023-.385.031-.309.02-.619.028-.928.026q-.415,0-.83-.03c-.128-.008-.254-.019-.381-.031-.057-.006-.521-.087-.127-.012a12.137,12.137,0,0,1-1.219-.271c-.171-.052-.338-.113-.506-.17-.4-.136.292.145-.068-.025-.209-.1-.415-.2-.62-.309a1.635,1.635,0,1,0-1.65,2.823Z" transform="translate(-45.332 -15.086)" fill="#211715"/>
    <path id="Path_79" data-name="Path 79" d="M254.685,70.069a25.965,25.965,0,0,1,.6,2.763l-.059-.434a1.652,1.652,0,0,1,.011.381l.058-.434a.973.973,0,0,1-.042.172l.163-.391a.729.729,0,0,1-.061.11l.256-.331a.619.619,0,0,1-.09.089l.331-.256a1.868,1.868,0,0,1-.219.116l.391-.163a1.583,1.583,0,0,1-.369.108l.435-.059a1.489,1.489,0,0,1-.347,0l.435.058c-.131-.018-.258-.05-.389-.068a1.238,1.238,0,0,0-.654-.029,1.215,1.215,0,0,0-.607.194,1.635,1.635,0,0,0-.587,2.236,1.566,1.566,0,0,0,.981.752c.316.043.624.122.946.136a3.059,3.059,0,0,0,1.418-.341,2.1,2.1,0,0,0,1.144-1.376,3.368,3.368,0,0,0-.013-1.457c-.15-.89-.356-1.772-.585-2.645a1.635,1.635,0,0,0-2.011-1.144,1.665,1.665,0,0,0-1.144,2.011Z" transform="translate(-46.337 -12.424)" fill="#211715"/>
    <path id="Path_80" data-name="Path 80" d="M237.241,60.386c-.461,1.5-.163,4.948,2.68,5.242,3.754-.022,3.954-4.192,2.69-6.153C241.576,57.869,238.534,57.2,237.241,60.386Z" transform="translate(-43.295 -10.622)" fill="#211715"/>
    <path id="Path_81" data-name="Path 81" d="M272.706,60.386c.462,1.5.163,4.948-2.679,5.242-3.754-.023-3.954-4.192-2.691-6.153C268.371,57.869,271.413,57.2,272.706,60.386Z" transform="translate(-48.696 -10.622)" fill="#211715"/>
    <path id="Path_82" data-name="Path 82" d="M7.049,239.7a15.121,15.121,0,0,1-4.468-10.716c-.008-3.792-.018-8.145.013-12.943,21.365,0,274.292-.245,278.525-.483l.3-.006c.021,4.888.024,9.329.025,13.2a15.152,15.152,0,0,1-15.135,15.162c-49.67.086-200.086.39-248.622.2A15.109,15.109,0,0,1,7.049,239.7Z" transform="translate(-0.47 -39.373)" fill="#fff"/>
    <path id="Path_83" data-name="Path 83" d="M2.27,217.316q6.212,0,12.417-.007l22.968-.02,30.846-.03,36.046-.04q19.355-.022,38.711-.048,19.2-.026,38.4-.056,17.779-.029,35.556-.061,15.018-.029,30.037-.065,10.918-.028,21.838-.069c3.654-.016,7.308-.01,10.962-.07.24,0,.481,0,.72-.017,2.092-.114,2.106-3.385,0-3.269-2.621.143-5.273.057-7.9.07q-9.714.047-19.427.069-14.14.039-28.281.066-17.228.035-34.456.062-19.05.032-38.1.057-19.386.027-38.774.051l-36.907.042q-16.184.019-32.364.034l-25.141.021-15.244.01H2.27a1.636,1.636,0,0,0,0,3.269Z" transform="translate(-0.126 -39.008)" fill="#211715"/>
    <path id="Path_84" data-name="Path 84" d="M176.991,232.335a4.885,4.885,0,0,1-5.18,4.947c-3.491,0-5.292-2.386-5.292-4.949a5.019,5.019,0,0,1,5.089-5.09,5.3,5.3,0,0,1,5.383,5.092Z" transform="translate(-30.411 -41.507)" fill="#211715"/>
    <path id="Path_85" data-name="Path 85" d="M199.341,19.677l-69.47,0H118.24a1.636,1.636,0,0,0,0,3.269q29.521,0,59.043,0h22.058A1.636,1.636,0,0,0,199.341,19.677Z" transform="translate(-21.306 -3.598)" fill="#211715"/>
    <path id="Path_86" data-name="Path 86" d="M335.78,138.126q-.022-35.119-.045-70.238l-.017-27.432a52.957,52.957,0,0,0-.1-5.722,16.746,16.746,0,0,0-12.632-14.577c-3.722-.914-7.857-.5-11.662-.5H292.906a1.636,1.636,0,0,0,0,3.269c8.671,0,17.346-.076,26.017,0a13.493,13.493,0,0,1,13.265,10.86,28.4,28.4,0,0,1,.26,5.74q.017,29.5.037,59,.014,19.8.025,39.6A1.636,1.636,0,0,0,335.78,138.126Z" transform="translate(-53.205 -3.579)" fill="#211715"/>
    <path id="Path_87" data-name="Path 87" d="M99.6,19.644l-78.059-.012c-4.943,0-9.7-.082-13.977,2.817A17.005,17.005,0,0,0,.087,36.068C-.127,44.536.118,53.036.138,61.5Q.22,93.92.307,126.339q.082,29.746.154,59.49c.009,4.026-.451,8.419.761,12.3a17.018,17.018,0,0,0,10.712,10.974c3.413,1.165,7.126.875,10.681.885q4.746.014,9.492.02,25,.042,50.009.017,30.6-.014,61.2-.057,30.392-.038,60.785-.092,24.658-.042,49.315-.087l9.246-.016c4.436-.008,8.645-.245,12.46-2.826a16.992,16.992,0,0,0,7.458-13.2c.306-6.1.014-12.29.011-18.4q0-10.662-.011-21.324a1.636,1.636,0,0,0-3.269,0l.012,21.819c0,5.83.163,11.688,0,17.515a13.65,13.65,0,0,1-8.087,12.015c-3.336,1.471-7.056,1.126-10.613,1.132l-44.874.082q-29.012.05-58.023.092-30.369.043-60.737.067-26.454.02-52.909.007-10.112-.009-20.225-.032c-3.065-.008-6.444.342-9.445-.32a13.664,13.664,0,0,1-10.242-9.862,24.848,24.848,0,0,1-.43-6.254l-.012-5.565q-.015-6.187-.03-12.373-.038-14.8-.078-29.608L3.447,77.623q-.034-14.288-.068-28.569-.014-5.8-.025-11.594c-.01-5.05,1.9-9.723,6.324-12.487C13.786,22.406,18.521,22.9,23.15,22.9H38.885l40.139.007H99.6a1.636,1.636,0,0,0,0-3.269Z" transform="translate(0 -3.591)" fill="#211715"/>
  </g>
</svg>
