<svg xmlns="http://www.w3.org/2000/svg" width="284" height="284" viewBox="0 0 284 284">
  <g id="on_boarding_two" data-name="on boarding two" transform="translate(0 -0.001)">
    <path id="Path_1" data-name="Path 1" d="M386.63,8.171H368.749V109.2L391.762,97.28V13.3A5.127,5.127,0,0,0,386.63,8.171Z" transform="translate(-163.96 -3.7)" fill="#ffcd60"/>
    <path id="Path_2" data-name="Path 2" d="M205.462,8.171H37.531A5.127,5.127,0,0,0,32.4,13.3V31.179L8.17,43.3,32.4,55.414V97.28L50.281,109.2H210.594V13.3A5.128,5.128,0,0,0,205.462,8.171Z" transform="translate(-3.7 -3.7)" fill="#ffdb8a"/>
    <path id="Path_3" data-name="Path 3" d="M373.881,168.852l-5.132,35.763H386.63a5.128,5.128,0,0,0,5.132-5.132V168.853H373.881Z" transform="translate(-163.96 -75.005)" fill="#27467a"/>
    <path id="Path_4" data-name="Path 4" d="M52.453,168.852v30.631a5.128,5.128,0,0,0,5.132,5.132h167.93a5.128,5.128,0,0,0,5.132-5.132V168.852Z" transform="translate(-23.753 -75.005)" fill="#2f5e88"/>
    <path id="Path_5" data-name="Path 5" d="M195.8,52.835,235.01,72.952,195.8,93.068Z" transform="translate(-86.954 -23.926)" fill="#ff0f47"/>
    <path id="Path_6" data-name="Path 6" d="M435.368,277.788a5.127,5.127,0,0,1,5.132,5.126V300.8l24.23,12.118L440.5,325.031V366.9l-23.013,11.921V277.788Z" transform="translate(-185.201 -121.937)" fill="#ffcd60"/>
    <path id="Path_7" data-name="Path 7" d="M274.253,277.788H106.323a5.127,5.127,0,0,0-5.132,5.126V366.9l17.882,11.921H279.386v-95.9A5.128,5.128,0,0,0,274.253,277.788Z" transform="translate(-43.729 -121.937)" fill="#ffdb8a"/>
    <path id="Path_8" data-name="Path 8" d="M422.619,438.469H440.5V469.1a5.128,5.128,0,0,1-5.132,5.132H417.487Z" transform="translate(-185.201 -194.701)" fill="#27467a"/>
    <path id="Path_9" data-name="Path 9" d="M101.191,438.469V469.1a5.128,5.128,0,0,0,5.132,5.132h167.93a5.128,5.128,0,0,0,5.132-5.132V438.469Z" transform="translate(-43.729 -194.701)" fill="#2f5e88"/>
    <path id="Path_10" data-name="Path 10" d="M244.541,320.273l39.206,20.117-39.206,20.117Z" transform="translate(-108.598 -142.216)" fill="#ff0f47"/>
    <path id="Path_11" data-name="Path 11" d="M229.245,123.022V9.6a9.61,9.61,0,0,0-9.6-9.6H33.829a9.61,9.61,0,0,0-9.6,9.6V24.719L2.471,35.6a4.47,4.47,0,0,0,0,8L24.23,54.474v68.547a9.61,9.61,0,0,0,9.6,9.6H219.646A9.608,9.608,0,0,0,229.245,123.022ZM14.466,39.6,30.7,31.48a4.469,4.469,0,0,0,2.471-4V9.6a.66.66,0,0,1,.659-.659H219.646a.659.659,0,0,1,.658.659V87.918H33.171V51.712a4.469,4.469,0,0,0-2.471-4Zm18.7,83.425V96.859H220.3v26.163a.659.659,0,0,1-.658.659H33.829A.66.66,0,0,1,33.171,123.022Z"/>
    <path id="Path_12" data-name="Path 12" d="M241.747,193.363H81.435a4.47,4.47,0,1,0,0,8.94H241.747a4.47,4.47,0,1,0,0-8.94Z" transform="translate(-33.389 -86.058)"/>
    <path id="Path_13" data-name="Path 13" d="M189.774,92.094a4.469,4.469,0,0,0,4.371.163L233.351,72.14a4.47,4.47,0,0,0,0-7.954L194.145,44.069a4.47,4.47,0,0,0-6.511,3.977V88.279A4.47,4.47,0,0,0,189.774,92.094Zm6.8-36.73,24.944,12.8-24.944,12.8v-25.6Z" transform="translate(-83.263 -19.733)"/>
    <path id="Path_14" data-name="Path 14" d="M319.8,305.215l-21.759-10.88V279.216a9.61,9.61,0,0,0-9.6-9.6H102.621a9.61,9.61,0,0,0-9.6,9.6V392.638a9.61,9.61,0,0,0,9.6,9.6H288.438a9.61,9.61,0,0,0,9.6-9.6V324.092l21.759-10.88a4.47,4.47,0,0,0,0-8ZM288.438,393.3H102.621a.66.66,0,0,1-.659-.659V366.476H289.1v26.163A.66.66,0,0,1,288.438,393.3Zm3.129-75.968a4.47,4.47,0,0,0-2.471,4v36.206H101.962V279.217a.66.66,0,0,1,.659-.659H288.438a.659.659,0,0,1,.658.659V297.1a4.469,4.469,0,0,0,2.471,4l16.233,8.116Z" transform="translate(-38.268 -118.237)"/>
    <path id="Path_15" data-name="Path 15" d="M290.485,462.98H130.173a4.47,4.47,0,0,0,0,8.941H290.485a4.47,4.47,0,1,0,0-8.941Z" transform="translate(-54.532 -205.8)"/>
    <path id="Path_16" data-name="Path 16" d="M282.089,333.8l-39.206-20.117a4.47,4.47,0,0,0-6.511,3.977V357.9a4.47,4.47,0,0,0,6.511,3.977l39.206-20.117a4.47,4.47,0,0,0,0-7.954Zm-36.777,16.776v-25.6l24.944,12.8Z" transform="translate(-104.89 -138.965)"/>
  </g>
</svg>
